<ttFont>
<head>
    <!-- Most of this table will be recalculated by the compiler -->
    <tableVersion value="1.0"/>
    <fontRevision value="1.0"/>
    <checkSumAdjustment value="0xd872be26"/>
    <magicNumber value="0x5f0f3cf5"/>
    <flags value="00000000 00001011"/>
    <unitsPerEm value="1000"/>
    <created value="Thu Apr  4 20:58:32 2019"/>
    <modified value="Thu Apr  4 20:58:33 2019"/>
    <xMin value="-166"/>
    <yMin value="-273"/>
    <xMax value="1135"/>
    <yMax value="1005"/>
    <macStyle value="00000000 00000000"/>
    <lowestRecPPEM value="6"/>
    <fontDirectionHint value="2"/>
    <indexToLocFormat value="0"/>
    <glyphDataFormat value="0"/>
  </head>
    <TTGlyph name=".notdef" xMin="60" yMin="-100" xMax="454" yMax="750">
      <contour>
        <pt x="60" y="-100" on="1"/>
        <pt x="60" y="750" on="1"/>
        <pt x="454" y="750" on="1"/>
        <pt x="454" y="-100" on="1"/>
      </contour>
    </TTGlyph>
    <TTGlyph name="A" xMin="-53" yMin="0" xMax="633" yMax="700">
      <contour>
        <pt x="-53" y="0" on="1"/>
        <pt x="376" y="700" on="1"/>
        <pt x="498" y="700" on="1"/>
        <pt x="633" y="0" on="1"/>
        <pt x="526" y="0" on="1"/>
        <pt x="489" y="205" on="1"/>
        <pt x="182" y="205" on="1"/>
        <pt x="60" y="0" on="1"/>
      </contour>
      <contour>
        <pt x="234" y="292" on="1"/>
        <pt x="473" y="292" on="1"/>
        <pt x="418" y="600" on="1"/>
      </contour>
    </TTGlyph>
    <TTGlyph name="AE" xMin="-53" yMin="0" xMax="1004" yMax="700">
      <contour>
        <pt x="-53" y="0" on="1"/>
        <pt x="377" y="700" on="1"/>
        <pt x="1004" y="700" on="1"/>
        <pt x="985" y="608" on="1"/>
        <pt x="521" y="608" on="1"/>
        <pt x="556" y="398" on="1"/>
        <pt x="807" y="398" on="1"/>
        <pt x="788" y="308" on="1"/>
        <pt x="572" y="308" on="1"/>
        <pt x="608" y="92" on="1"/>
        <pt x="875" y="92" on="1"/>
        <pt x="855" y="0" on="1"/>
        <pt x="521" y="0" on="1"/>
        <pt x="487" y="205" on="1"/>
        <pt x="180" y="205" on="1"/>
        <pt x="55" y="0" on="1"/>
      </contour>
      <contour>
        <pt x="234" y="292" on="1"/>
        <pt x="473" y="292" on="1"/>
        <pt x="422" y="600" on="1"/>
      </contour>
    </TTGlyph>
    <TTGlyph name="Aacute" xMin="-53" yMin="0" xMax="633" yMax="916">
      <component glyphName="A" x="0" y="0" flags="0x204"/>
      <component glyphName="acute" x="159" y="191" flags="0x4"/>
    </TTGlyph>
    <TTGlyph name="Abreve" xMin="-53" yMin="0" xMax="633" yMax="933">
      <component glyphName="A" x="0" y="0" flags="0x204"/>
      <component glyphName="breve" x="123" y="191" flags="0x4"/>
    </TTGlyph>
    <TTGlyph name="Acircumflex" xMin="-53" yMin="0" xMax="633" yMax="918">
      <component glyphName="A" x="0" y="0" flags="0x204"/>
      <component glyphName="circumflex" x="123" y="191" flags="0x4"/>
    </TTGlyph>
    <TTGlyph name="Adieresis" xMin="-53" yMin="0" xMax="633" yMax="910">
      <component glyphName="A" x="0" y="0" flags="0x204"/>
      <component glyphName="dieresis" x="103" y="191" flags="0x4"/>
    </TTGlyph>
    <TTGlyph name="Agrave" xMin="-53" yMin="0" xMax="633" yMax="916">
      <component glyphName="A" x="0" y="0" flags="0x204"/>
      <component glyphName="grave" x="116" y="191" flags="0x4"/>
    </TTGlyph>
    <TTGlyph name="Amacron" xMin="-53" yMin="0" xMax="633" yMax="881">
      <component glyphName="A" x="0" y="0" flags="0x204"/>
      <component glyphName="macron" x="123" y="191" flags="0x4"/>
    </TTGlyph>
    <TTGlyph name="Aogonek" xMin="-53" yMin="-222" xMax="633" yMax="700">
      <contour>
        <pt x="-53" y="0" on="1"/>
        <pt x="376" y="700" on="1"/>
        <pt x="498" y="700" on="1"/>
        <pt x="633" y="0" on="1"/>
        <pt x="570" y="-33" on="0"/>
        <pt x="510" y="-94" on="0"/>
        <pt x="510" y="-126" on="1"/>
        <pt x="510" y="-144" on="0"/>
        <pt x="535" y="-166" on="0"/>
        <pt x="557" y="-166" on="1"/>
        <pt x="567" y="-166" on="0"/>
        <pt x="590" y="-160" on="0"/>
        <pt x="600" y="-155" on="1"/>
        <pt x="605" y="-204" on="1"/>
        <pt x="589" y="-212" on="0"/>
        <pt x="551" y="-222" on="0"/>
        <pt x="532" y="-222" on="1"/>
        <pt x="492" y="-222" on="0"/>
        <pt x="444" y="-182" on="0"/>
        <pt x="444" y="-149" on="1"/>
        <pt x="444" y="-109" on="0"/>
        <pt x="504" y="-34" on="0"/>
        <pt x="564" y="0" on="1"/>
        <pt x="526" y="0" on="1"/>
        <pt x="489" y="205" on="1"/>
        <pt x="182" y="205" on="1"/>
        <pt x="60" y="0" on="1"/>
      </contour>
      <contour>
        <pt x="234" y="292" on="1"/>
        <pt x="473" y="292" on="1"/>
        <pt x="418" y="600" on="1"/>
      </contour>
    </TTGlyph>
    <TTGlyph name="Aring" xMin="-53" yMin="0" xMax="633" yMax="1005">
      <component glyphName="A" x="0" y="0" flags="0x204"/>
      <component glyphName="ring" x="123" y="191" flags="0x4"/>
    </TTGlyph>
    <TTGlyph name="Atilde" xMin="-53" yMin="0" xMax="648" yMax="911">
      <component glyphName="A" x="0" y="0" flags="0x204"/>
      <component glyphName="tilde" x="128" y="191" flags="0x4"/>
    </TTGlyph>
    <TTGlyph name="B" xMin="16" yMin="0" xMax="642" yMax="700">
      <contour>
        <pt x="165" y="700" on="1"/>
        <pt x="442" y="700" on="1"/>
        <pt x="534" y="700" on="0"/>
        <pt x="642" y="613" on="0"/>
        <pt x="642" y="539" on="1"/>
        <pt x="642" y="479" on="0"/>
        <pt x="574" y="382" on="0"/>
        <pt x="517" y="357" on="1"/>
        <pt x="560" y="337" on="0"/>
        <pt x="608" y="267" on="0"/>
        <pt x="608" y="221" on="1"/>
        <pt x="608" y="173" on="0"/>
        <pt x="568" y="92" on="0"/>
        <pt x="499" y="33" on="0"/>
        <pt x="402" y="0" on="0"/>
        <pt x="345" y="0" on="1"/>
        <pt x="16" y="0" on="1"/>
      </contour>
      <contour>
        <pt x="426" y="611" on="1"/>
        <pt x="248" y="611" on="1"/>
        <pt x="204" y="403" on="1"/>
        <pt x="396" y="403" on="1"/>
        <pt x="458" y="403" on="0"/>
        <pt x="538" y="470" on="0"/>
        <pt x="538" y="522" on="1"/>
        <pt x="538" y="564" on="0"/>
        <pt x="477" y="611" on="0"/>
      </contour>
      <contour>
        <pt x="347" y="89" on="1"/>
        <pt x="416" y="89" on="0"/>
        <pt x="504" y="163" on="0"/>
        <pt x="504" y="220" on="1"/>
        <pt x="504" y="266" on="0"/>
        <pt x="437" y="319" on="0"/>
        <pt x="379" y="319" on="1"/>
        <pt x="186" y="319" on="1"/>
        <pt x="137" y="89" on="1"/>
      </contour>
    </TTGlyph>
    <TTGlyph name="C" xMin="60" yMin="-11" xMax="722" yMax="709">
      <contour>
        <pt x="404" y="85" on="1"/>
        <pt x="461" y="85" on="0"/>
        <pt x="572" y="130" on="0"/>
        <pt x="615" y="171" on="1"/>
        <pt x="671" y="100" on="1"/>
        <pt x="614" y="48" on="0"/>
        <pt x="468" y="-11" on="0"/>
        <pt x="394" y="-11" on="1"/>
        <pt x="323" y="-11" on="0"/>
        <pt x="201" y="40" on="0"/>
        <pt x="111" y="128" on="0"/>
        <pt x="60" y="250" on="0"/>
        <pt x="60" y="320" on="1"/>
        <pt x="60" y="399" on="0"/>
        <pt x="121" y="542" on="0"/>
        <pt x="225" y="647" on="0"/>
        <pt x="365" y="709" on="0"/>
        <pt x="444" y="709" on="1"/>
        <pt x="534" y="709" on="0"/>
        <pt x="677" y="640" on="0"/>
        <pt x="722" y="577" on="1"/>
        <pt x="643" y="508" on="1"/>
        <pt x="611" y="558" on="0"/>
        <pt x="504" y="613" on="0"/>
        <pt x="439" y="613" on="1"/>
        <pt x="382" y="613" on="0"/>
        <pt x="281" y="568" on="0"/>
        <pt x="208" y="490" on="0"/>
        <pt x="165" y="384" on="0"/>
        <pt x="165" y="324" on="1"/>
        <pt x="165" y="273" on="0"/>
        <pt x="201" y="185" on="0"/>
        <pt x="264" y="121" on="0"/>
        <pt x="353" y="85" on="0"/>
      </contour>
    </TTGlyph>
    <TTGlyph name="Cacute" xMin="60" yMin="-11" xMax="722" yMax="916">
      <component glyphName="C" x="0" y="0" flags="0x204"/>
      <component glyphName="acute" x="181" y="191" flags="0x4"/>
    </TTGlyph>
    <TTGlyph name="Ccaron" xMin="60" yMin="-11" xMax="722" yMax="919">
      <component glyphName="C" x="0" y="0" flags="0x204"/>
      <component glyphName="caron" x="145" y="191" flags="0x4"/>
    </TTGlyph>
    <TTGlyph name="Ccedilla" xMin="60" yMin="-231" xMax="722" yMax="709">
      <contour>
        <pt x="404" y="85" on="1"/>
        <pt x="461" y="85" on="0"/>
        <pt x="572" y="130" on="0"/>
        <pt x="615" y="171" on="1"/>
        <pt x="671" y="100" on="1"/>
        <pt x="617" y="49" on="0"/>
        <pt x="476" y="-9" on="0"/>
        <pt x="404" y="-11" on="1"/>
        <pt x="383" y="-52" on="1"/>
        <pt x="420" y="-56" on="0"/>
        <pt x="461" y="-97" on="0"/>
        <pt x="461" y="-128" on="1"/>
        <pt x="461" y="-171" on="0"/>
        <pt x="388" y="-231" on="0"/>
        <pt x="334" y="-231" on="1"/>
        <pt x="298" y="-231" on="0"/>
        <pt x="239" y="-206" on="0"/>
        <pt x="218" y="-182" on="1"/>
        <pt x="259" y="-146" on="1"/>
        <pt x="275" y="-163" on="0"/>
        <pt x="314" y="-180" on="0"/>
        <pt x="336" y="-180" on="1"/>
        <pt x="364" y="-180" on="0"/>
        <pt x="400" y="-154" on="0"/>
        <pt x="400" y="-133" on="1"/>
        <pt x="400" y="-114" on="0"/>
        <pt x="370" y="-93" on="0"/>
        <pt x="344" y="-93" on="1"/>
        <pt x="311" y="-93" on="1"/>
        <pt x="353" y="-9" on="1"/>
        <pt x="290" y="-2" on="0"/>
        <pt x="182" y="54" on="0"/>
        <pt x="104" y="141" on="0"/>
        <pt x="60" y="255" on="0"/>
        <pt x="60" y="320" on="1"/>
        <pt x="60" y="399" on="0"/>
        <pt x="121" y="542" on="0"/>
        <pt x="225" y="647" on="0"/>
        <pt x="365" y="709" on="0"/>
        <pt x="444" y="709" on="1"/>
        <pt x="534" y="709" on="0"/>
        <pt x="677" y="640" on="0"/>
        <pt x="722" y="577" on="1"/>
        <pt x="643" y="508" on="1"/>
        <pt x="611" y="558" on="0"/>
        <pt x="504" y="613" on="0"/>
        <pt x="439" y="613" on="1"/>
        <pt x="382" y="613" on="0"/>
        <pt x="281" y="568" on="0"/>
        <pt x="208" y="490" on="0"/>
        <pt x="165" y="384" on="0"/>
        <pt x="165" y="324" on="1"/>
        <pt x="165" y="273" on="0"/>
        <pt x="201" y="185" on="0"/>
        <pt x="264" y="121" on="0"/>
        <pt x="353" y="85" on="0"/>
      </contour>
    </TTGlyph>
    <TTGlyph name="Ccircumflex" xMin="60" yMin="-11" xMax="722" yMax="918">
      <component glyphName="C" x="0" y="0" flags="0x204"/>
      <component glyphName="circumflex" x="144" y="191" flags="0x4"/>
    </TTGlyph>
    <TTGlyph name="Cdotaccent" xMin="60" yMin="-11" xMax="722" yMax="910">
      <component glyphName="C" x="0" y="0" flags="0x204"/>
      <component glyphName="dotaccent" x="263" y="191" flags="0x4"/>
    </TTGlyph>
    <TTGlyph name="D" xMin="16" yMin="0" xMax="696" yMax="700">
      <contour>
        <pt x="16" y="0" on="1"/>
        <pt x="165" y="700" on="1"/>
        <pt x="375" y="700" on="1"/>
        <pt x="446" y="700" on="0"/>
        <pt x="565" y="654" on="0"/>
        <pt x="649" y="573" on="0"/>
        <pt x="696" y="458" on="0"/>
        <pt x="696" y="390" on="1"/>
        <pt x="696" y="310" on="0"/>
        <pt x="631" y="168" on="0"/>
        <pt x="521" y="62" on="0"/>
        <pt x="372" y="0" on="0"/>
        <pt x="289" y="0" on="1"/>
      </contour>
      <contour>
        <pt x="367" y="606" on="1"/>
        <pt x="247" y="606" on="1"/>
        <pt x="138" y="94" on="1"/>
        <pt x="300" y="94" on="1"/>
        <pt x="360" y="94" on="0"/>
        <pt x="466" y="140" on="0"/>
        <pt x="543" y="218" on="0"/>
        <pt x="589" y="324" on="0"/>
        <pt x="589" y="384" on="1"/>
        <pt x="589" y="483" on="0"/>
        <pt x="466" y="606" on="0"/>
      </contour>
    </TTGlyph>
    <TTGlyph name="Dcaron" xMin="16" yMin="0" xMax="696" yMax="919">
      <component glyphName="D" x="0" y="0" flags="0x204"/>
      <component glyphName="caron" x="139" y="191" flags="0x4"/>
    </TTGlyph>
    <TTGlyph name="Dcroat" xMin="21" yMin="0" xMax="718" yMax="700">
      <contour>
        <pt x="38" y="0" on="1"/>
        <pt x="103" y="307" on="1"/>
        <pt x="21" y="307" on="1"/>
        <pt x="39" y="393" on="1"/>
        <pt x="122" y="393" on="1"/>
        <pt x="187" y="700" on="1"/>
        <pt x="397" y="700" on="1"/>
        <pt x="468" y="700" on="0"/>
        <pt x="587" y="654" on="0"/>
        <pt x="671" y="573" on="0"/>
        <pt x="718" y="458" on="0"/>
        <pt x="718" y="390" on="1"/>
        <pt x="718" y="310" on="0"/>
        <pt x="653" y="168" on="0"/>
        <pt x="543" y="62" on="0"/>
        <pt x="394" y="0" on="0"/>
        <pt x="311" y="0" on="1"/>
      </contour>
      <contour>
        <pt x="389" y="606" on="1"/>
        <pt x="269" y="606" on="1"/>
        <pt x="224" y="393" on="1"/>
        <pt x="403" y="393" on="1"/>
        <pt x="385" y="307" on="1"/>
        <pt x="205" y="307" on="1"/>
        <pt x="160" y="94" on="1"/>
        <pt x="322" y="94" on="1"/>
        <pt x="382" y="94" on="0"/>
        <pt x="488" y="140" on="0"/>
        <pt x="565" y="218" on="0"/>
        <pt x="611" y="324" on="0"/>
        <pt x="611" y="384" on="1"/>
        <pt x="611" y="483" on="0"/>
        <pt x="488" y="606" on="0"/>
      </contour>
    </TTGlyph>
    <TTGlyph name="E" xMin="16" yMin="0" xMax="670" yMax="700">
      <contour>
        <pt x="16" y="0" on="1"/>
        <pt x="165" y="700" on="1"/>
        <pt x="670" y="700" on="1"/>
        <pt x="651" y="608" on="1"/>
        <pt x="247" y="608" on="1"/>
        <pt x="203" y="398" on="1"/>
        <pt x="467" y="398" on="1"/>
        <pt x="448" y="308" on="1"/>
        <pt x="184" y="308" on="1"/>
        <pt x="138" y="92" on="1"/>
        <pt x="545" y="92" on="1"/>
        <pt x="525" y="0" on="1"/>
      </contour>
    </TTGlyph>
    <TTGlyph name="Eacute" xMin="16" yMin="0" xMax="670" yMax="916">
      <component glyphName="E" x="0" y="0" flags="0x204"/>
      <component glyphName="acute" x="140" y="191" flags="0x4"/>
    </TTGlyph>
    <TTGlyph name="Ebreve" xMin="16" yMin="0" xMax="670" yMax="933">
      <component glyphName="E" x="0" y="0" flags="0x204"/>
      <component glyphName="breve" x="104" y="191" flags="0x4"/>
    </TTGlyph>
    <TTGlyph name="Ecaron" xMin="16" yMin="0" xMax="670" yMax="919">
      <component glyphName="E" x="0" y="0" flags="0x204"/>
      <component glyphName="caron" x="104" y="191" flags="0x4"/>
    </TTGlyph>
    <TTGlyph name="Ecircumflex" xMin="16" yMin="0" xMax="670" yMax="918">
      <component glyphName="E" x="0" y="0" flags="0x204"/>
      <component glyphName="circumflex" x="104" y="191" flags="0x4"/>
    </TTGlyph>
    <TTGlyph name="Edieresis" xMin="16" yMin="0" xMax="670" yMax="910">
      <component glyphName="E" x="0" y="0" flags="0x204"/>
      <component glyphName="dieresis" x="84" y="191" flags="0x4"/>
    </TTGlyph>
    <TTGlyph name="Edotaccent" xMin="16" yMin="0" xMax="670" yMax="910">
      <component glyphName="E" x="0" y="0" flags="0x204"/>
      <component glyphName="dotaccent" x="222" y="191" flags="0x4"/>
    </TTGlyph>
    <TTGlyph name="Egrave" xMin="16" yMin="0" xMax="670" yMax="916">
      <component glyphName="E" x="0" y="0" flags="0x204"/>
      <component glyphName="grave" x="97" y="191" flags="0x4"/>
    </TTGlyph>
    <TTGlyph name="Emacron" xMin="16" yMin="0" xMax="670" yMax="881">
      <component glyphName="E" x="0" y="0" flags="0x204"/>
      <component glyphName="macron" x="104" y="191" flags="0x4"/>
    </TTGlyph>
    <TTGlyph name="Eng" xMin="16" yMin="-210" xMax="744" yMax="700">
      <contour>
        <pt x="501" y="11" on="1"/>
        <pt x="228" y="541" on="1"/>
        <pt x="113" y="0" on="1"/>
        <pt x="16" y="0" on="1"/>
        <pt x="165" y="700" on="1"/>
        <pt x="263" y="700" on="1"/>
        <pt x="535" y="174" on="1"/>
        <pt x="647" y="700" on="1"/>
        <pt x="744" y="700" on="1"/>
        <pt x="578" y="-79" on="1"/>
        <pt x="565" y="-142" on="0"/>
        <pt x="482" y="-210" on="0"/>
        <pt x="420" y="-210" on="1"/>
        <pt x="403" y="-210" on="0"/>
        <pt x="366" y="-204" on="0"/>
        <pt x="355" y="-200" on="1"/>
        <pt x="372" y="-121" on="1"/>
        <pt x="381" y="-123" on="0"/>
        <pt x="403" y="-127" on="0"/>
        <pt x="418" y="-127" on="1"/>
        <pt x="446" y="-127" on="0"/>
        <pt x="477" y="-99" on="0"/>
        <pt x="484" y="-68" on="1"/>
      </contour>
    </TTGlyph>
    <TTGlyph name="Eogonek" xMin="16" yMin="-222" xMax="670" yMax="700">
      <contour>
        <pt x="16" y="0" on="1"/>
        <pt x="165" y="700" on="1"/>
        <pt x="670" y="700" on="1"/>
        <pt x="651" y="608" on="1"/>
        <pt x="247" y="608" on="1"/>
        <pt x="203" y="398" on="1"/>
        <pt x="467" y="398" on="1"/>
        <pt x="448" y="308" on="1"/>
        <pt x="184" y="308" on="1"/>
        <pt x="138" y="92" on="1"/>
        <pt x="545" y="92" on="1"/>
        <pt x="525" y="0" on="1"/>
        <pt x="462" y="-33" on="0"/>
        <pt x="402" y="-94" on="0"/>
        <pt x="402" y="-126" on="1"/>
        <pt x="402" y="-144" on="0"/>
        <pt x="427" y="-166" on="0"/>
        <pt x="449" y="-166" on="1"/>
        <pt x="459" y="-166" on="0"/>
        <pt x="482" y="-160" on="0"/>
        <pt x="492" y="-155" on="1"/>
        <pt x="497" y="-204" on="1"/>
        <pt x="481" y="-212" on="0"/>
        <pt x="443" y="-222" on="0"/>
        <pt x="424" y="-222" on="1"/>
        <pt x="384" y="-222" on="0"/>
        <pt x="336" y="-182" on="0"/>
        <pt x="336" y="-149" on="1"/>
        <pt x="336" y="-109" on="0"/>
        <pt x="396" y="-34" on="0"/>
        <pt x="456" y="0" on="1"/>
      </contour>
    </TTGlyph>
    <TTGlyph name="Eth" xMin="21" yMin="0" xMax="718" yMax="700">
      <contour>
        <pt x="38" y="0" on="1"/>
        <pt x="103" y="307" on="1"/>
        <pt x="21" y="307" on="1"/>
        <pt x="39" y="393" on="1"/>
        <pt x="122" y="393" on="1"/>
        <pt x="187" y="700" on="1"/>
        <pt x="397" y="700" on="1"/>
        <pt x="468" y="700" on="0"/>
        <pt x="587" y="654" on="0"/>
        <pt x="671" y="573" on="0"/>
        <pt x="718" y="458" on="0"/>
        <pt x="718" y="390" on="1"/>
        <pt x="718" y="310" on="0"/>
        <pt x="653" y="168" on="0"/>
        <pt x="543" y="62" on="0"/>
        <pt x="394" y="0" on="0"/>
        <pt x="311" y="0" on="1"/>
      </contour>
      <contour>
        <pt x="389" y="606" on="1"/>
        <pt x="269" y="606" on="1"/>
        <pt x="224" y="393" on="1"/>
        <pt x="403" y="393" on="1"/>
        <pt x="385" y="307" on="1"/>
        <pt x="205" y="307" on="1"/>
        <pt x="160" y="94" on="1"/>
        <pt x="322" y="94" on="1"/>
        <pt x="382" y="94" on="0"/>
        <pt x="488" y="140" on="0"/>
        <pt x="565" y="218" on="0"/>
        <pt x="611" y="324" on="0"/>
        <pt x="611" y="384" on="1"/>
        <pt x="611" y="483" on="0"/>
        <pt x="488" y="606" on="0"/>
      </contour>
    </TTGlyph>
    <TTGlyph name="Euro" xMin="33" yMin="-10" xMax="791" yMax="710">
      <contour>
        <pt x="456" y="314" on="1"/>
        <pt x="423" y="255" on="1"/>
        <pt x="225" y="255" on="1"/>
        <pt x="235" y="171" on="0"/>
        <pt x="350" y="74" on="0"/>
        <pt x="439" y="74" on="1"/>
        <pt x="495" y="74" on="0"/>
        <pt x="599" y="116" on="0"/>
        <pt x="637" y="154" on="1"/>
        <pt x="694" y="99" on="1"/>
        <pt x="642" y="46" on="0"/>
        <pt x="505" y="-10" on="0"/>
        <pt x="430" y="-10" on="1"/>
        <pt x="303" y="-10" on="0"/>
        <pt x="142" y="136" on="0"/>
        <pt x="132" y="255" on="1"/>
        <pt x="33" y="255" on="1"/>
        <pt x="45" y="314" on="1"/>
        <pt x="132" y="314" on="1"/>
        <pt x="133" y="333" on="0"/>
        <pt x="139" y="370" on="0"/>
        <pt x="143" y="388" on="1"/>
        <pt x="61" y="388" on="1"/>
        <pt x="74" y="447" on="1"/>
        <pt x="160" y="447" on="1"/>
        <pt x="182" y="505" on="0"/>
        <pt x="256" y="602" on="0"/>
        <pt x="351" y="671" on="0"/>
        <pt x="465" y="710" on="0"/>
        <pt x="527" y="710" on="1"/>
        <pt x="620" y="710" on="0"/>
        <pt x="757" y="634" on="0"/>
        <pt x="791" y="564" on="1"/>
        <pt x="714" y="517" on="1"/>
        <pt x="688" y="568" on="0"/>
        <pt x="582" y="627" on="0"/>
        <pt x="517" y="627" on="1"/>
        <pt x="433" y="627" on="0"/>
        <pt x="294" y="527" on="0"/>
        <pt x="257" y="447" on="1"/>
        <pt x="532" y="447" on="1"/>
        <pt x="498" y="388" on="1"/>
        <pt x="236" y="388" on="1"/>
        <pt x="231" y="370" on="0"/>
        <pt x="225" y="333" on="0"/>
        <pt x="224" y="314" on="1"/>
      </contour>
    </TTGlyph>
    <TTGlyph name="F" xMin="16" yMin="0" xMax="672" yMax="700">
      <contour>
        <pt x="16" y="0" on="1"/>
        <pt x="165" y="700" on="1"/>
        <pt x="672" y="700" on="1"/>
        <pt x="652" y="608" on="1"/>
        <pt x="247" y="608" on="1"/>
        <pt x="202" y="393" on="1"/>
        <pt x="468" y="393" on="1"/>
        <pt x="449" y="303" on="1"/>
        <pt x="182" y="303" on="1"/>
        <pt x="118" y="0" on="1"/>
      </contour>
    </TTGlyph>
    <TTGlyph name="G" xMin="57" yMin="-12" xMax="760" yMax="710">
      <contour>
        <pt x="750" y="318" on="1"/>
        <pt x="738" y="246" on="0"/>
        <pt x="672" y="125" on="0"/>
        <pt x="576" y="37" on="0"/>
        <pt x="454" y="-12" on="0"/>
        <pt x="387" y="-12" on="1"/>
        <pt x="317" y="-12" on="0"/>
        <pt x="196" y="38" on="0"/>
        <pt x="107" y="126" on="0"/>
        <pt x="57" y="247" on="0"/>
        <pt x="57" y="316" on="1"/>
        <pt x="57" y="396" on="0"/>
        <pt x="119" y="540" on="0"/>
        <pt x="225" y="647" on="0"/>
        <pt x="366" y="710" on="0"/>
        <pt x="445" y="710" on="1"/>
        <pt x="532" y="710" on="0"/>
        <pt x="678" y="638" on="0"/>
        <pt x="725" y="573" on="1"/>
        <pt x="645" y="505" on="1"/>
        <pt x="612" y="556" on="0"/>
        <pt x="501" y="613" on="0"/>
        <pt x="437" y="613" on="1"/>
        <pt x="380" y="613" on="0"/>
        <pt x="280" y="567" on="0"/>
        <pt x="205" y="488" on="0"/>
        <pt x="162" y="381" on="0"/>
        <pt x="162" y="321" on="1"/>
        <pt x="162" y="270" on="0"/>
        <pt x="197" y="183" on="0"/>
        <pt x="259" y="120" on="0"/>
        <pt x="345" y="84" on="0"/>
        <pt x="395" y="84" on="1"/>
        <pt x="483" y="84" on="0"/>
        <pt x="618" y="196" on="0"/>
        <pt x="637" y="286" on="1"/>
        <pt x="408" y="286" on="1"/>
        <pt x="425" y="377" on="1"/>
        <pt x="760" y="377" on="1"/>
      </contour>
    </TTGlyph>
    <TTGlyph name="Gbreve" xMin="57" yMin="-12" xMax="760" yMax="933">
      <component glyphName="G" x="0" y="0" flags="0x204"/>
      <component glyphName="breve" x="144" y="191" flags="0x4"/>
    </TTGlyph>
    <TTGlyph name="Gcircumflex" xMin="57" yMin="-12" xMax="760" yMax="918">
      <component glyphName="G" x="0" y="0" flags="0x204"/>
      <component glyphName="circumflex" x="144" y="191" flags="0x4"/>
    </TTGlyph>
    <TTGlyph name="Gcommaaccent" xMin="57" yMin="-273" xMax="760" yMax="710">
      <component glyphName="G" x="0" y="0" flags="0x204"/>
      <component glyphName="commaaccent" x="335" y="0" flags="0x4"/>
    </TTGlyph>
    <TTGlyph name="Gdotaccent" xMin="57" yMin="-12" xMax="760" yMax="910">
      <component glyphName="G" x="0" y="0" flags="0x204"/>
      <component glyphName="dotaccent" x="262" y="191" flags="0x4"/>
    </TTGlyph>
    <TTGlyph name="H" xMin="16" yMin="0" xMax="735" yMax="700">
      <contour>
        <pt x="16" y="0" on="1"/>
        <pt x="165" y="700" on="1"/>
        <pt x="267" y="700" on="1"/>
        <pt x="203" y="400" on="1"/>
        <pt x="568" y="400" on="1"/>
        <pt x="632" y="700" on="1"/>
        <pt x="735" y="700" on="1"/>
        <pt x="586" y="0" on="1"/>
        <pt x="483" y="0" on="1"/>
        <pt x="548" y="305" on="1"/>
        <pt x="183" y="305" on="1"/>
        <pt x="118" y="0" on="1"/>
      </contour>
    </TTGlyph>
    <TTGlyph name="Hbar" xMin="26" yMin="0" xMax="790" yMax="700">
      <contour>
        <pt x="26" y="0" on="1"/>
        <pt x="135" y="510" on="1"/>
        <pt x="67" y="510" on="1"/>
        <pt x="85" y="596" on="1"/>
        <pt x="153" y="596" on="1"/>
        <pt x="175" y="700" on="1"/>
        <pt x="277" y="700" on="1"/>
        <pt x="255" y="596" on="1"/>
        <pt x="621" y="596" on="1"/>
        <pt x="643" y="700" on="1"/>
        <pt x="745" y="700" on="1"/>
        <pt x="723" y="596" on="1"/>
        <pt x="790" y="596" on="1"/>
        <pt x="772" y="510" on="1"/>
        <pt x="705" y="510" on="1"/>
        <pt x="596" y="0" on="1"/>
        <pt x="494" y="0" on="1"/>
        <pt x="559" y="305" on="1"/>
        <pt x="193" y="305" on="1"/>
        <pt x="128" y="0" on="1"/>
      </contour>
      <contour>
        <pt x="213" y="400" on="1"/>
        <pt x="579" y="400" on="1"/>
        <pt x="603" y="510" on="1"/>
        <pt x="237" y="510" on="1"/>
      </contour>
    </TTGlyph>
    <TTGlyph name="Hcircumflex" xMin="16" yMin="0" xMax="735" yMax="918">
      <component glyphName="H" x="0" y="0" flags="0x204"/>
      <component glyphName="circumflex" x="142" y="191" flags="0x4"/>
    </TTGlyph>
    <TTGlyph name="I" xMin="16" yMin="0" xMax="267" yMax="700">
      <contour>
        <pt x="16" y="0" on="1"/>
        <pt x="165" y="700" on="1"/>
        <pt x="267" y="700" on="1"/>
        <pt x="118" y="0" on="1"/>
      </contour>
    </TTGlyph>
    <TTGlyph name="IJ" xMin="16" yMin="-10" xMax="886" yMax="700">
      <component glyphName="I" x="0" y="0" flags="0x4"/>
      <component glyphName="J" x="243" y="0" flags="0x4"/>
    </TTGlyph>
    <TTGlyph name="Iacute" xMin="16" yMin="0" xMax="413" yMax="916">
      <component glyphName="I" x="0" y="0" flags="0x204"/>
      <component glyphName="acute" x="-56" y="191" flags="0x4"/>
    </TTGlyph>
    <TTGlyph name="Ibreve" xMin="16" yMin="0" xMax="417" yMax="933">
      <component glyphName="I" x="0" y="0" flags="0x204"/>
      <component glyphName="breve" x="-92" y="191" flags="0x4"/>
    </TTGlyph>
    <TTGlyph name="Icircumflex" xMin="16" yMin="0" xMax="393" yMax="918">
      <component glyphName="I" x="0" y="0" flags="0x204"/>
      <component glyphName="circumflex" x="-92" y="191" flags="0x4"/>
    </TTGlyph>
    <TTGlyph name="Idieresis" xMin="16" yMin="0" xMax="402" yMax="910">
      <component glyphName="I" x="0" y="0" flags="0x204"/>
      <component glyphName="dieresis" x="-112" y="191" flags="0x4"/>
    </TTGlyph>
    <TTGlyph name="Idotaccent" xMin="16" yMin="0" xMax="308" yMax="910">
      <component glyphName="I" x="0" y="0" flags="0x204"/>
      <component glyphName="dotaccent" x="26" y="191" flags="0x4"/>
    </TTGlyph>
    <TTGlyph name="Igrave" xMin="16" yMin="0" xMax="283" yMax="916">
      <component glyphName="I" x="0" y="0" flags="0x204"/>
      <component glyphName="grave" x="-99" y="191" flags="0x4"/>
    </TTGlyph>
    <TTGlyph name="Imacron" xMin="16" yMin="0" xMax="404" yMax="881">
      <component glyphName="I" x="0" y="0" flags="0x204"/>
      <component glyphName="macron" x="-92" y="191" flags="0x4"/>
    </TTGlyph>
    <TTGlyph name="Iogonek" xMin="-71" yMin="-222" xMax="267" yMax="700">
      <contour>
        <pt x="16" y="0" on="1"/>
        <pt x="165" y="700" on="1"/>
        <pt x="267" y="700" on="1"/>
        <pt x="118" y="0" on="1"/>
        <pt x="55" y="-33" on="0"/>
        <pt x="-5" y="-94" on="0"/>
        <pt x="-5" y="-126" on="1"/>
        <pt x="-5" y="-144" on="0"/>
        <pt x="20" y="-166" on="0"/>
        <pt x="42" y="-166" on="1"/>
        <pt x="52" y="-166" on="0"/>
        <pt x="75" y="-160" on="0"/>
        <pt x="85" y="-155" on="1"/>
        <pt x="90" y="-204" on="1"/>
        <pt x="74" y="-212" on="0"/>
        <pt x="36" y="-222" on="0"/>
        <pt x="17" y="-222" on="1"/>
        <pt x="-23" y="-222" on="0"/>
        <pt x="-71" y="-182" on="0"/>
        <pt x="-71" y="-149" on="1"/>
        <pt x="-71" y="-109" on="0"/>
        <pt x="-11" y="-34" on="0"/>
        <pt x="49" y="0" on="1"/>
      </contour>
    </TTGlyph>
    <TTGlyph name="Itilde" xMin="16" yMin="0" xMax="432" yMax="911">
      <component glyphName="I" x="0" y="0" flags="0x204"/>
      <component glyphName="tilde" x="-88" y="191" flags="0x4"/>
    </TTGlyph>
    <TTGlyph name="J" xMin="12" yMin="-10" xMax="643" yMax="700">
      <contour>
        <pt x="547" y="254" on="1"/>
        <pt x="520" y="129" on="0"/>
        <pt x="365" y="-10" on="0"/>
        <pt x="254" y="-10" on="1"/>
        <pt x="157" y="-10" on="0"/>
        <pt x="29" y="92" on="0"/>
        <pt x="12" y="185" on="1"/>
        <pt x="106" y="219" on="1"/>
        <pt x="119" y="152" on="0"/>
        <pt x="193" y="85" on="0"/>
        <pt x="253" y="85" on="1"/>
        <pt x="325" y="85" on="0"/>
        <pt x="429" y="183" on="0"/>
        <pt x="447" y="268" on="1"/>
        <pt x="539" y="700" on="1"/>
        <pt x="643" y="700" on="1"/>
      </contour>
    </TTGlyph>
    <TTGlyph name="Jcircumflex" xMin="12" yMin="-10" xMax="768" yMax="918">
      <component glyphName="J" x="0" y="0" flags="0x204"/>
      <component glyphName="circumflex" x="283" y="191" flags="0x4"/>
    </TTGlyph>
    <TTGlyph name="K" xMin="16" yMin="0" xMax="732" yMax="700">
      <contour>
        <pt x="16" y="0" on="1"/>
        <pt x="165" y="700" on="1"/>
        <pt x="267" y="700" on="1"/>
        <pt x="200" y="385" on="1"/>
        <pt x="595" y="700" on="1"/>
        <pt x="732" y="700" on="1"/>
        <pt x="302" y="360" on="1"/>
        <pt x="588" y="0" on="1"/>
        <pt x="456" y="0" on="1"/>
        <pt x="190" y="341" on="1"/>
        <pt x="118" y="0" on="1"/>
      </contour>
    </TTGlyph>
    <TTGlyph name="Kcommaaccent" xMin="16" yMin="-273" xMax="732" yMax="700">
      <component glyphName="K" x="0" y="0" flags="0x204"/>
      <component glyphName="commaaccent" x="228" y="0" flags="0x4"/>
    </TTGlyph>
    <TTGlyph name="L" xMin="16" yMin="0" xMax="533" yMax="700">
      <contour>
        <pt x="16" y="0" on="1"/>
        <pt x="165" y="700" on="1"/>
        <pt x="267" y="700" on="1"/>
        <pt x="138" y="93" on="1"/>
        <pt x="533" y="93" on="1"/>
        <pt x="513" y="0" on="1"/>
      </contour>
    </TTGlyph>
    <TTGlyph name="Lacute" xMin="16" yMin="0" xMax="533" yMax="916">
      <component glyphName="L" x="0" y="0" flags="0x204"/>
      <component glyphName="acute" x="-56" y="191" flags="0x4"/>
    </TTGlyph>
    <TTGlyph name="Lcaron" xMin="16" yMin="0" xMax="591" yMax="716">
      <component glyphName="L" x="0" y="0" flags="0x4"/>
      <component glyphName="caronSlovak" x="237" y="0" flags="0x4"/>
    </TTGlyph>
    <TTGlyph name="Lcommaaccent" xMin="16" yMin="-273" xMax="533" yMax="700">
      <component glyphName="L" x="0" y="0" flags="0x204"/>
      <component glyphName="commaaccent" x="223" y="0" flags="0x4"/>
    </TTGlyph>
    <TTGlyph name="Ldot" xMin="16" yMin="0" xMax="533" yMax="700">
      <component glyphName="L" x="0" y="0" flags="0x4"/>
      <component glyphName="dotaccent" x="219" y="-300" flags="0x4"/>
    </TTGlyph>
    <TTGlyph name="Lslash" xMin="-8" yMin="0" xMax="552" yMax="700">
      <contour>
        <pt x="35" y="0" on="1"/>
        <pt x="82" y="221" on="1"/>
        <pt x="-8" y="165" on="1"/>
        <pt x="12" y="261" on="1"/>
        <pt x="102" y="317" on="1"/>
        <pt x="184" y="700" on="1"/>
        <pt x="286" y="700" on="1"/>
        <pt x="220" y="389" on="1"/>
        <pt x="438" y="523" on="1"/>
        <pt x="418" y="428" on="1"/>
        <pt x="199" y="293" on="1"/>
        <pt x="157" y="93" on="1"/>
        <pt x="552" y="93" on="1"/>
        <pt x="532" y="0" on="1"/>
      </contour>
    </TTGlyph>
    <TTGlyph name="M" xMin="16" yMin="0" xMax="869" yMax="700">
      <contour>
        <pt x="380" y="50" on="1"/>
        <pt x="234" y="572" on="1"/>
        <pt x="113" y="0" on="1"/>
        <pt x="16" y="0" on="1"/>
        <pt x="165" y="700" on="1"/>
        <pt x="298" y="700" on="1"/>
        <pt x="419" y="252" on="1"/>
        <pt x="728" y="700" on="1"/>
        <pt x="869" y="700" on="1"/>
        <pt x="720" y="0" on="1"/>
        <pt x="625" y="0" on="1"/>
        <pt x="745" y="569" on="1"/>
      </contour>
    </TTGlyph>
    <TTGlyph name="N" xMin="16" yMin="0" xMax="744" yMax="700">
      <contour>
        <pt x="165" y="700" on="1"/>
        <pt x="263" y="700" on="1"/>
        <pt x="535" y="169" on="1"/>
        <pt x="647" y="700" on="1"/>
        <pt x="744" y="700" on="1"/>
        <pt x="595" y="0" on="1"/>
        <pt x="507" y="0" on="1"/>
        <pt x="228" y="545" on="1"/>
        <pt x="113" y="0" on="1"/>
        <pt x="16" y="0" on="1"/>
      </contour>
    </TTGlyph>
    <TTGlyph name="Nacute" xMin="16" yMin="0" xMax="744" yMax="916">
      <component glyphName="N" x="0" y="0" flags="0x204"/>
      <component glyphName="acute" x="182" y="191" flags="0x4"/>
    </TTGlyph>
    <TTGlyph name="Ncaron" xMin="16" yMin="0" xMax="744" yMax="919">
      <component glyphName="N" x="0" y="0" flags="0x204"/>
      <component glyphName="caron" x="147" y="191" flags="0x4"/>
    </TTGlyph>
    <TTGlyph name="Ncommaaccent" xMin="16" yMin="-273" xMax="744" yMax="700">
      <component glyphName="N" x="0" y="0" flags="0x204"/>
      <component glyphName="commaaccent" x="244" y="0" flags="0x4"/>
    </TTGlyph>
    <TTGlyph name="Ntilde" xMin="16" yMin="0" xMax="744" yMax="911">
      <component glyphName="N" x="0" y="0" flags="0x204"/>
      <component glyphName="tilde" x="151" y="191" flags="0x4"/>
    </TTGlyph>
    <TTGlyph name="O" xMin="59" yMin="-11" xMax="775" yMax="711">
      <contour>
        <pt x="775" y="380" on="1"/>
        <pt x="775" y="300" on="0"/>
        <pt x="714" y="157" on="0"/>
        <pt x="610" y="51" on="0"/>
        <pt x="469" y="-11" on="0"/>
        <pt x="391" y="-11" on="1"/>
        <pt x="320" y="-11" on="0"/>
        <pt x="198" y="40" on="0"/>
        <pt x="110" y="128" on="0"/>
        <pt x="59" y="249" on="0"/>
        <pt x="59" y="320" on="1"/>
        <pt x="59" y="400" on="0"/>
        <pt x="120" y="543" on="0"/>
        <pt x="224" y="649" on="0"/>
        <pt x="364" y="711" on="0"/>
        <pt x="442" y="711" on="1"/>
        <pt x="513" y="711" on="0"/>
        <pt x="635" y="660" on="0"/>
        <pt x="724" y="572" on="0"/>
        <pt x="775" y="451" on="0"/>
      </contour>
      <contour>
        <pt x="671" y="374" on="1"/>
        <pt x="671" y="425" on="0"/>
        <pt x="635" y="513" on="0"/>
        <pt x="573" y="577" on="0"/>
        <pt x="486" y="614" on="0"/>
        <pt x="436" y="614" on="1"/>
        <pt x="380" y="614" on="0"/>
        <pt x="280" y="568" on="0"/>
        <pt x="206" y="490" on="0"/>
        <pt x="163" y="385" on="0"/>
        <pt x="163" y="326" on="1"/>
        <pt x="163" y="275" on="0"/>
        <pt x="199" y="187" on="0"/>
        <pt x="261" y="123" on="0"/>
        <pt x="348" y="86" on="0"/>
        <pt x="398" y="86" on="1"/>
        <pt x="454" y="86" on="0"/>
        <pt x="554" y="132" on="0"/>
        <pt x="628" y="210" on="0"/>
        <pt x="671" y="315" on="0"/>
      </contour>
    </TTGlyph>
    <TTGlyph name="OE" xMin="58" yMin="0" xMax="1135" yMax="700">
      <contour>
        <pt x="379" y="0" on="1"/>
        <pt x="311" y="0" on="0"/>
        <pt x="193" y="48" on="0"/>
        <pt x="107" y="133" on="0"/>
        <pt x="58" y="249" on="0"/>
        <pt x="58" y="317" on="1"/>
        <pt x="58" y="395" on="0"/>
        <pt x="120" y="534" on="0"/>
        <pt x="224" y="639" on="0"/>
        <pt x="364" y="700" on="0"/>
        <pt x="441" y="700" on="1"/>
        <pt x="1135" y="700" on="1"/>
        <pt x="1116" y="608" on="1"/>
        <pt x="665" y="608" on="1"/>
        <pt x="707" y="569" on="0"/>
        <pt x="756" y="461" on="0"/>
        <pt x="759" y="398" on="1"/>
        <pt x="946" y="398" on="1"/>
        <pt x="927" y="308" on="1"/>
        <pt x="751" y="308" on="1"/>
        <pt x="738" y="245" on="0"/>
        <pt x="669" y="132" on="0"/>
        <pt x="620" y="92" on="1"/>
        <pt x="1006" y="92" on="1"/>
        <pt x="987" y="0" on="1"/>
      </contour>
      <contour>
        <pt x="386" y="96" on="1"/>
        <pt x="441" y="96" on="0"/>
        <pt x="539" y="141" on="0"/>
        <pt x="611" y="217" on="0"/>
        <pt x="654" y="321" on="0"/>
        <pt x="654" y="378" on="1"/>
        <pt x="654" y="427" on="0"/>
        <pt x="621" y="510" on="0"/>
        <pt x="562" y="570" on="0"/>
        <pt x="480" y="604" on="0"/>
        <pt x="433" y="604" on="1"/>
        <pt x="379" y="604" on="0"/>
        <pt x="280" y="559" on="0"/>
        <pt x="207" y="482" on="0"/>
        <pt x="164" y="379" on="0"/>
        <pt x="164" y="322" on="1"/>
        <pt x="164" y="273" on="0"/>
        <pt x="198" y="190" on="0"/>
        <pt x="256" y="130" on="0"/>
        <pt x="338" y="96" on="0"/>
      </contour>
    </TTGlyph>
    <TTGlyph name="Oacute" xMin="59" yMin="-11" xMax="775" yMax="916">
      <component glyphName="O" x="0" y="0" flags="0x204"/>
      <component glyphName="acute" x="176" y="191" flags="0x4"/>
    </TTGlyph>
    <TTGlyph name="Obreve" xMin="59" yMin="-11" xMax="775" yMax="933">
      <component glyphName="O" x="0" y="0" flags="0x204"/>
      <component glyphName="breve" x="140" y="191" flags="0x4"/>
    </TTGlyph>
    <TTGlyph name="Ocircumflex" xMin="59" yMin="-11" xMax="775" yMax="918">
      <component glyphName="O" x="0" y="0" flags="0x204"/>
      <component glyphName="circumflex" x="139" y="191" flags="0x4"/>
    </TTGlyph>
    <TTGlyph name="Odieresis" xMin="59" yMin="-11" xMax="775" yMax="910">
      <component glyphName="O" x="0" y="0" flags="0x204"/>
      <component glyphName="dieresis" x="120" y="191" flags="0x4"/>
    </TTGlyph>
    <TTGlyph name="Ograve" xMin="59" yMin="-11" xMax="775" yMax="916">
      <component glyphName="O" x="0" y="0" flags="0x204"/>
      <component glyphName="grave" x="133" y="191" flags="0x4"/>
    </TTGlyph>
    <TTGlyph name="Ohungarumlaut" xMin="59" yMin="-11" xMax="775" yMax="916">
      <component glyphName="O" x="0" y="0" flags="0x204"/>
      <component glyphName="hungarumlaut" x="151" y="191" flags="0x4"/>
    </TTGlyph>
    <TTGlyph name="Omacron" xMin="59" yMin="-11" xMax="775" yMax="881">
      <component glyphName="O" x="0" y="0" flags="0x204"/>
      <component glyphName="macron" x="140" y="191" flags="0x4"/>
    </TTGlyph>
    <TTGlyph name="Oslash" xMin="8" yMin="-11" xMax="824" yMax="711">
      <contour>
        <pt x="110" y="0" on="1"/>
        <pt x="8" y="0" on="1"/>
        <pt x="126" y="116" on="1"/>
        <pt x="95" y="157" on="0"/>
        <pt x="59" y="262" on="0"/>
        <pt x="59" y="320" on="1"/>
        <pt x="59" y="400" on="0"/>
        <pt x="120" y="543" on="0"/>
        <pt x="224" y="649" on="0"/>
        <pt x="364" y="711" on="0"/>
        <pt x="442" y="711" on="1"/>
        <pt x="504" y="711" on="0"/>
        <pt x="614" y="672" on="0"/>
        <pt x="657" y="637" on="1"/>
        <pt x="721" y="700" on="1"/>
        <pt x="824" y="700" on="1"/>
        <pt x="707" y="585" on="1"/>
        <pt x="739" y="544" on="0"/>
        <pt x="775" y="439" on="0"/>
        <pt x="775" y="380" on="1"/>
        <pt x="775" y="300" on="0"/>
        <pt x="714" y="157" on="0"/>
        <pt x="610" y="51" on="0"/>
        <pt x="469" y="-11" on="0"/>
        <pt x="391" y="-11" on="1"/>
        <pt x="328" y="-11" on="0"/>
        <pt x="218" y="29" on="0"/>
        <pt x="175" y="64" on="1"/>
      </contour>
      <contour>
        <pt x="163" y="326" on="1"/>
        <pt x="163" y="288" on="0"/>
        <pt x="183" y="218" on="0"/>
        <pt x="202" y="190" on="1"/>
        <pt x="583" y="564" on="1"/>
        <pt x="553" y="588" on="0"/>
        <pt x="479" y="614" on="0"/>
        <pt x="436" y="614" on="1"/>
        <pt x="380" y="614" on="0"/>
        <pt x="280" y="568" on="0"/>
        <pt x="206" y="490" on="0"/>
        <pt x="163" y="385" on="0"/>
      </contour>
      <contour>
        <pt x="671" y="374" on="1"/>
        <pt x="671" y="413" on="0"/>
        <pt x="650" y="483" on="0"/>
        <pt x="631" y="511" on="1"/>
        <pt x="250" y="137" on="1"/>
        <pt x="279" y="113" on="0"/>
        <pt x="355" y="86" on="0"/>
        <pt x="398" y="86" on="1"/>
        <pt x="454" y="86" on="0"/>
        <pt x="554" y="132" on="0"/>
        <pt x="628" y="210" on="0"/>
        <pt x="671" y="315" on="0"/>
      </contour>
    </TTGlyph>
    <TTGlyph name="Otilde" xMin="59" yMin="-11" xMax="775" yMax="911">
      <component glyphName="O" x="0" y="0" flags="0x204"/>
      <component glyphName="tilde" x="144" y="191" flags="0x4"/>
    </TTGlyph>
    <TTGlyph name="P" xMin="16" yMin="0" xMax="662" yMax="700">
      <contour>
        <pt x="16" y="0" on="1"/>
        <pt x="165" y="700" on="1"/>
        <pt x="456" y="700" on="1"/>
        <pt x="549" y="700" on="0"/>
        <pt x="662" y="599" on="0"/>
        <pt x="662" y="515" on="1"/>
        <pt x="662" y="465" on="0"/>
        <pt x="624" y="380" on="0"/>
        <pt x="556" y="318" on="0"/>
        <pt x="463" y="282" on="0"/>
        <pt x="409" y="282" on="1"/>
        <pt x="178" y="282" on="1"/>
        <pt x="118" y="0" on="1"/>
      </contour>
      <contour>
        <pt x="440" y="608" on="1"/>
        <pt x="247" y="608" on="1"/>
        <pt x="197" y="371" on="1"/>
        <pt x="408" y="371" on="1"/>
        <pt x="474" y="371" on="0"/>
        <pt x="559" y="448" on="0"/>
        <pt x="559" y="507" on="1"/>
        <pt x="559" y="554" on="0"/>
        <pt x="495" y="608" on="0"/>
      </contour>
    </TTGlyph>
    <TTGlyph name="Q" xMin="59" yMin="-23" xMax="775" yMax="711">
      <contour>
        <pt x="775" y="380" on="1"/>
        <pt x="775" y="290" on="0"/>
        <pt x="698" y="132" on="0"/>
        <pt x="634" y="78" on="1"/>
        <pt x="688" y="-13" on="1"/>
        <pt x="589" y="-23" on="1"/>
        <pt x="558" y="29" on="1"/>
        <pt x="521" y="10" on="0"/>
        <pt x="436" y="-11" on="0"/>
        <pt x="391" y="-11" on="1"/>
        <pt x="320" y="-11" on="0"/>
        <pt x="198" y="40" on="0"/>
        <pt x="110" y="128" on="0"/>
        <pt x="59" y="249" on="0"/>
        <pt x="59" y="320" on="1"/>
        <pt x="59" y="400" on="0"/>
        <pt x="120" y="543" on="0"/>
        <pt x="224" y="649" on="0"/>
        <pt x="364" y="711" on="0"/>
        <pt x="442" y="711" on="1"/>
        <pt x="513" y="711" on="0"/>
        <pt x="635" y="660" on="0"/>
        <pt x="724" y="572" on="0"/>
        <pt x="775" y="451" on="0"/>
      </contour>
      <contour>
        <pt x="537" y="240" on="1"/>
        <pt x="583" y="163" on="1"/>
        <pt x="623" y="203" on="0"/>
        <pt x="671" y="312" on="0"/>
        <pt x="671" y="374" on="1"/>
        <pt x="671" y="425" on="0"/>
        <pt x="635" y="513" on="0"/>
        <pt x="573" y="577" on="0"/>
        <pt x="486" y="614" on="0"/>
        <pt x="436" y="614" on="1"/>
        <pt x="380" y="614" on="0"/>
        <pt x="280" y="568" on="0"/>
        <pt x="206" y="490" on="0"/>
        <pt x="163" y="385" on="0"/>
        <pt x="163" y="326" on="1"/>
        <pt x="163" y="275" on="0"/>
        <pt x="199" y="187" on="0"/>
        <pt x="261" y="123" on="0"/>
        <pt x="348" y="86" on="0"/>
        <pt x="398" y="86" on="1"/>
        <pt x="428" y="86" on="0"/>
        <pt x="484" y="99" on="0"/>
        <pt x="509" y="111" on="1"/>
        <pt x="439" y="230" on="1"/>
      </contour>
    </TTGlyph>
    <TTGlyph name="R" xMin="16" yMin="0" xMax="661" yMax="700">
      <contour>
        <pt x="16" y="0" on="1"/>
        <pt x="165" y="700" on="1"/>
        <pt x="456" y="700" on="1"/>
        <pt x="549" y="700" on="0"/>
        <pt x="661" y="600" on="0"/>
        <pt x="661" y="517" on="1"/>
        <pt x="661" y="434" on="0"/>
        <pt x="556" y="313" on="0"/>
        <pt x="473" y="295" on="1"/>
        <pt x="574" y="0" on="1"/>
        <pt x="466" y="0" on="1"/>
        <pt x="371" y="288" on="1"/>
        <pt x="179" y="288" on="1"/>
        <pt x="118" y="0" on="1"/>
      </contour>
      <contour>
        <pt x="439" y="608" on="1"/>
        <pt x="247" y="608" on="1"/>
        <pt x="198" y="375" on="1"/>
        <pt x="407" y="375" on="1"/>
        <pt x="473" y="375" on="0"/>
        <pt x="557" y="451" on="0"/>
        <pt x="557" y="508" on="1"/>
        <pt x="557" y="554" on="0"/>
        <pt x="493" y="608" on="0"/>
      </contour>
    </TTGlyph>
    <TTGlyph name="Racute" xMin="16" yMin="0" xMax="661" yMax="916">
      <component glyphName="R" x="0" y="0" flags="0x204"/>
      <component glyphName="acute" x="138" y="191" flags="0x4"/>
    </TTGlyph>
    <TTGlyph name="Rcaron" xMin="16" yMin="0" xMax="661" yMax="919">
      <component glyphName="R" x="0" y="0" flags="0x204"/>
      <component glyphName="caron" x="103" y="191" flags="0x4"/>
    </TTGlyph>
    <TTGlyph name="Rcommaaccent" xMin="16" yMin="-273" xMax="661" yMax="700">
      <component glyphName="R" x="0" y="0" flags="0x204"/>
      <component glyphName="commaaccent" x="209" y="0" flags="0x4"/>
    </TTGlyph>
    <TTGlyph name="S" xMin="-5" yMin="-10" xMax="614" yMax="709">
      <contour>
        <pt x="-5" y="137" on="1"/>
        <pt x="67" y="206" on="1"/>
        <pt x="116" y="143" on="0"/>
        <pt x="236" y="78" on="0"/>
        <pt x="305" y="78" on="1"/>
        <pt x="378" y="78" on="0"/>
        <pt x="470" y="145" on="0"/>
        <pt x="470" y="198" on="1"/>
        <pt x="470" y="237" on="0"/>
        <pt x="412" y="286" on="0"/>
        <pt x="346" y="302" on="1"/>
        <pt x="236" y="331" on="1"/>
        <pt x="155" y="352" on="0"/>
        <pt x="73" y="440" on="0"/>
        <pt x="73" y="504" on="1"/>
        <pt x="73" y="598" on="0"/>
        <pt x="212" y="709" on="0"/>
        <pt x="328" y="709" on="1"/>
        <pt x="406" y="709" on="0"/>
        <pt x="557" y="648" on="0"/>
        <pt x="614" y="594" on="1"/>
        <pt x="548" y="519" on="1"/>
        <pt x="496" y="569" on="0"/>
        <pt x="379" y="621" on="0"/>
        <pt x="319" y="621" on="1"/>
        <pt x="252" y="621" on="0"/>
        <pt x="172" y="564" on="0"/>
        <pt x="172" y="516" on="1"/>
        <pt x="172" y="480" on="0"/>
        <pt x="225" y="433" on="0"/>
        <pt x="282" y="418" on="1"/>
        <pt x="388" y="392" on="1"/>
        <pt x="482" y="369" on="0"/>
        <pt x="572" y="281" on="0"/>
        <pt x="572" y="213" on="1"/>
        <pt x="572" y="112" on="0"/>
        <pt x="422" y="-10" on="0"/>
        <pt x="298" y="-10" on="1"/>
        <pt x="206" y="-10" on="0"/>
        <pt x="50" y="66" on="0"/>
      </contour>
    </TTGlyph>
    <TTGlyph name="Sacute" xMin="-5" yMin="-10" xMax="614" yMax="916">
      <component glyphName="S" x="0" y="0" flags="0x204"/>
      <component glyphName="acute" x="71" y="191" flags="0x4"/>
    </TTGlyph>
    <TTGlyph name="Scaron" xMin="-5" yMin="-10" xMax="614" yMax="919">
      <component glyphName="S" x="0" y="0" flags="0x204"/>
      <component glyphName="caron" x="36" y="191" flags="0x4"/>
    </TTGlyph>
    <TTGlyph name="Scedilla" xMin="-5" yMin="-231" xMax="614" yMax="709">
      <contour>
        <pt x="-5" y="137" on="1"/>
        <pt x="67" y="206" on="1"/>
        <pt x="116" y="143" on="0"/>
        <pt x="236" y="78" on="0"/>
        <pt x="305" y="78" on="1"/>
        <pt x="378" y="78" on="0"/>
        <pt x="470" y="145" on="0"/>
        <pt x="470" y="198" on="1"/>
        <pt x="470" y="237" on="0"/>
        <pt x="412" y="286" on="0"/>
        <pt x="346" y="302" on="1"/>
        <pt x="236" y="331" on="1"/>
        <pt x="155" y="352" on="0"/>
        <pt x="73" y="440" on="0"/>
        <pt x="73" y="504" on="1"/>
        <pt x="73" y="598" on="0"/>
        <pt x="212" y="709" on="0"/>
        <pt x="328" y="709" on="1"/>
        <pt x="406" y="709" on="0"/>
        <pt x="557" y="648" on="0"/>
        <pt x="614" y="594" on="1"/>
        <pt x="548" y="519" on="1"/>
        <pt x="496" y="569" on="0"/>
        <pt x="379" y="621" on="0"/>
        <pt x="319" y="621" on="1"/>
        <pt x="252" y="621" on="0"/>
        <pt x="172" y="564" on="0"/>
        <pt x="172" y="516" on="1"/>
        <pt x="172" y="480" on="0"/>
        <pt x="225" y="433" on="0"/>
        <pt x="282" y="418" on="1"/>
        <pt x="388" y="392" on="1"/>
        <pt x="482" y="369" on="0"/>
        <pt x="572" y="281" on="0"/>
        <pt x="572" y="213" on="1"/>
        <pt x="572" y="114" on="0"/>
        <pt x="429" y="-7" on="0"/>
        <pt x="310" y="-10" on="1"/>
        <pt x="288" y="-52" on="1"/>
        <pt x="325" y="-56" on="0"/>
        <pt x="366" y="-97" on="0"/>
        <pt x="366" y="-128" on="1"/>
        <pt x="366" y="-171" on="0"/>
        <pt x="293" y="-231" on="0"/>
        <pt x="239" y="-231" on="1"/>
        <pt x="203" y="-231" on="0"/>
        <pt x="144" y="-206" on="0"/>
        <pt x="123" y="-182" on="1"/>
        <pt x="164" y="-146" on="1"/>
        <pt x="180" y="-163" on="0"/>
        <pt x="219" y="-180" on="0"/>
        <pt x="241" y="-180" on="1"/>
        <pt x="269" y="-180" on="0"/>
        <pt x="305" y="-154" on="0"/>
        <pt x="305" y="-133" on="1"/>
        <pt x="305" y="-114" on="0"/>
        <pt x="275" y="-93" on="0"/>
        <pt x="249" y="-93" on="1"/>
        <pt x="216" y="-93" on="1"/>
        <pt x="258" y="-8" on="1"/>
        <pt x="179" y="-1" on="0"/>
        <pt x="44" y="74" on="0"/>
      </contour>
    </TTGlyph>
    <TTGlyph name="Scircumflex" xMin="-5" yMin="-10" xMax="614" yMax="918">
      <component glyphName="S" x="0" y="0" flags="0x204"/>
      <component glyphName="circumflex" x="35" y="191" flags="0x4"/>
    </TTGlyph>
    <TTGlyph name="Scommaaccent" xMin="-5" yMin="-273" xMax="614" yMax="709">
      <component glyphName="S" x="0" y="0" flags="0x204"/>
      <component glyphName="commaaccent" x="228" y="0" flags="0x4"/>
    </TTGlyph>
    <TTGlyph name="T" xMin="91" yMin="0" xMax="696" yMax="700">
      <contour>
        <pt x="91" y="607" on="1"/>
        <pt x="112" y="700" on="1"/>
        <pt x="696" y="700" on="1"/>
        <pt x="676" y="607" on="1"/>
        <pt x="435" y="607" on="1"/>
        <pt x="306" y="0" on="1"/>
        <pt x="203" y="0" on="1"/>
        <pt x="332" y="607" on="1"/>
      </contour>
    </TTGlyph>
    <TTGlyph name="Tbar" xMin="91" yMin="0" xMax="696" yMax="700">
      <contour>
        <pt x="141" y="382" on="1"/>
        <pt x="284" y="382" on="1"/>
        <pt x="332" y="607" on="1"/>
        <pt x="91" y="607" on="1"/>
        <pt x="112" y="700" on="1"/>
        <pt x="696" y="700" on="1"/>
        <pt x="676" y="607" on="1"/>
        <pt x="435" y="607" on="1"/>
        <pt x="387" y="382" on="1"/>
        <pt x="531" y="382" on="1"/>
        <pt x="513" y="295" on="1"/>
        <pt x="369" y="295" on="1"/>
        <pt x="306" y="0" on="1"/>
        <pt x="203" y="0" on="1"/>
        <pt x="266" y="295" on="1"/>
        <pt x="123" y="295" on="1"/>
      </contour>
    </TTGlyph>
    <TTGlyph name="Tcaron" xMin="91" yMin="0" xMax="696" yMax="919">
      <component glyphName="T" x="0" y="0" flags="0x204"/>
      <component glyphName="caron" x="96" y="191" flags="0x4"/>
    </TTGlyph>
    <TTGlyph name="Tcedilla" xMin="91" yMin="-231" xMax="696" yMax="700">
      <contour>
        <pt x="91" y="607" on="1"/>
        <pt x="112" y="700" on="1"/>
        <pt x="696" y="700" on="1"/>
        <pt x="676" y="607" on="1"/>
        <pt x="435" y="607" on="1"/>
        <pt x="306" y="0" on="1"/>
        <pt x="285" y="0" on="1"/>
        <pt x="258" y="-52" on="1"/>
        <pt x="295" y="-56" on="0"/>
        <pt x="336" y="-97" on="0"/>
        <pt x="336" y="-128" on="1"/>
        <pt x="336" y="-171" on="0"/>
        <pt x="263" y="-231" on="0"/>
        <pt x="209" y="-231" on="1"/>
        <pt x="173" y="-231" on="0"/>
        <pt x="114" y="-206" on="0"/>
        <pt x="93" y="-182" on="1"/>
        <pt x="134" y="-146" on="1"/>
        <pt x="150" y="-163" on="0"/>
        <pt x="189" y="-180" on="0"/>
        <pt x="211" y="-180" on="1"/>
        <pt x="239" y="-180" on="0"/>
        <pt x="275" y="-154" on="0"/>
        <pt x="275" y="-133" on="1"/>
        <pt x="275" y="-114" on="0"/>
        <pt x="245" y="-93" on="0"/>
        <pt x="219" y="-93" on="1"/>
        <pt x="186" y="-93" on="1"/>
        <pt x="232" y="0" on="1"/>
        <pt x="203" y="0" on="1"/>
        <pt x="332" y="607" on="1"/>
      </contour>
    </TTGlyph>
    <TTGlyph name="Thorn" xMin="16" yMin="0" xMax="619" yMax="700">
      <contour>
        <pt x="16" y="0" on="1"/>
        <pt x="165" y="700" on="1"/>
        <pt x="268" y="700" on="1"/>
        <pt x="238" y="560" on="1"/>
        <pt x="417" y="560" on="1"/>
        <pt x="509" y="560" on="0"/>
        <pt x="619" y="461" on="0"/>
        <pt x="619" y="378" on="1"/>
        <pt x="619" y="328" on="0"/>
        <pt x="581" y="241" on="0"/>
        <pt x="515" y="179" on="0"/>
        <pt x="423" y="143" on="0"/>
        <pt x="370" y="143" on="1"/>
        <pt x="149" y="143" on="1"/>
        <pt x="119" y="0" on="1"/>
      </contour>
      <contour>
        <pt x="399" y="469" on="1"/>
        <pt x="219" y="469" on="1"/>
        <pt x="168" y="232" on="1"/>
        <pt x="367" y="232" on="1"/>
        <pt x="433" y="232" on="0"/>
        <pt x="515" y="309" on="0"/>
        <pt x="515" y="370" on="1"/>
        <pt x="515" y="416" on="0"/>
        <pt x="453" y="469" on="0"/>
      </contour>
    </TTGlyph>
    <TTGlyph name="U" xMin="61" yMin="-10" xMax="735" yMax="700">
      <contour>
        <pt x="646" y="285" on="1"/>
        <pt x="616" y="144" on="0"/>
        <pt x="446" y="-10" on="0"/>
        <pt x="323" y="-10" on="1"/>
        <pt x="252" y="-10" on="0"/>
        <pt x="143" y="38" on="0"/>
        <pt x="76" y="123" on="0"/>
        <pt x="55" y="242" on="0"/>
        <pt x="70" y="313" on="1"/>
        <pt x="152" y="700" on="1"/>
        <pt x="255" y="700" on="1"/>
        <pt x="171" y="305" on="1"/>
        <pt x="150" y="209" on="0"/>
        <pt x="238" y="86" on="0"/>
        <pt x="328" y="86" on="1"/>
        <pt x="409" y="86" on="0"/>
        <pt x="525" y="196" on="0"/>
        <pt x="545" y="292" on="1"/>
        <pt x="632" y="700" on="1"/>
        <pt x="735" y="700" on="1"/>
      </contour>
    </TTGlyph>
    <TTGlyph name="Uacute" xMin="61" yMin="-10" xMax="735" yMax="916">
      <component glyphName="U" x="0" y="0" flags="0x204"/>
      <component glyphName="acute" x="168" y="191" flags="0x4"/>
    </TTGlyph>
    <TTGlyph name="Ubreve" xMin="61" yMin="-10" xMax="735" yMax="933">
      <component glyphName="U" x="0" y="0" flags="0x204"/>
      <component glyphName="breve" x="132" y="191" flags="0x4"/>
    </TTGlyph>
    <TTGlyph name="Ucircumflex" xMin="61" yMin="-10" xMax="735" yMax="918">
      <component glyphName="U" x="0" y="0" flags="0x204"/>
      <component glyphName="circumflex" x="132" y="191" flags="0x4"/>
    </TTGlyph>
    <TTGlyph name="Udieresis" xMin="61" yMin="-10" xMax="735" yMax="910">
      <component glyphName="U" x="0" y="0" flags="0x204"/>
      <component glyphName="dieresis" x="112" y="191" flags="0x4"/>
    </TTGlyph>
    <TTGlyph name="Ugrave" xMin="61" yMin="-10" xMax="735" yMax="916">
      <component glyphName="U" x="0" y="0" flags="0x204"/>
      <component glyphName="grave" x="125" y="191" flags="0x4"/>
    </TTGlyph>
    <TTGlyph name="Uhungarumlaut" xMin="61" yMin="-10" xMax="735" yMax="916">
      <component glyphName="U" x="0" y="0" flags="0x204"/>
      <component glyphName="hungarumlaut" x="143" y="191" flags="0x4"/>
    </TTGlyph>
    <TTGlyph name="Umacron" xMin="61" yMin="-10" xMax="735" yMax="881">
      <component glyphName="U" x="0" y="0" flags="0x204"/>
      <component glyphName="macron" x="132" y="191" flags="0x4"/>
    </TTGlyph>
    <TTGlyph name="Uogonek" xMin="61" yMin="-222" xMax="735" yMax="700">
      <contour>
        <pt x="646" y="285" on="1"/>
        <pt x="621" y="169" on="0"/>
        <pt x="496" y="22" on="0"/>
        <pt x="405" y="0" on="1"/>
        <pt x="343" y="-33" on="0"/>
        <pt x="283" y="-94" on="0"/>
        <pt x="283" y="-126" on="1"/>
        <pt x="283" y="-144" on="0"/>
        <pt x="308" y="-166" on="0"/>
        <pt x="330" y="-166" on="1"/>
        <pt x="340" y="-166" on="0"/>
        <pt x="363" y="-160" on="0"/>
        <pt x="373" y="-155" on="1"/>
        <pt x="378" y="-204" on="1"/>
        <pt x="362" y="-212" on="0"/>
        <pt x="324" y="-222" on="0"/>
        <pt x="305" y="-222" on="1"/>
        <pt x="265" y="-222" on="0"/>
        <pt x="217" y="-182" on="0"/>
        <pt x="217" y="-149" on="1"/>
        <pt x="217" y="-112" on="0"/>
        <pt x="269" y="-42" on="0"/>
        <pt x="320" y="-10" on="1"/>
        <pt x="249" y="-10" on="0"/>
        <pt x="142" y="38" on="0"/>
        <pt x="76" y="124" on="0"/>
        <pt x="55" y="242" on="0"/>
        <pt x="70" y="313" on="1"/>
        <pt x="152" y="700" on="1"/>
        <pt x="255" y="700" on="1"/>
        <pt x="171" y="305" on="1"/>
        <pt x="150" y="209" on="0"/>
        <pt x="238" y="86" on="0"/>
        <pt x="328" y="86" on="1"/>
        <pt x="409" y="86" on="0"/>
        <pt x="525" y="196" on="0"/>
        <pt x="545" y="292" on="1"/>
        <pt x="632" y="700" on="1"/>
        <pt x="735" y="700" on="1"/>
      </contour>
    </TTGlyph>
    <TTGlyph name="Uring" xMin="61" yMin="-10" xMax="735" yMax="1005">
      <component glyphName="U" x="0" y="0" flags="0x204"/>
      <component glyphName="ring" x="132" y="191" flags="0x4"/>
    </TTGlyph>
    <TTGlyph name="Utilde" xMin="61" yMin="-10" xMax="735" yMax="911">
      <component glyphName="U" x="0" y="0" flags="0x204"/>
      <component glyphName="tilde" x="136" y="191" flags="0x4"/>
    </TTGlyph>
    <TTGlyph name="V" xMin="95" yMin="0" xMax="781" yMax="700">
      <contour>
        <pt x="230" y="0" on="1"/>
        <pt x="95" y="700" on="1"/>
        <pt x="202" y="700" on="1"/>
        <pt x="310" y="102" on="1"/>
        <pt x="670" y="700" on="1"/>
        <pt x="781" y="700" on="1"/>
        <pt x="352" y="0" on="1"/>
      </contour>
    </TTGlyph>
    <TTGlyph name="W" xMin="125" yMin="0" xMax="954" yMax="700">
      <contour>
        <pt x="232" y="0" on="1"/>
        <pt x="126" y="0" on="1"/>
        <pt x="125" y="700" on="1"/>
        <pt x="227" y="700" on="1"/>
        <pt x="221" y="167" on="1"/>
        <pt x="489" y="700" on="1"/>
        <pt x="587" y="700" on="1"/>
        <pt x="628" y="165" on="1"/>
        <pt x="849" y="700" on="1"/>
        <pt x="954" y="700" on="1"/>
        <pt x="656" y="0" on="1"/>
        <pt x="549" y="0" on="1"/>
        <pt x="508" y="550" on="1"/>
      </contour>
    </TTGlyph>
    <TTGlyph name="Wacute" xMin="125" yMin="0" xMax="954" yMax="916">
      <component glyphName="W" x="0" y="0" flags="0x204"/>
      <component glyphName="acute" x="265" y="191" flags="0x4"/>
    </TTGlyph>
    <TTGlyph name="Wcircumflex" xMin="125" yMin="0" xMax="954" yMax="918">
      <component glyphName="W" x="0" y="0" flags="0x204"/>
      <component glyphName="circumflex" x="229" y="191" flags="0x4"/>
    </TTGlyph>
    <TTGlyph name="Wdieresis" xMin="125" yMin="0" xMax="954" yMax="910">
      <component glyphName="W" x="0" y="0" flags="0x204"/>
      <component glyphName="dieresis" x="209" y="191" flags="0x4"/>
    </TTGlyph>
    <TTGlyph name="Wgrave" xMin="125" yMin="0" xMax="954" yMax="916">
      <component glyphName="W" x="0" y="0" flags="0x204"/>
      <component glyphName="grave" x="222" y="191" flags="0x4"/>
    </TTGlyph>
    <TTGlyph name="X" xMin="-55" yMin="0" xMax="730" yMax="700">
      <contour>
        <pt x="71" y="0" on="1"/>
        <pt x="-55" y="0" on="1"/>
        <pt x="289" y="366" on="1"/>
        <pt x="117" y="700" on="1"/>
        <pt x="233" y="700" on="1"/>
        <pt x="364" y="441" on="1"/>
        <pt x="604" y="700" on="1"/>
        <pt x="730" y="700" on="1"/>
        <pt x="408" y="359" on="1"/>
        <pt x="594" y="0" on="1"/>
        <pt x="478" y="0" on="1"/>
        <pt x="334" y="284" on="1"/>
      </contour>
    </TTGlyph>
    <TTGlyph name="Y" xMin="94" yMin="0" xMax="749" yMax="700">
      <contour>
        <pt x="220" y="0" on="1"/>
        <pt x="279" y="278" on="1"/>
        <pt x="94" y="700" on="1"/>
        <pt x="203" y="700" on="1"/>
        <pt x="346" y="371" on="1"/>
        <pt x="626" y="700" on="1"/>
        <pt x="749" y="700" on="1"/>
        <pt x="382" y="275" on="1"/>
        <pt x="323" y="0" on="1"/>
      </contour>
    </TTGlyph>
    <TTGlyph name="Yacute" xMin="94" yMin="0" xMax="749" yMax="916">
      <component glyphName="Y" x="0" y="0" flags="0x204"/>
      <component glyphName="acute" x="143" y="191" flags="0x4"/>
    </TTGlyph>
    <TTGlyph name="Ycircumflex" xMin="94" yMin="0" xMax="749" yMax="918">
      <component glyphName="Y" x="0" y="0" flags="0x204"/>
      <component glyphName="circumflex" x="107" y="191" flags="0x4"/>
    </TTGlyph>
    <TTGlyph name="Ydieresis" xMin="94" yMin="0" xMax="749" yMax="910">
      <component glyphName="Y" x="0" y="0" flags="0x204"/>
      <component glyphName="dieresis" x="87" y="191" flags="0x4"/>
    </TTGlyph>
    <TTGlyph name="Ygrave" xMin="94" yMin="0" xMax="749" yMax="916">
      <component glyphName="Y" x="0" y="0" flags="0x204"/>
      <component glyphName="grave" x="100" y="191" flags="0x4"/>
    </TTGlyph>
    <TTGlyph name="Z" xMin="-32" yMin="0" xMax="664" yMax="700">
      <contour>
        <pt x="-32" y="0" on="1"/>
        <pt x="-16" y="73" on="1"/>
        <pt x="503" y="608" on="1"/>
        <pt x="101" y="608" on="1"/>
        <pt x="120" y="700" on="1"/>
        <pt x="664" y="700" on="1"/>
        <pt x="647" y="627" on="1"/>
        <pt x="128" y="92" on="1"/>
        <pt x="541" y="92" on="1"/>
        <pt x="521" y="0" on="1"/>
      </contour>
    </TTGlyph>
    <TTGlyph name="Zacute" xMin="-32" yMin="0" xMax="664" yMax="916">
      <component glyphName="Z" x="0" y="0" flags="0x204"/>
      <component glyphName="acute" x="99" y="191" flags="0x4"/>
    </TTGlyph>
    <TTGlyph name="Zcaron" xMin="-32" yMin="0" xMax="664" yMax="919">
      <component glyphName="Z" x="0" y="0" flags="0x204"/>
      <component glyphName="caron" x="64" y="191" flags="0x4"/>
    </TTGlyph>
    <TTGlyph name="Zdotaccent" xMin="-32" yMin="0" xMax="664" yMax="910">
      <component glyphName="Z" x="0" y="0" flags="0x204"/>
      <component glyphName="dotaccent" x="182" y="191" flags="0x4"/>
    </TTGlyph>
    <TTGlyph name="a" xMin="13" yMin="-7" xMax="488" yMax="518">
      <contour>
        <pt x="187" y="-7" on="1"/>
        <pt x="108" y="-7" on="0"/>
        <pt x="13" y="71" on="0"/>
        <pt x="13" y="135" on="1"/>
        <pt x="13" y="211" on="0"/>
        <pt x="127" y="302" on="0"/>
        <pt x="223" y="302" on="1"/>
        <pt x="264" y="302" on="0"/>
        <pt x="343" y="283" on="0"/>
        <pt x="376" y="267" on="1"/>
        <pt x="386" y="312" on="1"/>
        <pt x="399" y="373" on="0"/>
        <pt x="341" y="435" on="0"/>
        <pt x="272" y="435" on="1"/>
        <pt x="241" y="435" on="0"/>
        <pt x="170" y="418" on="0"/>
        <pt x="124" y="399" on="1"/>
        <pt x="98" y="475" on="1"/>
        <pt x="152" y="497" on="0"/>
        <pt x="248" y="518" on="0"/>
        <pt x="291" y="518" on="1"/>
        <pt x="400" y="518" on="0"/>
        <pt x="502" y="410" on="0"/>
        <pt x="482" y="315" on="1"/>
        <pt x="415" y="0" on="1"/>
        <pt x="319" y="0" on="1"/>
        <pt x="327" y="37" on="1"/>
        <pt x="294" y="15" on="0"/>
        <pt x="225" y="-7" on="0"/>
      </contour>
      <contour>
        <pt x="106" y="144" on="1"/>
        <pt x="106" y="108" on="0"/>
        <pt x="165" y="67" on="0"/>
        <pt x="216" y="67" on="1"/>
        <pt x="250" y="67" on="0"/>
        <pt x="314" y="88" on="0"/>
        <pt x="342" y="108" on="1"/>
        <pt x="361" y="196" on="1"/>
        <pt x="334" y="215" on="0"/>
        <pt x="267" y="234" on="0"/>
        <pt x="227" y="234" on="1"/>
        <pt x="173" y="234" on="0"/>
        <pt x="106" y="184" on="0"/>
      </contour>
    </TTGlyph>
    <TTGlyph name="a.school" xMin="35" yMin="-8" xMax="590" yMax="516">
      <contour>
        <pt x="385" y="0" on="1"/>
        <pt x="392" y="31" on="1"/>
        <pt x="362" y="12" on="0"/>
        <pt x="295" y="-8" on="0"/>
        <pt x="260" y="-8" on="1"/>
        <pt x="212" y="-8" on="0"/>
        <pt x="130" y="28" on="0"/>
        <pt x="69" y="91" on="0"/>
        <pt x="35" y="177" on="0"/>
        <pt x="35" y="227" on="1"/>
        <pt x="35" y="287" on="0"/>
        <pt x="79" y="393" on="0"/>
        <pt x="155" y="470" on="0"/>
        <pt x="258" y="516" on="0"/>
        <pt x="316" y="516" on="1"/>
        <pt x="365" y="516" on="0"/>
        <pt x="450" y="483" on="0"/>
        <pt x="481" y="452" on="1"/>
        <pt x="493" y="509" on="1"/>
        <pt x="590" y="509" on="1"/>
        <pt x="482" y="0" on="1"/>
      </contour>
      <contour>
        <pt x="131" y="235" on="1"/>
        <pt x="131" y="167" on="0"/>
        <pt x="218" y="78" on="0"/>
        <pt x="284" y="78" on="1"/>
        <pt x="320" y="78" on="0"/>
        <pt x="385" y="103" on="0"/>
        <pt x="411" y="126" on="1"/>
        <pt x="461" y="360" on="1"/>
        <pt x="441" y="391" on="0"/>
        <pt x="365" y="430" on="0"/>
        <pt x="320" y="430" on="1"/>
        <pt x="281" y="430" on="0"/>
        <pt x="212" y="399" on="0"/>
        <pt x="161" y="347" on="0"/>
        <pt x="131" y="275" on="0"/>
      </contour>
    </TTGlyph>
    <TTGlyph name="aacute" xMin="13" yMin="-7" xMax="489" yMax="725">
      <component glyphName="a" x="0" y="0" flags="0x204"/>
      <component glyphName="acute" x="20" y="0" flags="0x4"/>
    </TTGlyph>
    <TTGlyph name="aacute.school" xMin="35" yMin="-8" xMax="590" yMax="725">
      <component glyphName="a.school" x="0" y="0" flags="0x204"/>
      <component glyphName="acute" x="56" y="0" flags="0x4"/>
    </TTGlyph>
    <TTGlyph name="abreve" xMin="13" yMin="-7" xMax="493" yMax="742">
      <component glyphName="a" x="0" y="0" flags="0x204"/>
      <component glyphName="breve" x="-16" y="0" flags="0x4"/>
    </TTGlyph>
    <TTGlyph name="abreve.school" xMin="35" yMin="-8" xMax="590" yMax="742">
      <component glyphName="a.school" x="0" y="0" flags="0x204"/>
      <component glyphName="breve" x="21" y="0" flags="0x4"/>
    </TTGlyph>
    <TTGlyph name="acircumflex" xMin="13" yMin="-7" xMax="488" yMax="727">
      <component glyphName="a" x="0" y="0" flags="0x204"/>
      <component glyphName="circumflex" x="-16" y="0" flags="0x4"/>
    </TTGlyph>
    <TTGlyph name="acircumflex.school" xMin="35" yMin="-8" xMax="590" yMax="727">
      <component glyphName="a.school" x="0" y="0" flags="0x204"/>
      <component glyphName="circumflex" x="20" y="0" flags="0x4"/>
    </TTGlyph>
    <TTGlyph name="acute" xMin="232" yMin="603" xMax="469" yMax="725">
      <contour>
        <pt x="349" y="725" on="1"/>
        <pt x="469" y="725" on="1"/>
        <pt x="318" y="603" on="1"/>
        <pt x="232" y="603" on="1"/>
      </contour>
    </TTGlyph>
    <TTGlyph name="adieresis" xMin="13" yMin="-7" xMax="488" yMax="719">
      <component glyphName="a" x="0" y="0" flags="0x204"/>
      <component glyphName="dieresis" x="-36" y="0" flags="0x4"/>
    </TTGlyph>
    <TTGlyph name="adieresis.school" xMin="35" yMin="-8" xMax="590" yMax="719">
      <component glyphName="a.school" x="0" y="0" flags="0x204"/>
      <component glyphName="dieresis" x="0" y="0" flags="0x4"/>
    </TTGlyph>
    <TTGlyph name="ae" xMin="21" yMin="-10" xMax="852" yMax="518">
      <contour>
        <pt x="204" y="-7" on="1"/>
        <pt x="121" y="-7" on="0"/>
        <pt x="21" y="73" on="0"/>
        <pt x="21" y="139" on="1"/>
        <pt x="21" y="214" on="0"/>
        <pt x="133" y="302" on="0"/>
        <pt x="226" y="302" on="1"/>
        <pt x="262" y="302" on="0"/>
        <pt x="332" y="289" on="0"/>
        <pt x="363" y="276" on="1"/>
        <pt x="371" y="315" on="1"/>
        <pt x="383" y="373" on="0"/>
        <pt x="324" y="435" on="0"/>
        <pt x="258" y="435" on="1"/>
        <pt x="228" y="435" on="0"/>
        <pt x="159" y="418" on="0"/>
        <pt x="111" y="399" on="1"/>
        <pt x="85" y="475" on="1"/>
        <pt x="140" y="497" on="0"/>
        <pt x="236" y="518" on="0"/>
        <pt x="280" y="518" on="1"/>
        <pt x="343" y="518" on="0"/>
        <pt x="430" y="476" on="0"/>
        <pt x="450" y="438" on="1"/>
        <pt x="487" y="475" on="0"/>
        <pt x="580" y="517" on="0"/>
        <pt x="629" y="517" on="1"/>
        <pt x="677" y="517" on="0"/>
        <pt x="759" y="481" on="0"/>
        <pt x="818" y="416" on="0"/>
        <pt x="852" y="327" on="0"/>
        <pt x="852" y="275" on="1"/>
        <pt x="852" y="265" on="0"/>
        <pt x="851" y="243" on="0"/>
        <pt x="848" y="223" on="1"/>
        <pt x="454" y="223" on="1"/>
        <pt x="459" y="159" on="0"/>
        <pt x="549" y="75" on="0"/>
        <pt x="615" y="75" on="1"/>
        <pt x="650" y="75" on="0"/>
        <pt x="717" y="96" on="0"/>
        <pt x="742" y="115" on="1"/>
        <pt x="795" y="49" on="1"/>
        <pt x="751" y="18" on="0"/>
        <pt x="661" y="-10" on="0"/>
        <pt x="610" y="-10" on="1"/>
        <pt x="547" y="-10" on="0"/>
        <pt x="443" y="37" on="0"/>
        <pt x="410" y="78" on="1"/>
        <pt x="361" y="35" on="0"/>
        <pt x="260" y="-7" on="0"/>
      </contour>
      <contour>
        <pt x="623" y="432" on="1"/>
        <pt x="567" y="432" on="0"/>
        <pt x="479" y="355" on="0"/>
        <pt x="462" y="297" on="1"/>
        <pt x="760" y="297" on="1"/>
        <pt x="754" y="356" on="0"/>
        <pt x="678" y="432" on="0"/>
      </contour>
      <contour>
        <pt x="114" y="146" on="1"/>
        <pt x="114" y="109" on="0"/>
        <pt x="172" y="67" on="0"/>
        <pt x="222" y="67" on="1"/>
        <pt x="264" y="67" on="0"/>
        <pt x="342" y="99" on="0"/>
        <pt x="379" y="130" on="1"/>
        <pt x="372" y="146" on="0"/>
        <pt x="362" y="184" on="0"/>
        <pt x="361" y="203" on="1"/>
        <pt x="335" y="218" on="0"/>
        <pt x="268" y="233" on="0"/>
        <pt x="232" y="233" on="1"/>
        <pt x="181" y="233" on="0"/>
        <pt x="114" y="184" on="0"/>
      </contour>
    </TTGlyph>
    <TTGlyph name="agrave" xMin="13" yMin="-7" xMax="488" yMax="725">
      <component glyphName="a" x="0" y="0" flags="0x204"/>
      <component glyphName="grave" x="-23" y="0" flags="0x4"/>
    </TTGlyph>
    <TTGlyph name="agrave.school" xMin="35" yMin="-8" xMax="590" yMax="725">
      <component glyphName="a.school" x="0" y="0" flags="0x204"/>
      <component glyphName="grave" x="13" y="0" flags="0x4"/>
    </TTGlyph>
    <TTGlyph name="amacron" xMin="13" yMin="-7" xMax="488" yMax="690">
      <component glyphName="a" x="0" y="0" flags="0x204"/>
      <component glyphName="macron" x="-16" y="0" flags="0x4"/>
    </TTGlyph>
    <TTGlyph name="amacron.school" xMin="35" yMin="-8" xMax="590" yMax="690">
      <component glyphName="a.school" x="0" y="0" flags="0x204"/>
      <component glyphName="macron" x="20" y="0" flags="0x4"/>
    </TTGlyph>
    <TTGlyph name="ampersand" xMin="13" yMin="-13" xMax="641" yMax="708">
      <contour>
        <pt x="601" y="56" on="1"/>
        <pt x="535" y="-13" on="1"/>
        <pt x="514" y="4" on="0"/>
        <pt x="472" y="43" on="0"/>
        <pt x="450" y="65" on="1"/>
        <pt x="404" y="29" on="0"/>
        <pt x="296" y="-9" on="0"/>
        <pt x="239" y="-9" on="1"/>
        <pt x="138" y="-9" on="0"/>
        <pt x="13" y="90" on="0"/>
        <pt x="13" y="171" on="1"/>
        <pt x="13" y="240" on="0"/>
        <pt x="95" y="342" on="0"/>
        <pt x="182" y="384" on="1"/>
        <pt x="203" y="394" on="1"/>
        <pt x="185" y="428" on="0"/>
        <pt x="170" y="488" on="0"/>
        <pt x="170" y="519" on="1"/>
        <pt x="170" y="600" on="0"/>
        <pt x="280" y="708" on="0"/>
        <pt x="364" y="708" on="1"/>
        <pt x="433" y="708" on="0"/>
        <pt x="521" y="633" on="0"/>
        <pt x="521" y="574" on="1"/>
        <pt x="521" y="520" on="0"/>
        <pt x="453" y="433" on="0"/>
        <pt x="381" y="397" on="1"/>
        <pt x="325" y="369" on="1"/>
        <pt x="354" y="325" on="0"/>
        <pt x="424" y="235" on="0"/>
        <pt x="461" y="193" on="1"/>
        <pt x="489" y="227" on="0"/>
        <pt x="537" y="311" on="0"/>
        <pt x="557" y="361" on="1"/>
        <pt x="641" y="339" on="1"/>
        <pt x="614" y="276" on="0"/>
        <pt x="552" y="174" on="0"/>
        <pt x="517" y="134" on="1"/>
        <pt x="538" y="112" on="0"/>
        <pt x="581" y="73" on="0"/>
      </contour>
      <contour>
        <pt x="260" y="529" on="1"/>
        <pt x="260" y="507" on="0"/>
        <pt x="273" y="460" on="0"/>
        <pt x="289" y="432" on="1"/>
        <pt x="345" y="459" on="1"/>
        <pt x="388" y="481" on="0"/>
        <pt x="429" y="532" on="0"/>
        <pt x="429" y="563" on="1"/>
        <pt x="429" y="594" on="0"/>
        <pt x="390" y="632" on="0"/>
        <pt x="356" y="632" on="1"/>
        <pt x="314" y="632" on="0"/>
        <pt x="260" y="574" on="0"/>
      </contour>
      <contour>
        <pt x="107" y="186" on="1"/>
        <pt x="107" y="135" on="0"/>
        <pt x="186" y="71" on="0"/>
        <pt x="249" y="71" on="1"/>
        <pt x="288" y="71" on="0"/>
        <pt x="362" y="98" on="0"/>
        <pt x="396" y="123" on="1"/>
        <pt x="353" y="171" on="0"/>
        <pt x="274" y="277" on="0"/>
        <pt x="241" y="330" on="1"/>
        <pt x="221" y="321" on="1"/>
        <pt x="163" y="294" on="0"/>
        <pt x="107" y="227" on="0"/>
      </contour>
    </TTGlyph>
    <TTGlyph name="aogonek" xMin="13" yMin="-222" xMax="488" yMax="518">
      <contour>
        <pt x="187" y="-7" on="1"/>
        <pt x="108" y="-7" on="0"/>
        <pt x="13" y="71" on="0"/>
        <pt x="13" y="135" on="1"/>
        <pt x="13" y="211" on="0"/>
        <pt x="127" y="302" on="0"/>
        <pt x="223" y="302" on="1"/>
        <pt x="264" y="302" on="0"/>
        <pt x="343" y="283" on="0"/>
        <pt x="376" y="267" on="1"/>
        <pt x="386" y="312" on="1"/>
        <pt x="399" y="373" on="0"/>
        <pt x="341" y="435" on="0"/>
        <pt x="272" y="435" on="1"/>
        <pt x="241" y="435" on="0"/>
        <pt x="170" y="418" on="0"/>
        <pt x="124" y="399" on="1"/>
        <pt x="98" y="475" on="1"/>
        <pt x="152" y="497" on="0"/>
        <pt x="248" y="518" on="0"/>
        <pt x="291" y="518" on="1"/>
        <pt x="400" y="518" on="0"/>
        <pt x="502" y="410" on="0"/>
        <pt x="482" y="315" on="1"/>
        <pt x="415" y="0" on="1"/>
        <pt x="352" y="-33" on="0"/>
        <pt x="292" y="-94" on="0"/>
        <pt x="292" y="-126" on="1"/>
        <pt x="292" y="-144" on="0"/>
        <pt x="317" y="-166" on="0"/>
        <pt x="339" y="-166" on="1"/>
        <pt x="349" y="-166" on="0"/>
        <pt x="372" y="-160" on="0"/>
        <pt x="382" y="-155" on="1"/>
        <pt x="387" y="-204" on="1"/>
        <pt x="371" y="-212" on="0"/>
        <pt x="333" y="-222" on="0"/>
        <pt x="314" y="-222" on="1"/>
        <pt x="274" y="-222" on="0"/>
        <pt x="226" y="-182" on="0"/>
        <pt x="226" y="-149" on="1"/>
        <pt x="226" y="-109" on="0"/>
        <pt x="286" y="-34" on="0"/>
        <pt x="346" y="0" on="1"/>
        <pt x="319" y="0" on="1"/>
        <pt x="327" y="37" on="1"/>
        <pt x="294" y="15" on="0"/>
        <pt x="225" y="-7" on="0"/>
      </contour>
      <contour>
        <pt x="106" y="144" on="1"/>
        <pt x="106" y="108" on="0"/>
        <pt x="165" y="67" on="0"/>
        <pt x="216" y="67" on="1"/>
        <pt x="250" y="67" on="0"/>
        <pt x="314" y="88" on="0"/>
        <pt x="342" y="108" on="1"/>
        <pt x="361" y="196" on="1"/>
        <pt x="334" y="215" on="0"/>
        <pt x="267" y="234" on="0"/>
        <pt x="227" y="234" on="1"/>
        <pt x="173" y="234" on="0"/>
        <pt x="106" y="184" on="0"/>
      </contour>
    </TTGlyph>
    <TTGlyph name="aogonek.school" xMin="35" yMin="-222" xMax="590" yMax="516">
      <contour>
        <pt x="385" y="0" on="1"/>
        <pt x="392" y="31" on="1"/>
        <pt x="362" y="12" on="0"/>
        <pt x="295" y="-8" on="0"/>
        <pt x="260" y="-8" on="1"/>
        <pt x="212" y="-8" on="0"/>
        <pt x="130" y="28" on="0"/>
        <pt x="69" y="91" on="0"/>
        <pt x="35" y="177" on="0"/>
        <pt x="35" y="227" on="1"/>
        <pt x="35" y="287" on="0"/>
        <pt x="79" y="393" on="0"/>
        <pt x="155" y="470" on="0"/>
        <pt x="258" y="516" on="0"/>
        <pt x="316" y="516" on="1"/>
        <pt x="365" y="516" on="0"/>
        <pt x="450" y="483" on="0"/>
        <pt x="481" y="452" on="1"/>
        <pt x="493" y="509" on="1"/>
        <pt x="590" y="509" on="1"/>
        <pt x="482" y="0" on="1"/>
        <pt x="419" y="-33" on="0"/>
        <pt x="359" y="-94" on="0"/>
        <pt x="359" y="-126" on="1"/>
        <pt x="359" y="-144" on="0"/>
        <pt x="384" y="-166" on="0"/>
        <pt x="406" y="-166" on="1"/>
        <pt x="416" y="-166" on="0"/>
        <pt x="439" y="-160" on="0"/>
        <pt x="449" y="-155" on="1"/>
        <pt x="454" y="-204" on="1"/>
        <pt x="438" y="-212" on="0"/>
        <pt x="400" y="-222" on="0"/>
        <pt x="381" y="-222" on="1"/>
        <pt x="341" y="-222" on="0"/>
        <pt x="293" y="-182" on="0"/>
        <pt x="293" y="-149" on="1"/>
        <pt x="293" y="-109" on="0"/>
        <pt x="353" y="-34" on="0"/>
        <pt x="413" y="0" on="1"/>
      </contour>
      <contour>
        <pt x="131" y="235" on="1"/>
        <pt x="131" y="167" on="0"/>
        <pt x="218" y="78" on="0"/>
        <pt x="284" y="78" on="1"/>
        <pt x="320" y="78" on="0"/>
        <pt x="385" y="103" on="0"/>
        <pt x="411" y="126" on="1"/>
        <pt x="461" y="360" on="1"/>
        <pt x="441" y="391" on="0"/>
        <pt x="365" y="430" on="0"/>
        <pt x="320" y="430" on="1"/>
        <pt x="281" y="430" on="0"/>
        <pt x="212" y="399" on="0"/>
        <pt x="161" y="347" on="0"/>
        <pt x="131" y="275" on="0"/>
      </contour>
    </TTGlyph>
    <TTGlyph name="aring" xMin="13" yMin="-7" xMax="488" yMax="814">
      <component glyphName="a" x="0" y="0" flags="0x204"/>
      <component glyphName="ring" x="-16" y="0" flags="0x4"/>
    </TTGlyph>
    <TTGlyph name="aring.school" xMin="35" yMin="-8" xMax="590" yMax="814">
      <component glyphName="a.school" x="0" y="0" flags="0x204"/>
      <component glyphName="ring" x="21" y="0" flags="0x4"/>
    </TTGlyph>
    <TTGlyph name="asciicircum" xMin="62" yMin="350" xMax="510" yMax="700">
      <contour>
        <pt x="62" y="350" on="1"/>
        <pt x="318" y="700" on="1"/>
        <pt x="403" y="700" on="1"/>
        <pt x="510" y="350" on="1"/>
        <pt x="427" y="350" on="1"/>
        <pt x="345" y="618" on="1"/>
        <pt x="149" y="350" on="1"/>
      </contour>
    </TTGlyph>
    <TTGlyph name="asciitilde" xMin="54" yMin="284" xMax="585" yMax="463">
      <contour>
        <pt x="303" y="428" on="1"/>
        <pt x="375" y="386" on="1"/>
        <pt x="398" y="373" on="0"/>
        <pt x="424" y="363" on="0"/>
        <pt x="436" y="363" on="1"/>
        <pt x="462" y="363" on="0"/>
        <pt x="502" y="402" on="0"/>
        <pt x="516" y="442" on="1"/>
        <pt x="585" y="426" on="1"/>
        <pt x="562" y="358" on="0"/>
        <pt x="485" y="284" on="0"/>
        <pt x="436" y="284" on="1"/>
        <pt x="414" y="284" on="0"/>
        <pt x="368" y="300" on="0"/>
        <pt x="335" y="319" on="1"/>
        <pt x="263" y="361" on="1"/>
        <pt x="239" y="374" on="0"/>
        <pt x="214" y="384" on="0"/>
        <pt x="202" y="384" on="1"/>
        <pt x="177" y="384" on="0"/>
        <pt x="136" y="346" on="0"/>
        <pt x="122" y="306" on="1"/>
        <pt x="54" y="322" on="1"/>
        <pt x="77" y="390" on="0"/>
        <pt x="154" y="463" on="0"/>
        <pt x="202" y="463" on="1"/>
        <pt x="224" y="463" on="0"/>
        <pt x="272" y="447" on="0"/>
      </contour>
    </TTGlyph>
    <TTGlyph name="asterisk" xMin="88" yMin="331" xMax="472" yMax="700">
      <contour>
        <pt x="394" y="382" on="1"/>
        <pt x="300" y="459" on="1"/>
        <pt x="274" y="331" on="1"/>
        <pt x="207" y="331" on="1"/>
        <pt x="236" y="461" on="1"/>
        <pt x="114" y="398" on="1"/>
        <pt x="88" y="459" on="1"/>
        <pt x="220" y="522" on="1"/>
        <pt x="120" y="600" on="1"/>
        <pt x="166" y="652" on="1"/>
        <pt x="261" y="575" on="1"/>
        <pt x="286" y="700" on="1"/>
        <pt x="352" y="700" on="1"/>
        <pt x="324" y="573" on="1"/>
        <pt x="445" y="635" on="1"/>
        <pt x="472" y="575" on="1"/>
        <pt x="341" y="512" on="1"/>
        <pt x="442" y="436" on="1"/>
      </contour>
    </TTGlyph>
    <TTGlyph name="at" xMin="36" yMin="-144" xMax="732" yMax="578">
      <contour>
        <pt x="348" y="50" on="1"/>
        <pt x="287" y="50" on="0"/>
        <pt x="204" y="138" on="0"/>
        <pt x="204" y="202" on="1"/>
        <pt x="204" y="239" on="0"/>
        <pt x="231" y="305" on="0"/>
        <pt x="278" y="354" on="0"/>
        <pt x="341" y="382" on="0"/>
        <pt x="377" y="382" on="1"/>
        <pt x="405" y="382" on="0"/>
        <pt x="456" y="363" on="0"/>
        <pt x="474" y="345" on="1"/>
        <pt x="479" y="368" on="1"/>
        <pt x="549" y="368" on="1"/>
        <pt x="508" y="172" on="1"/>
        <pt x="501" y="140" on="0"/>
        <pt x="528" y="105" on="0"/>
        <pt x="559" y="105" on="1"/>
        <pt x="609" y="105" on="0"/>
        <pt x="676" y="198" on="0"/>
        <pt x="676" y="269" on="1"/>
        <pt x="676" y="324" on="0"/>
        <pt x="633" y="419" on="0"/>
        <pt x="558" y="489" on="0"/>
        <pt x="455" y="528" on="0"/>
        <pt x="395" y="528" on="1"/>
        <pt x="331" y="528" on="0"/>
        <pt x="220" y="479" on="0"/>
        <pt x="139" y="394" on="0"/>
        <pt x="93" y="278" on="0"/>
        <pt x="93" y="211" on="1"/>
        <pt x="93" y="145" on="0"/>
        <pt x="139" y="34" on="0"/>
        <pt x="220" y="-47" on="0"/>
        <pt x="334" y="-92" on="0"/>
        <pt x="401" y="-92" on="1"/>
        <pt x="447" y="-92" on="0"/>
        <pt x="532" y="-71" on="0"/>
        <pt x="569" y="-52" on="1"/>
        <pt x="590" y="-99" on="1"/>
        <pt x="545" y="-121" on="0"/>
        <pt x="450" y="-144" on="0"/>
        <pt x="399" y="-144" on="1"/>
        <pt x="321" y="-144" on="0"/>
        <pt x="188" y="-91" on="0"/>
        <pt x="91" y="3" on="0"/>
        <pt x="36" y="132" on="0"/>
        <pt x="36" y="207" on="1"/>
        <pt x="36" y="286" on="0"/>
        <pt x="91" y="423" on="0"/>
        <pt x="187" y="521" on="0"/>
        <pt x="320" y="578" on="0"/>
        <pt x="397" y="578" on="1"/>
        <pt x="468" y="578" on="0"/>
        <pt x="591" y="531" on="0"/>
        <pt x="680" y="449" on="0"/>
        <pt x="732" y="337" on="0"/>
        <pt x="732" y="272" on="1"/>
        <pt x="732" y="225" on="0"/>
        <pt x="705" y="144" on="0"/>
        <pt x="656" y="85" on="0"/>
        <pt x="589" y="52" on="0"/>
        <pt x="550" y="52" on="1"/>
        <pt x="516" y="52" on="0"/>
        <pt x="467" y="74" on="0"/>
        <pt x="454" y="93" on="1"/>
        <pt x="429" y="72" on="0"/>
        <pt x="375" y="50" on="0"/>
      </contour>
      <contour>
        <pt x="272" y="208" on="1"/>
        <pt x="272" y="164" on="0"/>
        <pt x="324" y="108" on="0"/>
        <pt x="364" y="108" on="1"/>
        <pt x="384" y="108" on="0"/>
        <pt x="422" y="124" on="0"/>
        <pt x="438" y="139" on="1"/>
        <pt x="437" y="148" on="0"/>
        <pt x="439" y="169" on="0"/>
        <pt x="441" y="180" on="1"/>
        <pt x="461" y="280" on="1"/>
        <pt x="448" y="299" on="0"/>
        <pt x="403" y="322" on="0"/>
        <pt x="377" y="322" on="1"/>
        <pt x="334" y="322" on="0"/>
        <pt x="272" y="254" on="0"/>
      </contour>
    </TTGlyph>
    <TTGlyph name="at.cap" xMin="64" yMin="-11" xMax="760" yMax="711">
      <component glyphName="at" x="28" y="133" flags="0x4"/>
    </TTGlyph>
    <TTGlyph name="atilde" xMin="13" yMin="-7" xMax="508" yMax="720">
      <component glyphName="a" x="0" y="0" flags="0x204"/>
      <component glyphName="tilde" x="-12" y="0" flags="0x4"/>
    </TTGlyph>
    <TTGlyph name="atilde.school" xMin="35" yMin="-8" xMax="590" yMax="720">
      <component glyphName="a.school" x="0" y="0" flags="0x204"/>
      <component glyphName="tilde" x="25" y="0" flags="0x4"/>
    </TTGlyph>
    <TTGlyph name="b" xMin="5" yMin="-8" xMax="560" yMax="722">
      <contour>
        <pt x="560" y="282" on="1"/>
        <pt x="560" y="222" on="0"/>
        <pt x="516" y="116" on="0"/>
        <pt x="439" y="38" on="0"/>
        <pt x="336" y="-8" on="0"/>
        <pt x="278" y="-8" on="1"/>
        <pt x="229" y="-8" on="0"/>
        <pt x="145" y="27" on="0"/>
        <pt x="114" y="59" on="1"/>
        <pt x="101" y="0" on="1"/>
        <pt x="5" y="0" on="1"/>
        <pt x="154" y="700" on="1"/>
        <pt x="256" y="722" on="1"/>
        <pt x="204" y="478" on="1"/>
        <pt x="234" y="497" on="0"/>
        <pt x="300" y="516" on="0"/>
        <pt x="334" y="516" on="1"/>
        <pt x="382" y="516" on="0"/>
        <pt x="465" y="480" on="0"/>
        <pt x="526" y="418" on="0"/>
        <pt x="560" y="332" on="0"/>
      </contour>
      <contour>
        <pt x="311" y="430" on="1"/>
        <pt x="275" y="430" on="0"/>
        <pt x="210" y="405" on="0"/>
        <pt x="184" y="382" on="1"/>
        <pt x="135" y="149" on="1"/>
        <pt x="154" y="118" on="0"/>
        <pt x="230" y="79" on="0"/>
        <pt x="275" y="79" on="1"/>
        <pt x="315" y="79" on="0"/>
        <pt x="384" y="109" on="0"/>
        <pt x="435" y="162" on="0"/>
        <pt x="464" y="233" on="0"/>
        <pt x="464" y="273" on="1"/>
        <pt x="464" y="341" on="0"/>
        <pt x="377" y="430" on="0"/>
      </contour>
    </TTGlyph>
    <TTGlyph name="backslash" xMin="104" yMin="-207" xMax="422" yMax="700">
      <contour>
        <pt x="422" y="-207" on="1"/>
        <pt x="325" y="-207" on="1"/>
        <pt x="104" y="700" on="1"/>
        <pt x="201" y="700" on="1"/>
      </contour>
    </TTGlyph>
    <TTGlyph name="bar" xMin="0" yMin="-208" xMax="284" yMax="700">
      <contour>
        <pt x="0" y="-208" on="1"/>
        <pt x="193" y="700" on="1"/>
        <pt x="284" y="700" on="1"/>
        <pt x="91" y="-208" on="1"/>
      </contour>
    </TTGlyph>
    <TTGlyph name="braceleft" xMin="11" yMin="-215" xMax="446" yMax="710">
      <contour>
        <pt x="224" y="81" on="1"/>
        <pt x="158" y="-22" on="1"/>
        <pt x="125" y="-73" on="0"/>
        <pt x="155" y="-137" on="0"/>
        <pt x="200" y="-137" on="1"/>
        <pt x="216" y="-137" on="0"/>
        <pt x="242" y="-134" on="0"/>
        <pt x="255" y="-130" on="1"/>
        <pt x="256" y="-205" on="1"/>
        <pt x="234" y="-210" on="0"/>
        <pt x="199" y="-215" on="0"/>
        <pt x="180" y="-215" on="1"/>
        <pt x="130" y="-215" on="0"/>
        <pt x="64" y="-180" on="0"/>
        <pt x="36" y="-122" on="0"/>
        <pt x="48" y="-45" on="0"/>
        <pt x="75" y="-4" on="1"/>
        <pt x="134" y="84" on="1"/>
        <pt x="166" y="133" on="0"/>
        <pt x="141" y="210" on="0"/>
        <pt x="90" y="210" on="1"/>
        <pt x="11" y="210" on="1"/>
        <pt x="27" y="287" on="1"/>
        <pt x="107" y="287" on="1"/>
        <pt x="159" y="287" on="0"/>
        <pt x="213" y="358" on="0"/>
        <pt x="203" y="410" on="1"/>
        <pt x="183" y="510" on="1"/>
        <pt x="175" y="553" on="0"/>
        <pt x="193" y="626" on="0"/>
        <pt x="237" y="679" on="0"/>
        <pt x="306" y="710" on="0"/>
        <pt x="349" y="710" on="1"/>
        <pt x="374" y="710" on="0"/>
        <pt x="422" y="700" on="0"/>
        <pt x="446" y="689" on="1"/>
        <pt x="414" y="617" on="1"/>
        <pt x="398" y="624" on="0"/>
        <pt x="365" y="632" on="0"/>
        <pt x="350" y="632" on="1"/>
        <pt x="307" y="632" on="0"/>
        <pt x="259" y="571" on="0"/>
        <pt x="269" y="517" on="1"/>
        <pt x="290" y="401" on="1"/>
        <pt x="300" y="341" on="0"/>
        <pt x="226" y="254" on="0"/>
        <pt x="169" y="245" on="1"/>
        <pt x="222" y="228" on="0"/>
        <pt x="259" y="138" on="0"/>
      </contour>
    </TTGlyph>
    <TTGlyph name="braceright" xMin="-57" yMin="-223" xMax="378" yMax="702">
      <contour>
        <pt x="165" y="406" on="1"/>
        <pt x="231" y="509" on="1"/>
        <pt x="264" y="560" on="0"/>
        <pt x="234" y="624" on="0"/>
        <pt x="189" y="624" on="1"/>
        <pt x="173" y="624" on="0"/>
        <pt x="147" y="621" on="0"/>
        <pt x="134" y="617" on="1"/>
        <pt x="133" y="692" on="1"/>
        <pt x="155" y="697" on="0"/>
        <pt x="190" y="702" on="0"/>
        <pt x="209" y="702" on="1"/>
        <pt x="259" y="702" on="0"/>
        <pt x="325" y="667" on="0"/>
        <pt x="353" y="609" on="0"/>
        <pt x="341" y="532" on="0"/>
        <pt x="314" y="491" on="1"/>
        <pt x="255" y="403" on="1"/>
        <pt x="223" y="354" on="0"/>
        <pt x="248" y="277" on="0"/>
        <pt x="299" y="277" on="1"/>
        <pt x="378" y="277" on="1"/>
        <pt x="362" y="200" on="1"/>
        <pt x="282" y="200" on="1"/>
        <pt x="230" y="200" on="0"/>
        <pt x="176" y="129" on="0"/>
        <pt x="186" y="77" on="1"/>
        <pt x="206" y="-23" on="1"/>
        <pt x="214" y="-66" on="0"/>
        <pt x="196" y="-139" on="0"/>
        <pt x="152" y="-192" on="0"/>
        <pt x="83" y="-223" on="0"/>
        <pt x="40" y="-223" on="1"/>
        <pt x="15" y="-223" on="0"/>
        <pt x="-33" y="-213" on="0"/>
        <pt x="-57" y="-202" on="1"/>
        <pt x="-25" y="-130" on="1"/>
        <pt x="-9" y="-137" on="0"/>
        <pt x="24" y="-145" on="0"/>
        <pt x="39" y="-145" on="1"/>
        <pt x="82" y="-145" on="0"/>
        <pt x="130" y="-84" on="0"/>
        <pt x="120" y="-30" on="1"/>
        <pt x="99" y="86" on="1"/>
        <pt x="89" y="146" on="0"/>
        <pt x="163" y="233" on="0"/>
        <pt x="220" y="242" on="1"/>
        <pt x="167" y="259" on="0"/>
        <pt x="130" y="349" on="0"/>
      </contour>
    </TTGlyph>
    <TTGlyph name="bracketleft" xMin="-44" yMin="-209" xMax="416" yMax="700">
      <contour>
        <pt x="223" y="-209" on="1"/>
        <pt x="-44" y="-209" on="1"/>
        <pt x="150" y="700" on="1"/>
        <pt x="416" y="700" on="1"/>
        <pt x="399" y="620" on="1"/>
        <pt x="227" y="620" on="1"/>
        <pt x="67" y="-130" on="1"/>
        <pt x="240" y="-130" on="1"/>
      </contour>
    </TTGlyph>
    <TTGlyph name="bracketright" xMin="-61" yMin="-209" xMax="399" yMax="700">
      <contour>
        <pt x="132" y="700" on="1"/>
        <pt x="399" y="700" on="1"/>
        <pt x="205" y="-209" on="1"/>
        <pt x="-61" y="-209" on="1"/>
        <pt x="-44" y="-129" on="1"/>
        <pt x="128" y="-129" on="1"/>
        <pt x="288" y="621" on="1"/>
        <pt x="115" y="621" on="1"/>
      </contour>
    </TTGlyph>
    <TTGlyph name="breve" xMin="193" yMin="595" xMax="509" yMax="742">
      <contour>
        <pt x="338" y="655" on="1"/>
        <pt x="372" y="655" on="0"/>
        <pt x="427" y="697" on="0"/>
        <pt x="446" y="737" on="1"/>
        <pt x="509" y="717" on="1"/>
        <pt x="483" y="658" on="0"/>
        <pt x="392" y="595" on="0"/>
        <pt x="335" y="595" on="1"/>
        <pt x="272" y="595" on="0"/>
        <pt x="194" y="669" on="0"/>
        <pt x="193" y="730" on="1"/>
        <pt x="256" y="742" on="1"/>
        <pt x="257" y="699" on="0"/>
        <pt x="299" y="655" on="0"/>
      </contour>
    </TTGlyph>
    <TTGlyph name="bullet" xMin="79" yMin="238" xMax="291" yMax="451">
      <contour>
        <pt x="174" y="238" on="1"/>
        <pt x="134" y="238" on="0"/>
        <pt x="79" y="292" on="0"/>
        <pt x="79" y="331" on="1"/>
        <pt x="79" y="380" on="0"/>
        <pt x="150" y="451" on="0"/>
        <pt x="198" y="451" on="1"/>
        <pt x="238" y="451" on="0"/>
        <pt x="291" y="398" on="0"/>
        <pt x="291" y="358" on="1"/>
        <pt x="291" y="310" on="0"/>
        <pt x="220" y="238" on="0"/>
      </contour>
    </TTGlyph>
    <TTGlyph name="c" xMin="32" yMin="-10" xMax="515" yMax="518">
      <contour>
        <pt x="277" y="78" on="1"/>
        <pt x="311" y="78" on="0"/>
        <pt x="377" y="104" on="0"/>
        <pt x="410" y="131" on="1"/>
        <pt x="459" y="63" on="1"/>
        <pt x="416" y="27" on="0"/>
        <pt x="317" y="-10" on="0"/>
        <pt x="266" y="-10" on="1"/>
        <pt x="216" y="-10" on="0"/>
        <pt x="130" y="25" on="0"/>
        <pt x="68" y="88" on="0"/>
        <pt x="32" y="174" on="0"/>
        <pt x="32" y="225" on="1"/>
        <pt x="32" y="285" on="0"/>
        <pt x="77" y="392" on="0"/>
        <pt x="153" y="471" on="0"/>
        <pt x="257" y="518" on="0"/>
        <pt x="314" y="518" on="1"/>
        <pt x="374" y="518" on="0"/>
        <pt x="483" y="464" on="0"/>
        <pt x="515" y="418" on="1"/>
        <pt x="446" y="355" on="1"/>
        <pt x="420" y="392" on="0"/>
        <pt x="351" y="429" on="0"/>
        <pt x="311" y="429" on="1"/>
        <pt x="274" y="429" on="0"/>
        <pt x="208" y="397" on="0"/>
        <pt x="159" y="343" on="0"/>
        <pt x="130" y="270" on="0"/>
        <pt x="130" y="230" on="1"/>
        <pt x="130" y="165" on="0"/>
        <pt x="214" y="78" on="0"/>
      </contour>
    </TTGlyph>
    <TTGlyph name="cacute" xMin="32" yMin="-10" xMax="518" yMax="725">
      <component glyphName="c" x="0" y="0" flags="0x204"/>
      <component glyphName="acute" x="49" y="0" flags="0x4"/>
    </TTGlyph>
    <TTGlyph name="caron" xMin="195" yMin="601" xMax="511" yMax="728">
      <contour>
        <pt x="273" y="728" on="1"/>
        <pt x="333" y="650" on="1"/>
        <pt x="426" y="728" on="1"/>
        <pt x="511" y="728" on="1"/>
        <pt x="377" y="601" on="1"/>
        <pt x="275" y="601" on="1"/>
        <pt x="195" y="728" on="1"/>
      </contour>
    </TTGlyph>
    <TTGlyph name="caronSlovak" xMin="200" yMin="496" xMax="354" yMax="716">
      <contour>
        <pt x="253" y="716" on="1"/>
        <pt x="354" y="716" on="1"/>
        <pt x="274" y="496" on="1"/>
        <pt x="200" y="496" on="1"/>
      </contour>
    </TTGlyph>
    <TTGlyph name="ccaron" xMin="32" yMin="-10" xMax="524" yMax="728">
      <component glyphName="c" x="0" y="0" flags="0x204"/>
      <component glyphName="caron" x="13" y="0" flags="0x4"/>
    </TTGlyph>
    <TTGlyph name="ccedilla" xMin="32" yMin="-230" xMax="515" yMax="518">
      <contour>
        <pt x="277" y="78" on="1"/>
        <pt x="311" y="78" on="0"/>
        <pt x="377" y="104" on="0"/>
        <pt x="410" y="131" on="1"/>
        <pt x="459" y="63" on="1"/>
        <pt x="419" y="30" on="0"/>
        <pt x="331" y="-6" on="0"/>
        <pt x="285" y="-9" on="1"/>
        <pt x="263" y="-51" on="1"/>
        <pt x="300" y="-55" on="0"/>
        <pt x="341" y="-96" on="0"/>
        <pt x="341" y="-127" on="1"/>
        <pt x="341" y="-170" on="0"/>
        <pt x="268" y="-230" on="0"/>
        <pt x="214" y="-230" on="1"/>
        <pt x="178" y="-230" on="0"/>
        <pt x="119" y="-205" on="0"/>
        <pt x="98" y="-181" on="1"/>
        <pt x="139" y="-145" on="1"/>
        <pt x="155" y="-162" on="0"/>
        <pt x="194" y="-179" on="0"/>
        <pt x="216" y="-179" on="1"/>
        <pt x="244" y="-179" on="0"/>
        <pt x="280" y="-153" on="0"/>
        <pt x="280" y="-132" on="1"/>
        <pt x="280" y="-113" on="0"/>
        <pt x="250" y="-92" on="0"/>
        <pt x="224" y="-92" on="1"/>
        <pt x="191" y="-92" on="1"/>
        <pt x="233" y="-8" on="1"/>
        <pt x="146" y="3" on="0"/>
        <pt x="32" y="132" on="0"/>
        <pt x="32" y="225" on="1"/>
        <pt x="32" y="285" on="0"/>
        <pt x="77" y="392" on="0"/>
        <pt x="153" y="471" on="0"/>
        <pt x="257" y="518" on="0"/>
        <pt x="314" y="518" on="1"/>
        <pt x="374" y="518" on="0"/>
        <pt x="483" y="464" on="0"/>
        <pt x="515" y="418" on="1"/>
        <pt x="446" y="355" on="1"/>
        <pt x="420" y="392" on="0"/>
        <pt x="351" y="429" on="0"/>
        <pt x="311" y="429" on="1"/>
        <pt x="274" y="429" on="0"/>
        <pt x="208" y="397" on="0"/>
        <pt x="159" y="343" on="0"/>
        <pt x="130" y="270" on="0"/>
        <pt x="130" y="230" on="1"/>
        <pt x="130" y="165" on="0"/>
        <pt x="214" y="78" on="0"/>
      </contour>
    </TTGlyph>
    <TTGlyph name="ccircumflex" xMin="32" yMin="-10" xMax="515" yMax="727">
      <component glyphName="c" x="0" y="0" flags="0x204"/>
      <component glyphName="circumflex" x="12" y="0" flags="0x4"/>
    </TTGlyph>
    <TTGlyph name="cdotaccent" xMin="32" yMin="-10" xMax="515" yMax="719">
      <component glyphName="c" x="0" y="0" flags="0x204"/>
      <component glyphName="dotaccent" x="131" y="0" flags="0x4"/>
    </TTGlyph>
    <TTGlyph name="cedilla" xMin="65" yMin="-231" xMax="308" yMax="0">
      <contour>
        <pt x="308" y="-128" on="1"/>
        <pt x="308" y="-171" on="0"/>
        <pt x="235" y="-231" on="0"/>
        <pt x="181" y="-231" on="1"/>
        <pt x="145" y="-231" on="0"/>
        <pt x="86" y="-206" on="0"/>
        <pt x="65" y="-182" on="1"/>
        <pt x="106" y="-146" on="1"/>
        <pt x="122" y="-163" on="0"/>
        <pt x="161" y="-180" on="0"/>
        <pt x="183" y="-180" on="1"/>
        <pt x="211" y="-180" on="0"/>
        <pt x="247" y="-154" on="0"/>
        <pt x="247" y="-133" on="1"/>
        <pt x="247" y="-114" on="0"/>
        <pt x="217" y="-93" on="0"/>
        <pt x="191" y="-93" on="1"/>
        <pt x="158" y="-93" on="1"/>
        <pt x="204" y="0" on="1"/>
        <pt x="257" y="0" on="1"/>
        <pt x="230" y="-52" on="1"/>
        <pt x="267" y="-56" on="0"/>
        <pt x="308" y="-97" on="0"/>
      </contour>
    </TTGlyph>
    <TTGlyph name="cent" xMin="32" yMin="-110" xMax="515" yMax="619">
      <contour>
        <pt x="184" y="-110" on="1"/>
        <pt x="207" y="-3" on="1"/>
        <pt x="130" y="15" on="0"/>
        <pt x="32" y="139" on="0"/>
        <pt x="32" y="225" on="1"/>
        <pt x="32" y="285" on="0"/>
        <pt x="77" y="392" on="0"/>
        <pt x="153" y="471" on="0"/>
        <pt x="257" y="518" on="0"/>
        <pt x="314" y="518" on="1"/>
        <pt x="318" y="518" on="1"/>
        <pt x="339" y="619" on="1"/>
        <pt x="393" y="619" on="1"/>
        <pt x="370" y="512" on="1"/>
        <pt x="414" y="502" on="0"/>
        <pt x="490" y="452" on="0"/>
        <pt x="515" y="418" on="1"/>
        <pt x="446" y="355" on="1"/>
        <pt x="427" y="382" on="0"/>
        <pt x="379" y="417" on="0"/>
        <pt x="352" y="424" on="1"/>
        <pt x="279" y="78" on="1"/>
        <pt x="313" y="78" on="0"/>
        <pt x="378" y="104" on="0"/>
        <pt x="410" y="131" on="1"/>
        <pt x="459" y="63" on="1"/>
        <pt x="416" y="27" on="0"/>
        <pt x="317" y="-10" on="0"/>
        <pt x="266" y="-10" on="1"/>
        <pt x="260" y="-10" on="1"/>
        <pt x="239" y="-110" on="1"/>
      </contour>
      <contour>
        <pt x="130" y="230" on="1"/>
        <pt x="130" y="179" on="0"/>
        <pt x="183" y="102" on="0"/>
        <pt x="226" y="87" on="1"/>
        <pt x="298" y="428" on="1"/>
        <pt x="264" y="425" on="0"/>
        <pt x="202" y="392" on="0"/>
        <pt x="157" y="338" on="0"/>
        <pt x="130" y="268" on="0"/>
      </contour>
    </TTGlyph>
    <TTGlyph name="circumflex" xMin="170" yMin="600" xMax="485" yMax="727">
      <contour>
        <pt x="408" y="600" on="1"/>
        <pt x="347" y="678" on="1"/>
        <pt x="252" y="600" on="1"/>
        <pt x="170" y="600" on="1"/>
        <pt x="303" y="727" on="1"/>
        <pt x="406" y="727" on="1"/>
        <pt x="485" y="600" on="1"/>
      </contour>
    </TTGlyph>
    <TTGlyph name="colon" xMin="1" yMin="-8" xMax="209" yMax="519">
      <component glyphName="period" x="1" y="0" flags="0x4"/>
      <component glyphName="period" x="84" y="400" flags="0x4"/>
    </TTGlyph>
    <TTGlyph name="comma" xMin="-76" yMin="-143" xMax="139" yMax="90">
      <contour>
        <pt x="35" y="90" on="1"/>
        <pt x="139" y="90" on="1"/>
        <pt x="0" y="-143" on="1"/>
        <pt x="-76" y="-143" on="1"/>
      </contour>
    </TTGlyph>
    <TTGlyph name="commaaccent" xMin="-86" yMin="-273" xMax="96" yMax="-83">
      <contour>
        <pt x="-1" y="-83" on="1"/>
        <pt x="96" y="-83" on="1"/>
        <pt x="-13" y="-273" on="1"/>
        <pt x="-86" y="-273" on="1"/>
      </contour>
    </TTGlyph>
    <TTGlyph name="copyright" xMin="57" yMin="-10" xMax="768" yMax="708">
      <contour>
        <pt x="57" y="309" on="1"/>
        <pt x="57" y="390" on="0"/>
        <pt x="119" y="536" on="0"/>
        <pt x="225" y="644" on="0"/>
        <pt x="366" y="708" on="0"/>
        <pt x="445" y="708" on="1"/>
        <pt x="514" y="708" on="0"/>
        <pt x="633" y="660" on="0"/>
        <pt x="719" y="574" on="0"/>
        <pt x="768" y="457" on="0"/>
        <pt x="768" y="388" on="1"/>
        <pt x="768" y="307" on="0"/>
        <pt x="706" y="162" on="0"/>
        <pt x="600" y="54" on="0"/>
        <pt x="459" y="-10" on="0"/>
        <pt x="380" y="-10" on="1"/>
        <pt x="311" y="-10" on="0"/>
        <pt x="192" y="38" on="0"/>
        <pt x="106" y="123" on="0"/>
        <pt x="57" y="241" on="0"/>
      </contour>
      <contour>
        <pt x="714" y="383" on="1"/>
        <pt x="714" y="442" on="0"/>
        <pt x="673" y="543" on="0"/>
        <pt x="600" y="616" on="0"/>
        <pt x="500" y="657" on="0"/>
        <pt x="441" y="657" on="1"/>
        <pt x="375" y="657" on="0"/>
        <pt x="255" y="602" on="0"/>
        <pt x="165" y="508" on="0"/>
        <pt x="112" y="384" on="0"/>
        <pt x="112" y="315" on="1"/>
        <pt x="112" y="256" on="0"/>
        <pt x="153" y="155" on="0"/>
        <pt x="225" y="82" on="0"/>
        <pt x="325" y="40" on="0"/>
        <pt x="383" y="40" on="1"/>
        <pt x="450" y="40" on="0"/>
        <pt x="571" y="96" on="0"/>
        <pt x="661" y="189" on="0"/>
        <pt x="714" y="314" on="0"/>
      </contour>
      <contour>
        <pt x="236" y="326" on="1"/>
        <pt x="236" y="368" on="0"/>
        <pt x="270" y="444" on="0"/>
        <pt x="326" y="502" on="0"/>
        <pt x="401" y="536" on="0"/>
        <pt x="442" y="536" on="1"/>
        <pt x="486" y="536" on="0"/>
        <pt x="565" y="496" on="0"/>
        <pt x="587" y="462" on="1"/>
        <pt x="533" y="417" on="1"/>
        <pt x="516" y="442" on="0"/>
        <pt x="466" y="471" on="0"/>
        <pt x="438" y="471" on="1"/>
        <pt x="386" y="471" on="0"/>
        <pt x="309" y="387" on="0"/>
        <pt x="309" y="332" on="1"/>
        <pt x="309" y="288" on="0"/>
        <pt x="366" y="230" on="0"/>
        <pt x="409" y="230" on="1"/>
        <pt x="432" y="230" on="0"/>
        <pt x="478" y="248" on="0"/>
        <pt x="500" y="265" on="1"/>
        <pt x="532" y="214" on="1"/>
        <pt x="504" y="191" on="0"/>
        <pt x="434" y="165" on="0"/>
        <pt x="399" y="165" on="1"/>
        <pt x="329" y="165" on="0"/>
        <pt x="236" y="257" on="0"/>
      </contour>
    </TTGlyph>
    <TTGlyph name="cordinal" xMin="86" yMin="311" xMax="451" yMax="709">
      <contour>
        <pt x="272" y="382" on="1"/>
        <pt x="298" y="382" on="0"/>
        <pt x="347" y="402" on="0"/>
        <pt x="370" y="422" on="1"/>
        <pt x="410" y="367" on="1"/>
        <pt x="378" y="339" on="0"/>
        <pt x="303" y="311" on="0"/>
        <pt x="264" y="311" on="1"/>
        <pt x="188" y="311" on="0"/>
        <pt x="86" y="412" on="0"/>
        <pt x="86" y="489" on="1"/>
        <pt x="86" y="534" on="0"/>
        <pt x="120" y="615" on="0"/>
        <pt x="177" y="674" on="0"/>
        <pt x="255" y="709" on="0"/>
        <pt x="299" y="709" on="1"/>
        <pt x="345" y="709" on="0"/>
        <pt x="426" y="668" on="0"/>
        <pt x="451" y="633" on="1"/>
        <pt x="396" y="583" on="1"/>
        <pt x="377" y="610" on="0"/>
        <pt x="326" y="637" on="0"/>
        <pt x="296" y="637" on="1"/>
        <pt x="243" y="637" on="0"/>
        <pt x="165" y="551" on="0"/>
        <pt x="165" y="493" on="1"/>
        <pt x="165" y="446" on="0"/>
        <pt x="226" y="382" on="0"/>
      </contour>
    </TTGlyph>
    <TTGlyph name="d" xMin="35" yMin="-8" xMax="635" yMax="722">
      <contour>
        <pt x="385" y="0" on="1"/>
        <pt x="392" y="31" on="1"/>
        <pt x="362" y="12" on="0"/>
        <pt x="295" y="-8" on="0"/>
        <pt x="260" y="-8" on="1"/>
        <pt x="212" y="-8" on="0"/>
        <pt x="130" y="28" on="0"/>
        <pt x="69" y="91" on="0"/>
        <pt x="35" y="177" on="0"/>
        <pt x="35" y="227" on="1"/>
        <pt x="35" y="287" on="0"/>
        <pt x="79" y="393" on="0"/>
        <pt x="155" y="470" on="0"/>
        <pt x="258" y="516" on="0"/>
        <pt x="316" y="516" on="1"/>
        <pt x="365" y="516" on="0"/>
        <pt x="450" y="483" on="0"/>
        <pt x="481" y="453" on="1"/>
        <pt x="533" y="700" on="1"/>
        <pt x="635" y="722" on="1"/>
        <pt x="482" y="0" on="1"/>
      </contour>
      <contour>
        <pt x="131" y="235" on="1"/>
        <pt x="131" y="167" on="0"/>
        <pt x="218" y="78" on="0"/>
        <pt x="284" y="78" on="1"/>
        <pt x="320" y="78" on="0"/>
        <pt x="385" y="103" on="0"/>
        <pt x="411" y="126" on="1"/>
        <pt x="461" y="361" on="1"/>
        <pt x="441" y="392" on="0"/>
        <pt x="364" y="430" on="0"/>
        <pt x="320" y="430" on="1"/>
        <pt x="281" y="430" on="0"/>
        <pt x="212" y="399" on="0"/>
        <pt x="161" y="347" on="0"/>
        <pt x="131" y="275" on="0"/>
      </contour>
    </TTGlyph>
    <TTGlyph name="dagger" xMin="88" yMin="0" xMax="430" yMax="700">
      <contour>
        <pt x="118" y="0" on="1"/>
        <pt x="210" y="430" on="1"/>
        <pt x="88" y="430" on="1"/>
        <pt x="105" y="509" on="1"/>
        <pt x="226" y="509" on="1"/>
        <pt x="267" y="700" on="1"/>
        <pt x="349" y="700" on="1"/>
        <pt x="309" y="509" on="1"/>
        <pt x="430" y="509" on="1"/>
        <pt x="414" y="430" on="1"/>
        <pt x="292" y="430" on="1"/>
        <pt x="201" y="0" on="1"/>
      </contour>
    </TTGlyph>
    <TTGlyph name="daggerdbl" xMin="37" yMin="0" xMax="430" yMax="700">
      <contour>
        <pt x="118" y="0" on="1"/>
        <pt x="159" y="191" on="1"/>
        <pt x="37" y="191" on="1"/>
        <pt x="54" y="270" on="1"/>
        <pt x="175" y="270" on="1"/>
        <pt x="210" y="430" on="1"/>
        <pt x="88" y="430" on="1"/>
        <pt x="105" y="509" on="1"/>
        <pt x="226" y="509" on="1"/>
        <pt x="267" y="700" on="1"/>
        <pt x="349" y="700" on="1"/>
        <pt x="309" y="509" on="1"/>
        <pt x="430" y="509" on="1"/>
        <pt x="414" y="430" on="1"/>
        <pt x="292" y="430" on="1"/>
        <pt x="258" y="270" on="1"/>
        <pt x="379" y="270" on="1"/>
        <pt x="363" y="191" on="1"/>
        <pt x="241" y="191" on="1"/>
        <pt x="201" y="0" on="1"/>
      </contour>
    </TTGlyph>
    <TTGlyph name="dcaron" xMin="35" yMin="-8" xMax="819" yMax="722">
      <component glyphName="d" x="0" y="0" flags="0x4"/>
      <component glyphName="caronSlovak" x="465" y="0" flags="0x4"/>
    </TTGlyph>
    <TTGlyph name="dcroat" xMin="35" yMin="-8" xMax="679" yMax="722">
      <contour>
        <pt x="385" y="0" on="1"/>
        <pt x="392" y="31" on="1"/>
        <pt x="362" y="12" on="0"/>
        <pt x="295" y="-8" on="0"/>
        <pt x="260" y="-8" on="1"/>
        <pt x="212" y="-8" on="0"/>
        <pt x="130" y="28" on="0"/>
        <pt x="69" y="91" on="0"/>
        <pt x="35" y="177" on="0"/>
        <pt x="35" y="227" on="1"/>
        <pt x="35" y="287" on="0"/>
        <pt x="79" y="393" on="0"/>
        <pt x="155" y="470" on="0"/>
        <pt x="258" y="516" on="0"/>
        <pt x="316" y="516" on="1"/>
        <pt x="365" y="516" on="0"/>
        <pt x="450" y="483" on="0"/>
        <pt x="481" y="453" on="1"/>
        <pt x="508" y="583" on="1"/>
        <pt x="359" y="583" on="1"/>
        <pt x="373" y="652" on="1"/>
        <pt x="523" y="652" on="1"/>
        <pt x="533" y="700" on="1"/>
        <pt x="635" y="722" on="1"/>
        <pt x="620" y="652" on="1"/>
        <pt x="679" y="652" on="1"/>
        <pt x="664" y="583" on="1"/>
        <pt x="606" y="583" on="1"/>
        <pt x="482" y="0" on="1"/>
      </contour>
      <contour>
        <pt x="131" y="235" on="1"/>
        <pt x="131" y="167" on="0"/>
        <pt x="218" y="78" on="0"/>
        <pt x="284" y="78" on="1"/>
        <pt x="320" y="78" on="0"/>
        <pt x="385" y="103" on="0"/>
        <pt x="411" y="126" on="1"/>
        <pt x="461" y="361" on="1"/>
        <pt x="441" y="392" on="0"/>
        <pt x="364" y="430" on="0"/>
        <pt x="320" y="430" on="1"/>
        <pt x="281" y="430" on="0"/>
        <pt x="212" y="399" on="0"/>
        <pt x="161" y="347" on="0"/>
        <pt x="131" y="275" on="0"/>
      </contour>
    </TTGlyph>
    <TTGlyph name="degree" xMin="111" yMin="421" xMax="397" yMax="708">
      <contour>
        <pt x="239" y="421" on="1"/>
        <pt x="184" y="421" on="0"/>
        <pt x="111" y="494" on="0"/>
        <pt x="111" y="549" on="1"/>
        <pt x="111" y="581" on="0"/>
        <pt x="136" y="639" on="0"/>
        <pt x="179" y="682" on="0"/>
        <pt x="236" y="708" on="0"/>
        <pt x="268" y="708" on="1"/>
        <pt x="323" y="708" on="0"/>
        <pt x="397" y="634" on="0"/>
        <pt x="397" y="579" on="1"/>
        <pt x="397" y="547" on="0"/>
        <pt x="371" y="490" on="0"/>
        <pt x="328" y="447" on="0"/>
        <pt x="271" y="421" on="0"/>
      </contour>
      <contour>
        <pt x="243" y="479" on="1"/>
        <pt x="280" y="479" on="0"/>
        <pt x="336" y="535" on="0"/>
        <pt x="336" y="573" on="1"/>
        <pt x="336" y="606" on="0"/>
        <pt x="295" y="649" on="0"/>
        <pt x="264" y="649" on="1"/>
        <pt x="227" y="649" on="0"/>
        <pt x="172" y="594" on="0"/>
        <pt x="172" y="556" on="1"/>
        <pt x="172" y="524" on="0"/>
        <pt x="212" y="479" on="0"/>
      </contour>
    </TTGlyph>
    <TTGlyph name="dieresis" xMin="206" yMin="602" xMax="514" yMax="719">
      <contour>
        <pt x="259" y="602" on="1"/>
        <pt x="237" y="602" on="0"/>
        <pt x="206" y="632" on="0"/>
        <pt x="206" y="654" on="1"/>
        <pt x="206" y="679" on="0"/>
        <pt x="246" y="719" on="0"/>
        <pt x="272" y="719" on="1"/>
        <pt x="294" y="719" on="0"/>
        <pt x="324" y="689" on="0"/>
        <pt x="324" y="667" on="1"/>
        <pt x="324" y="642" on="0"/>
        <pt x="284" y="602" on="0"/>
      </contour>
      <contour>
        <pt x="449" y="602" on="1"/>
        <pt x="427" y="602" on="0"/>
        <pt x="397" y="632" on="0"/>
        <pt x="397" y="654" on="1"/>
        <pt x="397" y="679" on="0"/>
        <pt x="436" y="719" on="0"/>
        <pt x="463" y="719" on="1"/>
        <pt x="485" y="719" on="0"/>
        <pt x="514" y="689" on="0"/>
        <pt x="514" y="667" on="1"/>
        <pt x="514" y="642" on="0"/>
        <pt x="474" y="602" on="0"/>
      </contour>
    </TTGlyph>
    <TTGlyph name="divide" xMin="64" yMin="94" xMax="505" yMax="622">
      <contour>
        <pt x="319" y="496" on="1"/>
        <pt x="296" y="496" on="0"/>
        <pt x="264" y="528" on="0"/>
        <pt x="264" y="552" on="1"/>
        <pt x="264" y="580" on="0"/>
        <pt x="306" y="622" on="0"/>
        <pt x="334" y="622" on="1"/>
        <pt x="358" y="622" on="0"/>
        <pt x="389" y="590" on="0"/>
        <pt x="389" y="566" on="1"/>
        <pt x="389" y="539" on="0"/>
        <pt x="347" y="496" on="0"/>
      </contour>
      <contour>
        <pt x="64" y="318" on="1"/>
        <pt x="81" y="398" on="1"/>
        <pt x="505" y="398" on="1"/>
        <pt x="488" y="318" on="1"/>
      </contour>
      <contour>
        <pt x="234" y="94" on="1"/>
        <pt x="210" y="94" on="0"/>
        <pt x="179" y="126" on="0"/>
        <pt x="179" y="150" on="1"/>
        <pt x="179" y="178" on="0"/>
        <pt x="221" y="220" on="0"/>
        <pt x="249" y="220" on="1"/>
        <pt x="273" y="220" on="0"/>
        <pt x="304" y="188" on="0"/>
        <pt x="304" y="164" on="1"/>
        <pt x="304" y="137" on="0"/>
        <pt x="262" y="94" on="0"/>
      </contour>
    </TTGlyph>
    <TTGlyph name="dollar" xMin="-10" yMin="-75" xMax="594" yMax="759">
      <contour>
        <pt x="181" y="-75" on="1"/>
        <pt x="202" y="23" on="1"/>
        <pt x="139" y="33" on="0"/>
        <pt x="32" y="97" on="0"/>
        <pt x="-10" y="148" on="1"/>
        <pt x="57" y="213" on="1"/>
        <pt x="91" y="170" on="0"/>
        <pt x="173" y="115" on="0"/>
        <pt x="219" y="105" on="1"/>
        <pt x="264" y="318" on="1"/>
        <pt x="220" y="330" on="1"/>
        <pt x="148" y="349" on="0"/>
        <pt x="76" y="428" on="0"/>
        <pt x="76" y="487" on="1"/>
        <pt x="76" y="577" on="0"/>
        <pt x="213" y="685" on="0"/>
        <pt x="326" y="685" on="1"/>
        <pt x="342" y="685" on="1"/>
        <pt x="358" y="759" on="1"/>
        <pt x="414" y="759" on="1"/>
        <pt x="397" y="678" on="1"/>
        <pt x="451" y="668" on="0"/>
        <pt x="553" y="618" on="0"/>
        <pt x="594" y="581" on="1"/>
        <pt x="531" y="512" on="1"/>
        <pt x="496" y="544" on="0"/>
        <pt x="420" y="586" on="0"/>
        <pt x="379" y="596" on="1"/>
        <pt x="337" y="396" on="1"/>
        <pt x="365" y="389" on="1"/>
        <pt x="453" y="365" on="0"/>
        <pt x="533" y="287" on="0"/>
        <pt x="533" y="227" on="1"/>
        <pt x="533" y="133" on="0"/>
        <pt x="387" y="17" on="0"/>
        <pt x="268" y="17" on="1"/>
        <pt x="257" y="17" on="1"/>
        <pt x="237" y="-75" on="1"/>
      </contour>
      <contour>
        <pt x="263" y="411" on="1"/>
        <pt x="283" y="405" on="1"/>
        <pt x="325" y="603" on="1"/>
        <pt x="315" y="603" on="1"/>
        <pt x="249" y="603" on="0"/>
        <pt x="169" y="546" on="0"/>
        <pt x="169" y="499" on="1"/>
        <pt x="169" y="466" on="0"/>
        <pt x="214" y="424" on="0"/>
      </contour>
      <contour>
        <pt x="326" y="305" on="1"/>
        <pt x="318" y="307" on="1"/>
        <pt x="274" y="99" on="1"/>
        <pt x="347" y="99" on="0"/>
        <pt x="438" y="163" on="0"/>
        <pt x="438" y="213" on="1"/>
        <pt x="438" y="246" on="0"/>
        <pt x="389" y="287" on="0"/>
      </contour>
    </TTGlyph>
    <TTGlyph name="dotaccent" xMin="165" yMin="602" xMax="282" yMax="719">
      <contour>
        <pt x="217" y="602" on="1"/>
        <pt x="195" y="602" on="0"/>
        <pt x="165" y="632" on="0"/>
        <pt x="165" y="654" on="1"/>
        <pt x="165" y="679" on="0"/>
        <pt x="205" y="719" on="0"/>
        <pt x="231" y="719" on="1"/>
        <pt x="253" y="719" on="0"/>
        <pt x="282" y="689" on="0"/>
        <pt x="282" y="667" on="1"/>
        <pt x="282" y="642" on="0"/>
        <pt x="243" y="602" on="0"/>
      </contour>
    </TTGlyph>
    <TTGlyph name="dotlessi" xMin="5" yMin="0" xMax="210" yMax="509">
      <contour>
        <pt x="210" y="509" on="1"/>
        <pt x="102" y="0" on="1"/>
        <pt x="5" y="0" on="1"/>
        <pt x="113" y="509" on="1"/>
      </contour>
    </TTGlyph>
    <TTGlyph name="dotlessj" xMin="-138" yMin="-210" xMax="211" yMax="509">
      <contour>
        <pt x="-138" y="-200" on="1"/>
        <pt x="-121" y="-121" on="1"/>
        <pt x="-111" y="-124" on="0"/>
        <pt x="-90" y="-127" on="0"/>
        <pt x="-75" y="-127" on="1"/>
        <pt x="-47" y="-127" on="0"/>
        <pt x="-17" y="-99" on="0"/>
        <pt x="-10" y="-68" on="1"/>
        <pt x="113" y="509" on="1"/>
        <pt x="211" y="509" on="1"/>
        <pt x="85" y="-79" on="1"/>
        <pt x="72" y="-142" on="0"/>
        <pt x="-11" y="-210" on="0"/>
        <pt x="-74" y="-210" on="1"/>
        <pt x="-89" y="-210" on="0"/>
        <pt x="-125" y="-204" on="0"/>
      </contour>
    </TTGlyph>
    <TTGlyph name="e" xMin="34" yMin="-10" xMax="527" yMax="517">
      <contour>
        <pt x="470" y="49" on="1"/>
        <pt x="426" y="18" on="0"/>
        <pt x="336" y="-10" on="0"/>
        <pt x="285" y="-10" on="1"/>
        <pt x="231" y="-10" on="0"/>
        <pt x="138" y="26" on="0"/>
        <pt x="72" y="90" on="0"/>
        <pt x="34" y="179" on="0"/>
        <pt x="34" y="231" on="1"/>
        <pt x="34" y="289" on="0"/>
        <pt x="77" y="394" on="0"/>
        <pt x="150" y="471" on="0"/>
        <pt x="249" y="517" on="0"/>
        <pt x="305" y="517" on="1"/>
        <pt x="353" y="517" on="0"/>
        <pt x="435" y="481" on="0"/>
        <pt x="493" y="416" on="0"/>
        <pt x="527" y="327" on="0"/>
        <pt x="527" y="275" on="1"/>
        <pt x="527" y="265" on="0"/>
        <pt x="526" y="243" on="0"/>
        <pt x="524" y="223" on="1"/>
        <pt x="130" y="223" on="1"/>
        <pt x="135" y="159" on="0"/>
        <pt x="225" y="75" on="0"/>
        <pt x="291" y="75" on="1"/>
        <pt x="326" y="75" on="0"/>
        <pt x="392" y="96" on="0"/>
        <pt x="417" y="115" on="1"/>
      </contour>
      <contour>
        <pt x="298" y="432" on="1"/>
        <pt x="242" y="432" on="0"/>
        <pt x="154" y="355" on="0"/>
        <pt x="138" y="297" on="1"/>
        <pt x="435" y="297" on="1"/>
        <pt x="429" y="356" on="0"/>
        <pt x="353" y="432" on="0"/>
      </contour>
    </TTGlyph>
    <TTGlyph name="eacute" xMin="34" yMin="-10" xMax="527" yMax="725">
      <component glyphName="e" x="0" y="0" flags="0x204"/>
      <component glyphName="acute" x="36" y="0" flags="0x4"/>
    </TTGlyph>
    <TTGlyph name="ebreve" xMin="34" yMin="-10" xMax="527" yMax="742">
      <component glyphName="e" x="0" y="0" flags="0x204"/>
      <component glyphName="breve" x="0" y="0" flags="0x4"/>
    </TTGlyph>
    <TTGlyph name="ecaron" xMin="34" yMin="-10" xMax="527" yMax="728">
      <component glyphName="e" x="0" y="0" flags="0x204"/>
      <component glyphName="caron" x="0" y="0" flags="0x4"/>
    </TTGlyph>
    <TTGlyph name="ecircumflex" xMin="34" yMin="-10" xMax="527" yMax="727">
      <component glyphName="e" x="0" y="0" flags="0x204"/>
      <component glyphName="circumflex" x="0" y="0" flags="0x4"/>
    </TTGlyph>
    <TTGlyph name="edieresis" xMin="34" yMin="-10" xMax="527" yMax="719">
      <component glyphName="e" x="0" y="0" flags="0x204"/>
      <component glyphName="dieresis" x="-20" y="0" flags="0x4"/>
    </TTGlyph>
    <TTGlyph name="edotaccent" xMin="34" yMin="-10" xMax="527" yMax="719">
      <component glyphName="e" x="0" y="0" flags="0x204"/>
      <component glyphName="dotaccent" x="118" y="0" flags="0x4"/>
    </TTGlyph>
    <TTGlyph name="egrave" xMin="34" yMin="-10" xMax="527" yMax="725">
      <component glyphName="e" x="0" y="0" flags="0x204"/>
      <component glyphName="grave" x="-7" y="0" flags="0x4"/>
    </TTGlyph>
    <TTGlyph name="eight" xMin="26" yMin="-10" xMax="600" yMax="710">
      <contour>
        <pt x="277" y="-10" on="1"/>
        <pt x="222" y="-10" on="0"/>
        <pt x="129" y="17" on="0"/>
        <pt x="63" y="66" on="0"/>
        <pt x="26" y="134" on="0"/>
        <pt x="26" y="174" on="1"/>
        <pt x="26" y="243" on="0"/>
        <pt x="124" y="354" on="0"/>
        <pt x="199" y="374" on="1"/>
        <pt x="162" y="396" on="0"/>
        <pt x="121" y="464" on="0"/>
        <pt x="121" y="506" on="1"/>
        <pt x="121" y="548" on="0"/>
        <pt x="162" y="622" on="0"/>
        <pt x="231" y="678" on="0"/>
        <pt x="325" y="710" on="0"/>
        <pt x="378" y="710" on="1"/>
        <pt x="426" y="710" on="0"/>
        <pt x="508" y="684" on="0"/>
        <pt x="567" y="638" on="0"/>
        <pt x="600" y="574" on="0"/>
        <pt x="600" y="537" on="1"/>
        <pt x="600" y="477" on="0"/>
        <pt x="519" y="378" on="0"/>
        <pt x="456" y="356" on="1"/>
        <pt x="503" y="334" on="0"/>
        <pt x="558" y="256" on="0"/>
        <pt x="558" y="208" on="1"/>
        <pt x="558" y="163" on="0"/>
        <pt x="514" y="83" on="0"/>
        <pt x="439" y="24" on="0"/>
        <pt x="336" y="-10" on="0"/>
      </contour>
      <contour>
        <pt x="350" y="404" on="1"/>
        <pt x="413" y="404" on="0"/>
        <pt x="503" y="477" on="0"/>
        <pt x="503" y="527" on="1"/>
        <pt x="503" y="571" on="0"/>
        <pt x="427" y="630" on="0"/>
        <pt x="370" y="630" on="1"/>
        <pt x="307" y="630" on="0"/>
        <pt x="216" y="558" on="0"/>
        <pt x="216" y="507" on="1"/>
        <pt x="216" y="463" on="0"/>
        <pt x="293" y="404" on="0"/>
      </contour>
      <contour>
        <pt x="283" y="71" on="1"/>
        <pt x="319" y="71" on="0"/>
        <pt x="384" y="93" on="0"/>
        <pt x="433" y="130" on="0"/>
        <pt x="461" y="180" on="0"/>
        <pt x="461" y="208" on="1"/>
        <pt x="461" y="258" on="0"/>
        <pt x="370" y="325" on="0"/>
        <pt x="302" y="325" on="1"/>
        <pt x="266" y="325" on="0"/>
        <pt x="201" y="304" on="0"/>
        <pt x="154" y="267" on="0"/>
        <pt x="126" y="217" on="0"/>
        <pt x="126" y="189" on="1"/>
        <pt x="126" y="138" on="0"/>
        <pt x="215" y="71" on="0"/>
      </contour>
    </TTGlyph>
    <TTGlyph name="ellipsis" xMin="0" yMin="-8" xMax="546" yMax="119">
      <component glyphName="period" x="0" y="0" flags="0x4"/>
      <component glyphName="period" x="211" y="0" flags="0x4"/>
      <component glyphName="period" x="421" y="0" flags="0x4"/>
    </TTGlyph>
    <TTGlyph name="emacron" xMin="34" yMin="-10" xMax="527" yMax="690">
      <component glyphName="e" x="0" y="0" flags="0x204"/>
      <component glyphName="macron" x="0" y="0" flags="0x4"/>
    </TTGlyph>
    <TTGlyph name="emdash" xMin="41" yMin="240" xMax="658" yMax="326">
      <contour>
        <pt x="60" y="326" on="1"/>
        <pt x="658" y="326" on="1"/>
        <pt x="640" y="240" on="1"/>
        <pt x="41" y="240" on="1"/>
      </contour>
    </TTGlyph>
    <TTGlyph name="emdash.cap" xMin="53" yMin="305" xMax="670" yMax="391">
      <component glyphName="emdash" x="12" y="65" flags="0x4"/>
    </TTGlyph>
    <TTGlyph name="endash" xMin="41" yMin="240" xMax="511" yMax="326">
      <contour>
        <pt x="60" y="326" on="1"/>
        <pt x="511" y="326" on="1"/>
        <pt x="493" y="240" on="1"/>
        <pt x="41" y="240" on="1"/>
      </contour>
    </TTGlyph>
    <TTGlyph name="endash.cap" xMin="52" yMin="305" xMax="522" yMax="391">
      <component glyphName="endash" x="11" y="65" flags="0x4"/>
    </TTGlyph>
    <TTGlyph name="eng" xMin="5" yMin="-210" xMax="518" yMax="518">
      <contour>
        <pt x="5" y="0" on="1"/>
        <pt x="113" y="509" on="1"/>
        <pt x="210" y="509" on="1"/>
        <pt x="201" y="465" on="1"/>
        <pt x="233" y="491" on="0"/>
        <pt x="307" y="518" on="0"/>
        <pt x="348" y="518" on="1"/>
        <pt x="394" y="518" on="0"/>
        <pt x="464" y="486" on="0"/>
        <pt x="507" y="430" on="0"/>
        <pt x="522" y="353" on="0"/>
        <pt x="513" y="308" on="1"/>
        <pt x="430" y="-79" on="1"/>
        <pt x="417" y="-142" on="0"/>
        <pt x="334" y="-210" on="0"/>
        <pt x="271" y="-210" on="1"/>
        <pt x="255" y="-210" on="0"/>
        <pt x="218" y="-204" on="0"/>
        <pt x="207" y="-200" on="1"/>
        <pt x="224" y="-121" on="1"/>
        <pt x="234" y="-124" on="0"/>
        <pt x="254" y="-127" on="0"/>
        <pt x="270" y="-127" on="1"/>
        <pt x="298" y="-127" on="0"/>
        <pt x="328" y="-99" on="0"/>
        <pt x="335" y="-68" on="1"/>
        <pt x="412" y="296" on="1"/>
        <pt x="425" y="357" on="0"/>
        <pt x="369" y="432" on="0"/>
        <pt x="311" y="432" on="1"/>
        <pt x="274" y="432" on="0"/>
        <pt x="207" y="401" on="0"/>
        <pt x="181" y="372" on="1"/>
        <pt x="102" y="0" on="1"/>
      </contour>
    </TTGlyph>
    <TTGlyph name="eogonek" xMin="34" yMin="-222" xMax="527" yMax="517">
      <contour>
        <pt x="338" y="-204" on="1"/>
        <pt x="322" y="-212" on="0"/>
        <pt x="284" y="-222" on="0"/>
        <pt x="265" y="-222" on="1"/>
        <pt x="225" y="-222" on="0"/>
        <pt x="177" y="-182" on="0"/>
        <pt x="177" y="-149" on="1"/>
        <pt x="177" y="-112" on="0"/>
        <pt x="229" y="-42" on="0"/>
        <pt x="280" y="-10" on="1"/>
        <pt x="227" y="-9" on="0"/>
        <pt x="136" y="28" on="0"/>
        <pt x="71" y="91" on="0"/>
        <pt x="34" y="180" on="0"/>
        <pt x="34" y="231" on="1"/>
        <pt x="34" y="289" on="0"/>
        <pt x="77" y="394" on="0"/>
        <pt x="150" y="471" on="0"/>
        <pt x="249" y="517" on="0"/>
        <pt x="305" y="517" on="1"/>
        <pt x="353" y="517" on="0"/>
        <pt x="435" y="481" on="0"/>
        <pt x="493" y="416" on="0"/>
        <pt x="527" y="327" on="0"/>
        <pt x="527" y="275" on="1"/>
        <pt x="527" y="265" on="0"/>
        <pt x="526" y="243" on="0"/>
        <pt x="524" y="223" on="1"/>
        <pt x="130" y="223" on="1"/>
        <pt x="135" y="159" on="0"/>
        <pt x="225" y="75" on="0"/>
        <pt x="291" y="75" on="1"/>
        <pt x="326" y="75" on="0"/>
        <pt x="392" y="96" on="0"/>
        <pt x="417" y="115" on="1"/>
        <pt x="470" y="49" on="1"/>
        <pt x="444" y="31" on="0"/>
        <pt x="392" y="7" on="0"/>
        <pt x="365" y="0" on="1"/>
        <pt x="303" y="-33" on="0"/>
        <pt x="243" y="-94" on="0"/>
        <pt x="243" y="-126" on="1"/>
        <pt x="243" y="-144" on="0"/>
        <pt x="268" y="-166" on="0"/>
        <pt x="290" y="-166" on="1"/>
        <pt x="300" y="-166" on="0"/>
        <pt x="323" y="-160" on="0"/>
        <pt x="333" y="-155" on="1"/>
      </contour>
      <contour>
        <pt x="298" y="432" on="1"/>
        <pt x="242" y="432" on="0"/>
        <pt x="154" y="355" on="0"/>
        <pt x="138" y="297" on="1"/>
        <pt x="435" y="297" on="1"/>
        <pt x="429" y="356" on="0"/>
        <pt x="353" y="432" on="0"/>
      </contour>
    </TTGlyph>
    <TTGlyph name="equal" xMin="45" yMin="228" xMax="523" yMax="482">
      <component glyphName="minus" x="-19" y="-90" flags="0x4"/>
      <component glyphName="minus" x="18" y="84" flags="0x4"/>
    </TTGlyph>
    <TTGlyph name="eth" xMin="35" yMin="-9" xMax="596" yMax="746">
      <contour>
        <pt x="308" y="525" on="1"/>
        <pt x="282" y="585" on="1"/>
        <pt x="368" y="626" on="1"/>
        <pt x="350" y="642" on="0"/>
        <pt x="308" y="671" on="0"/>
        <pt x="285" y="681" on="1"/>
        <pt x="344" y="746" on="1"/>
        <pt x="375" y="730" on="0"/>
        <pt x="431" y="689" on="0"/>
        <pt x="453" y="667" on="1"/>
        <pt x="569" y="722" on="1"/>
        <pt x="596" y="662" on="1"/>
        <pt x="496" y="614" on="1"/>
        <pt x="528" y="566" on="0"/>
        <pt x="561" y="449" on="0"/>
        <pt x="561" y="382" on="1"/>
        <pt x="561" y="297" on="0"/>
        <pt x="517" y="153" on="0"/>
        <pt x="438" y="49" on="0"/>
        <pt x="328" y="-9" on="0"/>
        <pt x="263" y="-9" on="1"/>
        <pt x="163" y="-9" on="0"/>
        <pt x="35" y="119" on="0"/>
        <pt x="35" y="219" on="1"/>
        <pt x="35" y="274" on="0"/>
        <pt x="77" y="373" on="0"/>
        <pt x="149" y="446" on="0"/>
        <pt x="247" y="489" on="0"/>
        <pt x="301" y="489" on="1"/>
        <pt x="358" y="489" on="0"/>
        <pt x="444" y="440" on="0"/>
        <pt x="467" y="397" on="1"/>
        <pt x="466" y="446" on="0"/>
        <pt x="438" y="537" on="0"/>
        <pt x="412" y="575" on="1"/>
      </contour>
      <contour>
        <pt x="267" y="80" on="1"/>
        <pt x="302" y="80" on="0"/>
        <pt x="365" y="110" on="0"/>
        <pt x="413" y="160" on="0"/>
        <pt x="441" y="226" on="0"/>
        <pt x="441" y="263" on="1"/>
        <pt x="441" y="323" on="0"/>
        <pt x="362" y="405" on="0"/>
        <pt x="303" y="405" on="1"/>
        <pt x="268" y="405" on="0"/>
        <pt x="204" y="376" on="0"/>
        <pt x="156" y="326" on="0"/>
        <pt x="128" y="259" on="0"/>
        <pt x="128" y="222" on="1"/>
        <pt x="128" y="160" on="0"/>
        <pt x="207" y="80" on="0"/>
      </contour>
    </TTGlyph>
    <TTGlyph name="exclam" xMin="0" yMin="-8" xMax="256" yMax="725">
      <contour>
        <pt x="56" y="200" on="1"/>
        <pt x="155" y="725" on="1"/>
        <pt x="256" y="725" on="1"/>
        <pt x="132" y="200" on="1"/>
      </contour>
      <contour>
        <pt x="56" y="-8" on="1"/>
        <pt x="32" y="-8" on="0"/>
        <pt x="0" y="25" on="0"/>
        <pt x="0" y="48" on="1"/>
        <pt x="0" y="76" on="0"/>
        <pt x="43" y="119" on="0"/>
        <pt x="71" y="119" on="1"/>
        <pt x="94" y="119" on="0"/>
        <pt x="125" y="86" on="0"/>
        <pt x="125" y="63" on="1"/>
        <pt x="125" y="35" on="0"/>
        <pt x="83" y="-8" on="0"/>
      </contour>
    </TTGlyph>
    <TTGlyph name="exclamdown" xMin="-5" yMin="-22" xMax="251" yMax="711">
      <contour>
        <pt x="195" y="503" on="1"/>
        <pt x="96" y="-22" on="1"/>
        <pt x="-5" y="-22" on="1"/>
        <pt x="119" y="503" on="1"/>
      </contour>
      <contour>
        <pt x="195" y="711" on="1"/>
        <pt x="219" y="711" on="0"/>
        <pt x="251" y="678" on="0"/>
        <pt x="251" y="655" on="1"/>
        <pt x="251" y="627" on="0"/>
        <pt x="208" y="584" on="0"/>
        <pt x="180" y="584" on="1"/>
        <pt x="157" y="584" on="0"/>
        <pt x="126" y="617" on="0"/>
        <pt x="126" y="640" on="1"/>
        <pt x="126" y="668" on="0"/>
        <pt x="168" y="711" on="0"/>
      </contour>
    </TTGlyph>
    <TTGlyph name="f" xMin="53" yMin="0" xMax="473" yMax="750">
      <contour>
        <pt x="71" y="509" on="1"/>
        <pt x="185" y="509" on="1"/>
        <pt x="204" y="597" on="1"/>
        <pt x="220" y="671" on="0"/>
        <pt x="315" y="750" on="0"/>
        <pt x="389" y="750" on="1"/>
        <pt x="411" y="750" on="0"/>
        <pt x="457" y="742" on="0"/>
        <pt x="473" y="735" on="1"/>
        <pt x="456" y="649" on="1"/>
        <pt x="440" y="656" on="0"/>
        <pt x="407" y="662" on="0"/>
        <pt x="388" y="662" on="1"/>
        <pt x="351" y="662" on="0"/>
        <pt x="308" y="627" on="0"/>
        <pt x="300" y="588" on="1"/>
        <pt x="283" y="509" on="1"/>
        <pt x="426" y="509" on="1"/>
        <pt x="408" y="425" on="1"/>
        <pt x="265" y="425" on="1"/>
        <pt x="175" y="0" on="1"/>
        <pt x="77" y="0" on="1"/>
        <pt x="167" y="425" on="1"/>
        <pt x="53" y="425" on="1"/>
      </contour>
    </TTGlyph>
    <TTGlyph name="fi" xMin="53" yMin="0" xMax="642" yMax="750">
      <component glyphName="f" x="0" y="0" flags="0x4"/>
      <component glyphName="i" x="389" y="0" flags="0x4"/>
    </TTGlyph>
    <TTGlyph name="five" xMin="-6" yMin="-9" xMax="592" yMax="700">
      <contour>
        <pt x="84" y="360" on="1"/>
        <pt x="170" y="700" on="1"/>
        <pt x="592" y="700" on="1"/>
        <pt x="574" y="615" on="1"/>
        <pt x="234" y="615" on="1"/>
        <pt x="185" y="421" on="1"/>
        <pt x="213" y="428" on="0"/>
        <pt x="269" y="436" on="0"/>
        <pt x="297" y="436" on="1"/>
        <pt x="401" y="436" on="0"/>
        <pt x="530" y="329" on="0"/>
        <pt x="530" y="242" on="1"/>
        <pt x="530" y="190" on="0"/>
        <pt x="486" y="98" on="0"/>
        <pt x="410" y="31" on="0"/>
        <pt x="307" y="-9" on="0"/>
        <pt x="248" y="-9" on="1"/>
        <pt x="170" y="-9" on="0"/>
        <pt x="37" y="49" on="0"/>
        <pt x="-6" y="103" on="1"/>
        <pt x="64" y="166" on="1"/>
        <pt x="104" y="119" on="0"/>
        <pt x="196" y="75" on="0"/>
        <pt x="253" y="75" on="1"/>
        <pt x="328" y="75" on="0"/>
        <pt x="429" y="164" on="0"/>
        <pt x="429" y="230" on="1"/>
        <pt x="429" y="288" on="0"/>
        <pt x="341" y="357" on="0"/>
        <pt x="266" y="357" on="1"/>
        <pt x="236" y="357" on="0"/>
        <pt x="172" y="346" on="0"/>
        <pt x="139" y="336" on="1"/>
      </contour>
    </TTGlyph>
    <TTGlyph name="fl" xMin="53" yMin="0" xMax="645" yMax="750">
      <component glyphName="f" x="0" y="0" flags="0x4"/>
      <component glyphName="l" x="389" y="0" flags="0x4"/>
    </TTGlyph>
    <TTGlyph name="four" xMin="9" yMin="0" xMax="607" yMax="700">
      <contour>
        <pt x="607" y="700" on="1"/>
        <pt x="514" y="262" on="1"/>
        <pt x="598" y="262" on="1"/>
        <pt x="580" y="177" on="1"/>
        <pt x="496" y="177" on="1"/>
        <pt x="458" y="0" on="1"/>
        <pt x="361" y="0" on="1"/>
        <pt x="398" y="177" on="1"/>
        <pt x="9" y="177" on="1"/>
        <pt x="26" y="257" on="1"/>
        <pt x="498" y="700" on="1"/>
      </contour>
      <contour>
        <pt x="145" y="262" on="1"/>
        <pt x="416" y="262" on="1"/>
        <pt x="484" y="581" on="1"/>
      </contour>
    </TTGlyph>
    <TTGlyph name="fraction" xMin="-10" yMin="0" xMax="601" yMax="700">
      <contour>
        <pt x="64" y="0" on="1"/>
        <pt x="-10" y="0" on="1"/>
        <pt x="525" y="700" on="1"/>
        <pt x="601" y="700" on="1"/>
      </contour>
    </TTGlyph>
    <TTGlyph name="g" xMin="26" yMin="-213" xMax="589" yMax="516">
      <contour>
        <pt x="260" y="-5" on="1"/>
        <pt x="212" y="-5" on="0"/>
        <pt x="130" y="30" on="0"/>
        <pt x="70" y="92" on="0"/>
        <pt x="36" y="178" on="0"/>
        <pt x="36" y="228" on="1"/>
        <pt x="36" y="287" on="0"/>
        <pt x="80" y="393" on="0"/>
        <pt x="156" y="471" on="0"/>
        <pt x="258" y="516" on="0"/>
        <pt x="316" y="516" on="1"/>
        <pt x="365" y="516" on="0"/>
        <pt x="449" y="484" on="0"/>
        <pt x="480" y="453" on="1"/>
        <pt x="492" y="509" on="1"/>
        <pt x="589" y="509" on="1"/>
        <pt x="477" y="-30" on="1"/>
        <pt x="458" y="-118" on="0"/>
        <pt x="341" y="-213" on="0"/>
        <pt x="251" y="-213" on="1"/>
        <pt x="193" y="-213" on="0"/>
        <pt x="71" y="-174" on="0"/>
        <pt x="26" y="-140" on="1"/>
        <pt x="74" y="-66" on="1"/>
        <pt x="117" y="-96" on="0"/>
        <pt x="205" y="-127" on="0"/>
        <pt x="248" y="-127" on="1"/>
        <pt x="302" y="-127" on="0"/>
        <pt x="368" y="-73" on="0"/>
        <pt x="380" y="-20" on="1"/>
        <pt x="391" y="33" on="1"/>
        <pt x="361" y="14" on="0"/>
        <pt x="295" y="-5" on="0"/>
      </contour>
      <contour>
        <pt x="132" y="236" on="1"/>
        <pt x="132" y="168" on="0"/>
        <pt x="218" y="79" on="0"/>
        <pt x="284" y="79" on="1"/>
        <pt x="319" y="79" on="0"/>
        <pt x="385" y="104" on="0"/>
        <pt x="411" y="126" on="1"/>
        <pt x="460" y="362" on="1"/>
        <pt x="440" y="393" on="0"/>
        <pt x="364" y="430" on="0"/>
        <pt x="320" y="430" on="1"/>
        <pt x="281" y="430" on="0"/>
        <pt x="212" y="399" on="0"/>
        <pt x="161" y="347" on="0"/>
        <pt x="132" y="276" on="0"/>
      </contour>
    </TTGlyph>
    <TTGlyph name="g.alt" xMin="-48" yMin="-213" xMax="602" yMax="530">
      <contour>
        <pt x="65" y="309" on="1"/>
        <pt x="65" y="351" on="0"/>
        <pt x="103" y="427" on="0"/>
        <pt x="166" y="484" on="0"/>
        <pt x="252" y="517" on="0"/>
        <pt x="299" y="517" on="1"/>
        <pt x="343" y="517" on="0"/>
        <pt x="418" y="488" on="0"/>
        <pt x="445" y="463" on="1"/>
        <pt x="468" y="494" on="0"/>
        <pt x="533" y="530" on="0"/>
        <pt x="568" y="530" on="1"/>
        <pt x="578" y="530" on="0"/>
        <pt x="595" y="528" on="0"/>
        <pt x="602" y="525" on="1"/>
        <pt x="587" y="445" on="1"/>
        <pt x="577" y="448" on="0"/>
        <pt x="555" y="451" on="0"/>
        <pt x="544" y="451" on="1"/>
        <pt x="524" y="451" on="0"/>
        <pt x="487" y="441" on="0"/>
        <pt x="471" y="431" on="1"/>
        <pt x="484" y="412" on="0"/>
        <pt x="497" y="368" on="0"/>
        <pt x="497" y="344" on="1"/>
        <pt x="497" y="302" on="0"/>
        <pt x="461" y="227" on="0"/>
        <pt x="398" y="172" on="0"/>
        <pt x="313" y="140" on="0"/>
        <pt x="265" y="140" on="1"/>
        <pt x="245" y="140" on="0"/>
        <pt x="207" y="146" on="0"/>
        <pt x="190" y="151" on="1"/>
        <pt x="165" y="146" on="0"/>
        <pt x="137" y="121" on="0"/>
        <pt x="137" y="104" on="1"/>
        <pt x="137" y="90" on="0"/>
        <pt x="163" y="72" on="0"/>
        <pt x="188" y="69" on="1"/>
        <pt x="362" y="49" on="1"/>
        <pt x="419" y="42" on="0"/>
        <pt x="481" y="-10" on="0"/>
        <pt x="481" y="-51" on="1"/>
        <pt x="481" y="-123" on="0"/>
        <pt x="334" y="-213" on="0"/>
        <pt x="215" y="-213" on="1"/>
        <pt x="95" y="-213" on="0"/>
        <pt x="-48" y="-148" on="0"/>
        <pt x="-48" y="-93" on="1"/>
        <pt x="-48" y="-54" on="0"/>
        <pt x="15" y="5" on="0"/>
        <pt x="70" y="19" on="1"/>
        <pt x="58" y="30" on="0"/>
        <pt x="45" y="58" on="0"/>
        <pt x="45" y="74" on="1"/>
        <pt x="45" y="109" on="0"/>
        <pt x="95" y="165" on="0"/>
        <pt x="136" y="178" on="1"/>
        <pt x="103" y="200" on="0"/>
        <pt x="65" y="269" on="0"/>
      </contour>
      <contour>
        <pt x="405" y="337" on="1"/>
        <pt x="405" y="380" on="0"/>
        <pt x="341" y="439" on="0"/>
        <pt x="295" y="439" on="1"/>
        <pt x="239" y="439" on="0"/>
        <pt x="158" y="365" on="0"/>
        <pt x="158" y="314" on="1"/>
        <pt x="158" y="271" on="0"/>
        <pt x="222" y="215" on="0"/>
        <pt x="270" y="215" on="1"/>
        <pt x="324" y="215" on="0"/>
        <pt x="405" y="288" on="0"/>
      </contour>
      <contour>
        <pt x="44" y="-78" on="1"/>
        <pt x="44" y="-109" on="0"/>
        <pt x="139" y="-146" on="0"/>
        <pt x="222" y="-146" on="1"/>
        <pt x="292" y="-146" on="0"/>
        <pt x="379" y="-107" on="0"/>
        <pt x="379" y="-75" on="1"/>
        <pt x="379" y="-60" on="0"/>
        <pt x="353" y="-39" on="0"/>
        <pt x="328" y="-36" on="1"/>
        <pt x="170" y="-18" on="1"/>
        <pt x="160" y="-17" on="0"/>
        <pt x="140" y="-13" on="0"/>
        <pt x="132" y="-11" on="1"/>
        <pt x="92" y="-18" on="0"/>
        <pt x="44" y="-54" on="0"/>
      </contour>
    </TTGlyph>
    <TTGlyph name="gbreve" xMin="26" yMin="-213" xMax="589" yMax="742">
      <component glyphName="g" x="0" y="0" flags="0x204"/>
      <component glyphName="breve" x="21" y="0" flags="0x4"/>
    </TTGlyph>
    <TTGlyph name="gbreve.alt" xMin="-48" yMin="-213" xMax="602" yMax="742">
      <component glyphName="g.alt" x="0" y="0" flags="0x204"/>
      <component glyphName="breve" x="5" y="0" flags="0x4"/>
    </TTGlyph>
    <TTGlyph name="gcircumflex" xMin="26" yMin="-213" xMax="589" yMax="727">
      <component glyphName="g" x="0" y="0" flags="0x204"/>
      <component glyphName="circumflex" x="21" y="0" flags="0x4"/>
    </TTGlyph>
    <TTGlyph name="gcircumflex.alt" xMin="-48" yMin="-213" xMax="602" yMax="727">
      <component glyphName="g.alt" x="0" y="0" flags="0x204"/>
      <component glyphName="circumflex" x="6" y="0" flags="0x4"/>
    </TTGlyph>
    <TTGlyph name="gcommaaccent" xMin="26" yMin="-213" xMax="589" yMax="800">
      <contour>
        <pt x="394" y="610" on="1"/>
        <pt x="297" y="610" on="1"/>
        <pt x="406" y="800" on="1"/>
        <pt x="479" y="800" on="1"/>
      </contour>
      <contour>
        <pt x="260" y="-5" on="1"/>
        <pt x="212" y="-5" on="0"/>
        <pt x="130" y="30" on="0"/>
        <pt x="70" y="92" on="0"/>
        <pt x="36" y="178" on="0"/>
        <pt x="36" y="228" on="1"/>
        <pt x="36" y="287" on="0"/>
        <pt x="80" y="393" on="0"/>
        <pt x="156" y="471" on="0"/>
        <pt x="258" y="516" on="0"/>
        <pt x="316" y="516" on="1"/>
        <pt x="365" y="516" on="0"/>
        <pt x="449" y="484" on="0"/>
        <pt x="480" y="453" on="1"/>
        <pt x="492" y="509" on="1"/>
        <pt x="589" y="509" on="1"/>
        <pt x="477" y="-30" on="1"/>
        <pt x="458" y="-118" on="0"/>
        <pt x="341" y="-213" on="0"/>
        <pt x="251" y="-213" on="1"/>
        <pt x="193" y="-213" on="0"/>
        <pt x="71" y="-174" on="0"/>
        <pt x="26" y="-140" on="1"/>
        <pt x="74" y="-66" on="1"/>
        <pt x="117" y="-96" on="0"/>
        <pt x="205" y="-127" on="0"/>
        <pt x="248" y="-127" on="1"/>
        <pt x="302" y="-127" on="0"/>
        <pt x="368" y="-73" on="0"/>
        <pt x="380" y="-20" on="1"/>
        <pt x="391" y="33" on="1"/>
        <pt x="361" y="14" on="0"/>
        <pt x="295" y="-5" on="0"/>
      </contour>
      <contour>
        <pt x="132" y="236" on="1"/>
        <pt x="132" y="168" on="0"/>
        <pt x="218" y="79" on="0"/>
        <pt x="284" y="79" on="1"/>
        <pt x="319" y="79" on="0"/>
        <pt x="385" y="104" on="0"/>
        <pt x="411" y="126" on="1"/>
        <pt x="460" y="362" on="1"/>
        <pt x="440" y="393" on="0"/>
        <pt x="364" y="430" on="0"/>
        <pt x="320" y="430" on="1"/>
        <pt x="281" y="430" on="0"/>
        <pt x="212" y="399" on="0"/>
        <pt x="161" y="347" on="0"/>
        <pt x="132" y="276" on="0"/>
      </contour>
    </TTGlyph>
    <TTGlyph name="gcommaaccent.alt" xMin="-48" yMin="-213" xMax="602" yMax="792">
      <contour>
        <pt x="373" y="602" on="1"/>
        <pt x="276" y="602" on="1"/>
        <pt x="385" y="792" on="1"/>
        <pt x="458" y="792" on="1"/>
      </contour>
      <contour>
        <pt x="65" y="309" on="1"/>
        <pt x="65" y="351" on="0"/>
        <pt x="103" y="427" on="0"/>
        <pt x="166" y="484" on="0"/>
        <pt x="252" y="517" on="0"/>
        <pt x="299" y="517" on="1"/>
        <pt x="343" y="517" on="0"/>
        <pt x="418" y="488" on="0"/>
        <pt x="445" y="463" on="1"/>
        <pt x="468" y="494" on="0"/>
        <pt x="533" y="530" on="0"/>
        <pt x="568" y="530" on="1"/>
        <pt x="578" y="530" on="0"/>
        <pt x="595" y="528" on="0"/>
        <pt x="602" y="525" on="1"/>
        <pt x="587" y="445" on="1"/>
        <pt x="577" y="448" on="0"/>
        <pt x="555" y="451" on="0"/>
        <pt x="544" y="451" on="1"/>
        <pt x="524" y="451" on="0"/>
        <pt x="487" y="441" on="0"/>
        <pt x="471" y="431" on="1"/>
        <pt x="484" y="412" on="0"/>
        <pt x="497" y="368" on="0"/>
        <pt x="497" y="344" on="1"/>
        <pt x="497" y="302" on="0"/>
        <pt x="461" y="227" on="0"/>
        <pt x="398" y="172" on="0"/>
        <pt x="313" y="140" on="0"/>
        <pt x="265" y="140" on="1"/>
        <pt x="245" y="140" on="0"/>
        <pt x="207" y="146" on="0"/>
        <pt x="190" y="151" on="1"/>
        <pt x="165" y="146" on="0"/>
        <pt x="137" y="121" on="0"/>
        <pt x="137" y="104" on="1"/>
        <pt x="137" y="90" on="0"/>
        <pt x="163" y="72" on="0"/>
        <pt x="188" y="69" on="1"/>
        <pt x="362" y="49" on="1"/>
        <pt x="419" y="42" on="0"/>
        <pt x="481" y="-10" on="0"/>
        <pt x="481" y="-51" on="1"/>
        <pt x="481" y="-123" on="0"/>
        <pt x="334" y="-213" on="0"/>
        <pt x="215" y="-213" on="1"/>
        <pt x="95" y="-213" on="0"/>
        <pt x="-48" y="-148" on="0"/>
        <pt x="-48" y="-93" on="1"/>
        <pt x="-48" y="-54" on="0"/>
        <pt x="15" y="5" on="0"/>
        <pt x="70" y="19" on="1"/>
        <pt x="58" y="30" on="0"/>
        <pt x="45" y="58" on="0"/>
        <pt x="45" y="74" on="1"/>
        <pt x="45" y="109" on="0"/>
        <pt x="95" y="165" on="0"/>
        <pt x="136" y="178" on="1"/>
        <pt x="103" y="200" on="0"/>
        <pt x="65" y="269" on="0"/>
      </contour>
      <contour>
        <pt x="405" y="337" on="1"/>
        <pt x="405" y="380" on="0"/>
        <pt x="341" y="439" on="0"/>
        <pt x="295" y="439" on="1"/>
        <pt x="239" y="439" on="0"/>
        <pt x="158" y="365" on="0"/>
        <pt x="158" y="314" on="1"/>
        <pt x="158" y="271" on="0"/>
        <pt x="222" y="215" on="0"/>
        <pt x="270" y="215" on="1"/>
        <pt x="324" y="215" on="0"/>
        <pt x="405" y="288" on="0"/>
      </contour>
      <contour>
        <pt x="44" y="-78" on="1"/>
        <pt x="44" y="-109" on="0"/>
        <pt x="139" y="-146" on="0"/>
        <pt x="222" y="-146" on="1"/>
        <pt x="292" y="-146" on="0"/>
        <pt x="379" y="-107" on="0"/>
        <pt x="379" y="-75" on="1"/>
        <pt x="379" y="-60" on="0"/>
        <pt x="353" y="-39" on="0"/>
        <pt x="328" y="-36" on="1"/>
        <pt x="170" y="-18" on="1"/>
        <pt x="160" y="-17" on="0"/>
        <pt x="140" y="-13" on="0"/>
        <pt x="132" y="-11" on="1"/>
        <pt x="92" y="-18" on="0"/>
        <pt x="44" y="-54" on="0"/>
      </contour>
    </TTGlyph>
    <TTGlyph name="gdotaccent" xMin="26" yMin="-213" xMax="589" yMax="719">
      <component glyphName="g" x="0" y="0" flags="0x204"/>
      <component glyphName="dotaccent" x="139" y="0" flags="0x4"/>
    </TTGlyph>
    <TTGlyph name="gdotaccent.alt" xMin="-48" yMin="-213" xMax="602" yMax="719">
      <component glyphName="g.alt" x="0" y="0" flags="0x204"/>
      <component glyphName="dotaccent" x="125" y="0" flags="0x4"/>
    </TTGlyph>
    <TTGlyph name="germandbls" xMin="5" yMin="-12" xMax="615" yMax="738">
      <contour>
        <pt x="385" y="352" on="1"/>
        <pt x="385" y="336" on="0"/>
        <pt x="406" y="313" on="0"/>
        <pt x="430" y="302" on="1"/>
        <pt x="501" y="269" on="1"/>
        <pt x="552" y="245" on="0"/>
        <pt x="599" y="187" on="0"/>
        <pt x="599" y="147" on="1"/>
        <pt x="599" y="78" on="0"/>
        <pt x="494" y="-12" on="0"/>
        <pt x="416" y="-12" on="1"/>
        <pt x="353" y="-12" on="0"/>
        <pt x="246" y="41" on="0"/>
        <pt x="209" y="91" on="1"/>
        <pt x="273" y="141" on="1"/>
        <pt x="301" y="101" on="0"/>
        <pt x="373" y="61" on="0"/>
        <pt x="416" y="61" on="1"/>
        <pt x="459" y="61" on="0"/>
        <pt x="509" y="103" on="0"/>
        <pt x="509" y="138" on="1"/>
        <pt x="509" y="159" on="0"/>
        <pt x="479" y="191" on="0"/>
        <pt x="445" y="206" on="1"/>
        <pt x="371" y="239" on="1"/>
        <pt x="331" y="258" on="0"/>
        <pt x="292" y="306" on="0"/>
        <pt x="292" y="339" on="1"/>
        <pt x="292" y="391" on="0"/>
        <pt x="363" y="445" on="0"/>
        <pt x="447" y="483" on="0"/>
        <pt x="518" y="526" on="0"/>
        <pt x="518" y="567" on="1"/>
        <pt x="518" y="604" on="0"/>
        <pt x="441" y="656" on="0"/>
        <pt x="387" y="656" on="1"/>
        <pt x="316" y="656" on="0"/>
        <pt x="225" y="575" on="0"/>
        <pt x="208" y="497" on="1"/>
        <pt x="102" y="0" on="1"/>
        <pt x="5" y="0" on="1"/>
        <pt x="113" y="507" on="1"/>
        <pt x="136" y="618" on="0"/>
        <pt x="280" y="738" on="0"/>
        <pt x="389" y="738" on="1"/>
        <pt x="438" y="738" on="0"/>
        <pt x="521" y="714" on="0"/>
        <pt x="581" y="672" on="0"/>
        <pt x="615" y="614" on="0"/>
        <pt x="615" y="579" on="1"/>
        <pt x="615" y="517" on="0"/>
        <pt x="543" y="452" on="0"/>
        <pt x="457" y="413" on="0"/>
        <pt x="385" y="381" on="0"/>
      </contour>
    </TTGlyph>
    <TTGlyph name="grave" xMin="175" yMin="603" xMax="382" yMax="725">
      <contour>
        <pt x="293" y="725" on="1"/>
        <pt x="382" y="603" on="1"/>
        <pt x="300" y="603" on="1"/>
        <pt x="175" y="725" on="1"/>
      </contour>
    </TTGlyph>
    <TTGlyph name="greater" xMin="58" yMin="86" xMax="475" yMax="612">
      <contour>
        <pt x="208" y="612" on="1"/>
        <pt x="475" y="348" on="1"/>
        <pt x="97" y="86" on="1"/>
        <pt x="58" y="150" on="1"/>
        <pt x="358" y="352" on="1"/>
        <pt x="146" y="553" on="1"/>
      </contour>
    </TTGlyph>
    <TTGlyph name="guillemotleft" xMin="25" yMin="0" xMax="641" yMax="509">
      <component glyphName="guilsinglleft" x="0" y="0" flags="0x4"/>
      <component glyphName="guilsinglleft" x="224" y="0" flags="0x4"/>
    </TTGlyph>
    <TTGlyph name="guillemotright" xMin="-10" yMin="0" xMax="606" yMax="509">
      <contour>
        <pt x="214" y="0" on="1"/>
        <pt x="498" y="257" on="1"/>
        <pt x="325" y="509" on="1"/>
        <pt x="427" y="509" on="1"/>
        <pt x="606" y="254" on="1"/>
        <pt x="319" y="0" on="1"/>
      </contour>
      <contour>
        <pt x="-10" y="0" on="1"/>
        <pt x="274" y="257" on="1"/>
        <pt x="101" y="509" on="1"/>
        <pt x="203" y="509" on="1"/>
        <pt x="382" y="254" on="1"/>
        <pt x="95" y="0" on="1"/>
      </contour>
    </TTGlyph>
    <TTGlyph name="guilsinglleft" xMin="25" yMin="0" xMax="417" yMax="509">
      <contour>
        <pt x="417" y="509" on="1"/>
        <pt x="133" y="252" on="1"/>
        <pt x="306" y="0" on="1"/>
        <pt x="204" y="0" on="1"/>
        <pt x="25" y="255" on="1"/>
        <pt x="312" y="509" on="1"/>
      </contour>
    </TTGlyph>
    <TTGlyph name="guilsinglright" xMin="-10" yMin="0" xMax="382" yMax="509">
      <contour>
        <pt x="-10" y="0" on="1"/>
        <pt x="274" y="257" on="1"/>
        <pt x="101" y="509" on="1"/>
        <pt x="203" y="509" on="1"/>
        <pt x="382" y="254" on="1"/>
        <pt x="95" y="0" on="1"/>
      </contour>
    </TTGlyph>
    <TTGlyph name="h" xMin="5" yMin="0" xMax="517" yMax="722">
      <contour>
        <pt x="5" y="0" on="1"/>
        <pt x="154" y="700" on="1"/>
        <pt x="256" y="722" on="1"/>
        <pt x="201" y="466" on="1"/>
        <pt x="233" y="491" on="0"/>
        <pt x="308" y="518" on="0"/>
        <pt x="348" y="518" on="1"/>
        <pt x="393" y="518" on="0"/>
        <pt x="463" y="486" on="0"/>
        <pt x="507" y="430" on="0"/>
        <pt x="522" y="352" on="0"/>
        <pt x="512" y="306" on="1"/>
        <pt x="447" y="0" on="1"/>
        <pt x="350" y="0" on="1"/>
        <pt x="412" y="295" on="1"/>
        <pt x="425" y="357" on="0"/>
        <pt x="369" y="432" on="0"/>
        <pt x="311" y="432" on="1"/>
        <pt x="274" y="432" on="0"/>
        <pt x="207" y="401" on="0"/>
        <pt x="181" y="372" on="1"/>
        <pt x="102" y="0" on="1"/>
      </contour>
    </TTGlyph>
    <TTGlyph name="hbar" xMin="5" yMin="0" xMax="517" yMax="722">
      <contour>
        <pt x="5" y="0" on="1"/>
        <pt x="129" y="583" on="1"/>
        <pt x="68" y="583" on="1"/>
        <pt x="82" y="652" on="1"/>
        <pt x="144" y="652" on="1"/>
        <pt x="154" y="700" on="1"/>
        <pt x="256" y="722" on="1"/>
        <pt x="241" y="652" on="1"/>
        <pt x="389" y="652" on="1"/>
        <pt x="375" y="583" on="1"/>
        <pt x="226" y="583" on="1"/>
        <pt x="201" y="466" on="1"/>
        <pt x="233" y="491" on="0"/>
        <pt x="308" y="518" on="0"/>
        <pt x="348" y="518" on="1"/>
        <pt x="393" y="518" on="0"/>
        <pt x="463" y="486" on="0"/>
        <pt x="507" y="430" on="0"/>
        <pt x="522" y="352" on="0"/>
        <pt x="512" y="306" on="1"/>
        <pt x="447" y="0" on="1"/>
        <pt x="350" y="0" on="1"/>
        <pt x="412" y="295" on="1"/>
        <pt x="425" y="357" on="0"/>
        <pt x="369" y="432" on="0"/>
        <pt x="311" y="432" on="1"/>
        <pt x="274" y="432" on="0"/>
        <pt x="207" y="401" on="0"/>
        <pt x="181" y="372" on="1"/>
        <pt x="102" y="0" on="1"/>
      </contour>
    </TTGlyph>
    <TTGlyph name="hcircumflex" xMin="5" yMin="0" xMax="517" yMax="918">
      <contour>
        <pt x="300" y="791" on="1"/>
        <pt x="239" y="869" on="1"/>
        <pt x="144" y="791" on="1"/>
        <pt x="62" y="791" on="1"/>
        <pt x="195" y="918" on="1"/>
        <pt x="298" y="918" on="1"/>
        <pt x="377" y="791" on="1"/>
      </contour>
      <contour>
        <pt x="5" y="0" on="1"/>
        <pt x="154" y="700" on="1"/>
        <pt x="250" y="700" on="1"/>
        <pt x="200" y="465" on="1"/>
        <pt x="232" y="491" on="0"/>
        <pt x="307" y="518" on="0"/>
        <pt x="348" y="518" on="1"/>
        <pt x="393" y="518" on="0"/>
        <pt x="463" y="486" on="0"/>
        <pt x="507" y="430" on="0"/>
        <pt x="522" y="352" on="0"/>
        <pt x="512" y="306" on="1"/>
        <pt x="447" y="0" on="1"/>
        <pt x="350" y="0" on="1"/>
        <pt x="412" y="295" on="1"/>
        <pt x="425" y="357" on="0"/>
        <pt x="369" y="432" on="0"/>
        <pt x="311" y="432" on="1"/>
        <pt x="274" y="432" on="0"/>
        <pt x="207" y="401" on="0"/>
        <pt x="180" y="371" on="1"/>
        <pt x="102" y="0" on="1"/>
      </contour>
    </TTGlyph>
    <TTGlyph name="hungarumlaut" xMin="181" yMin="606" xMax="592" yMax="725">
      <contour>
        <pt x="307" y="725" on="1"/>
        <pt x="413" y="725" on="1"/>
        <pt x="261" y="606" on="1"/>
        <pt x="181" y="606" on="1"/>
      </contour>
      <contour>
        <pt x="486" y="725" on="1"/>
        <pt x="592" y="725" on="1"/>
        <pt x="436" y="606" on="1"/>
        <pt x="360" y="606" on="1"/>
      </contour>
    </TTGlyph>
    <TTGlyph name="hyphen" xMin="41" yMin="240" xMax="413" yMax="326">
      <contour>
        <pt x="60" y="326" on="1"/>
        <pt x="413" y="326" on="1"/>
        <pt x="395" y="240" on="1"/>
        <pt x="41" y="240" on="1"/>
      </contour>
    </TTGlyph>
    <TTGlyph name="hyphen.cap" xMin="51" yMin="305" xMax="423" yMax="391">
      <component glyphName="hyphen" x="10" y="65" flags="0x4"/>
    </TTGlyph>
    <TTGlyph name="i" xMin="5" yMin="0" xMax="253" yMax="715">
      <contour>
        <pt x="185" y="591" on="1"/>
        <pt x="162" y="591" on="0"/>
        <pt x="131" y="623" on="0"/>
        <pt x="131" y="646" on="1"/>
        <pt x="131" y="674" on="0"/>
        <pt x="172" y="715" on="0"/>
        <pt x="199" y="715" on="1"/>
        <pt x="221" y="715" on="0"/>
        <pt x="253" y="683" on="0"/>
        <pt x="253" y="660" on="1"/>
        <pt x="253" y="632" on="0"/>
        <pt x="212" y="591" on="0"/>
      </contour>
      <contour>
        <pt x="210" y="509" on="1"/>
        <pt x="102" y="0" on="1"/>
        <pt x="5" y="0" on="1"/>
        <pt x="113" y="509" on="1"/>
      </contour>
    </TTGlyph>
    <TTGlyph name="iacute" xMin="5" yMin="0" xMax="358" yMax="725">
      <component glyphName="dotlessi" x="0" y="0" flags="0x204"/>
      <component glyphName="acute" x="-111" y="0" flags="0x4"/>
    </TTGlyph>
    <TTGlyph name="ibreve" xMin="5" yMin="0" xMax="362" yMax="742">
      <component glyphName="dotlessi" x="0" y="0" flags="0x204"/>
      <component glyphName="breve" x="-147" y="0" flags="0x4"/>
    </TTGlyph>
    <TTGlyph name="icircumflex" xMin="5" yMin="0" xMax="338" yMax="727">
      <component glyphName="dotlessi" x="0" y="0" flags="0x204"/>
      <component glyphName="circumflex" x="-147" y="0" flags="0x4"/>
    </TTGlyph>
    <TTGlyph name="idieresis" xMin="5" yMin="0" xMax="347" yMax="719">
      <component glyphName="dotlessi" x="0" y="0" flags="0x204"/>
      <component glyphName="dieresis" x="-167" y="0" flags="0x4"/>
    </TTGlyph>
    <TTGlyph name="idotaccent" xMin="5" yMin="0" xMax="253" yMax="715">
      <component glyphName="i" x="0" y="0" flags="0x4"/>
    </TTGlyph>
    <TTGlyph name="igrave" xMin="5" yMin="0" xMax="228" yMax="725">
      <component glyphName="dotlessi" x="0" y="0" flags="0x204"/>
      <component glyphName="grave" x="-154" y="0" flags="0x4"/>
    </TTGlyph>
    <TTGlyph name="ij" xMin="5" yMin="-210" xMax="468" yMax="715">
      <component glyphName="i" x="0" y="0" flags="0x4"/>
      <component glyphName="j" x="215" y="0" flags="0x4"/>
    </TTGlyph>
    <TTGlyph name="imacron" xMin="5" yMin="0" xMax="349" yMax="690">
      <component glyphName="dotlessi" x="0" y="0" flags="0x204"/>
      <component glyphName="macron" x="-147" y="0" flags="0x4"/>
    </TTGlyph>
    <TTGlyph name="iogonek" xMin="-87" yMin="-222" xMax="253" yMax="715">
      <contour>
        <pt x="185" y="591" on="1"/>
        <pt x="162" y="591" on="0"/>
        <pt x="131" y="623" on="0"/>
        <pt x="131" y="646" on="1"/>
        <pt x="131" y="674" on="0"/>
        <pt x="172" y="715" on="0"/>
        <pt x="199" y="715" on="1"/>
        <pt x="221" y="715" on="0"/>
        <pt x="253" y="683" on="0"/>
        <pt x="253" y="660" on="1"/>
        <pt x="253" y="632" on="0"/>
        <pt x="212" y="591" on="0"/>
      </contour>
      <contour>
        <pt x="102" y="0" on="1"/>
        <pt x="39" y="-33" on="0"/>
        <pt x="-21" y="-94" on="0"/>
        <pt x="-21" y="-126" on="1"/>
        <pt x="-21" y="-144" on="0"/>
        <pt x="4" y="-166" on="0"/>
        <pt x="26" y="-166" on="1"/>
        <pt x="36" y="-166" on="0"/>
        <pt x="59" y="-160" on="0"/>
        <pt x="69" y="-155" on="1"/>
        <pt x="74" y="-204" on="1"/>
        <pt x="58" y="-212" on="0"/>
        <pt x="20" y="-222" on="0"/>
        <pt x="1" y="-222" on="1"/>
        <pt x="-39" y="-222" on="0"/>
        <pt x="-87" y="-182" on="0"/>
        <pt x="-87" y="-149" on="1"/>
        <pt x="-87" y="-109" on="0"/>
        <pt x="-27" y="-34" on="0"/>
        <pt x="33" y="0" on="1"/>
        <pt x="5" y="0" on="1"/>
        <pt x="113" y="509" on="1"/>
        <pt x="210" y="509" on="1"/>
      </contour>
    </TTGlyph>
    <TTGlyph name="itilde" xMin="5" yMin="0" xMax="377" yMax="720">
      <component glyphName="dotlessi" x="0" y="0" flags="0x204"/>
      <component glyphName="tilde" x="-143" y="0" flags="0x4"/>
    </TTGlyph>
    <TTGlyph name="j" xMin="-138" yMin="-210" xMax="253" yMax="715">
      <contour>
        <pt x="185" y="591" on="1"/>
        <pt x="162" y="591" on="0"/>
        <pt x="131" y="623" on="0"/>
        <pt x="131" y="646" on="1"/>
        <pt x="131" y="674" on="0"/>
        <pt x="172" y="715" on="0"/>
        <pt x="199" y="715" on="1"/>
        <pt x="221" y="715" on="0"/>
        <pt x="253" y="683" on="0"/>
        <pt x="253" y="660" on="1"/>
        <pt x="253" y="632" on="0"/>
        <pt x="212" y="591" on="0"/>
      </contour>
      <contour>
        <pt x="-74" y="-210" on="1"/>
        <pt x="-89" y="-210" on="0"/>
        <pt x="-125" y="-204" on="0"/>
        <pt x="-138" y="-200" on="1"/>
        <pt x="-121" y="-121" on="1"/>
        <pt x="-111" y="-124" on="0"/>
        <pt x="-90" y="-127" on="0"/>
        <pt x="-75" y="-127" on="1"/>
        <pt x="-47" y="-127" on="0"/>
        <pt x="-17" y="-99" on="0"/>
        <pt x="-10" y="-68" on="1"/>
        <pt x="113" y="509" on="1"/>
        <pt x="211" y="509" on="1"/>
        <pt x="85" y="-79" on="1"/>
        <pt x="72" y="-142" on="0"/>
        <pt x="-11" y="-210" on="0"/>
      </contour>
    </TTGlyph>
    <TTGlyph name="jcircumflex" xMin="-138" yMin="-210" xMax="338" yMax="727">
      <component glyphName="dotlessj" x="0" y="0" flags="0x204"/>
      <component glyphName="circumflex" x="-147" y="0" flags="0x4"/>
    </TTGlyph>
    <TTGlyph name="k" xMin="5" yMin="0" xMax="571" yMax="722">
      <contour>
        <pt x="5" y="0" on="1"/>
        <pt x="154" y="700" on="1"/>
        <pt x="256" y="722" on="1"/>
        <pt x="163" y="287" on="1"/>
        <pt x="445" y="509" on="1"/>
        <pt x="571" y="509" on="1"/>
        <pt x="251" y="259" on="1"/>
        <pt x="472" y="0" on="1"/>
        <pt x="352" y="0" on="1"/>
        <pt x="153" y="238" on="1"/>
        <pt x="102" y="0" on="1"/>
      </contour>
    </TTGlyph>
    <TTGlyph name="kcommaaccent" xMin="5" yMin="-273" xMax="571" yMax="722">
      <component glyphName="k" x="0" y="0" flags="0x204"/>
      <component glyphName="commaaccent" x="150" y="0" flags="0x4"/>
    </TTGlyph>
    <TTGlyph name="kgreenlandic" xMin="5" yMin="0" xMax="574" yMax="509">
      <contour>
        <pt x="5" y="0" on="1"/>
        <pt x="113" y="509" on="1"/>
        <pt x="210" y="509" on="1"/>
        <pt x="162" y="283" on="1"/>
        <pt x="448" y="509" on="1"/>
        <pt x="574" y="509" on="1"/>
        <pt x="251" y="256" on="1"/>
        <pt x="466" y="0" on="1"/>
        <pt x="345" y="0" on="1"/>
        <pt x="152" y="236" on="1"/>
        <pt x="102" y="0" on="1"/>
      </contour>
    </TTGlyph>
    <TTGlyph name="l" xMin="5" yMin="0" xMax="256" yMax="722">
      <contour>
        <pt x="256" y="722" on="1"/>
        <pt x="102" y="0" on="1"/>
        <pt x="5" y="0" on="1"/>
        <pt x="154" y="700" on="1"/>
      </contour>
    </TTGlyph>
    <TTGlyph name="lacute" xMin="5" yMin="0" xMax="399" yMax="916">
      <contour>
        <pt x="279" y="916" on="1"/>
        <pt x="399" y="916" on="1"/>
        <pt x="248" y="794" on="1"/>
        <pt x="162" y="794" on="1"/>
      </contour>
      <contour>
        <pt x="5" y="0" on="1"/>
        <pt x="154" y="700" on="1"/>
        <pt x="250" y="700" on="1"/>
        <pt x="102" y="0" on="1"/>
      </contour>
    </TTGlyph>
    <TTGlyph name="lcaron" xMin="5" yMin="0" xMax="439" yMax="722">
      <component glyphName="l" x="0" y="0" flags="0x4"/>
      <component glyphName="caronSlovak" x="85" y="0" flags="0x4"/>
    </TTGlyph>
    <TTGlyph name="lcommaaccent" xMin="-94" yMin="-273" xMax="256" yMax="722">
      <component glyphName="l" x="0" y="0" flags="0x204"/>
      <component glyphName="commaaccent" x="-8" y="0" flags="0x4"/>
    </TTGlyph>
    <TTGlyph name="ldot" xMin="5" yMin="0" xMax="357" yMax="722">
      <component glyphName="l" x="0" y="0" flags="0x4"/>
      <component glyphName="dotaccent" x="75" y="-306" flags="0x4"/>
    </TTGlyph>
    <TTGlyph name="less" xMin="80" yMin="85" xMax="497" yMax="611">
      <contour>
        <pt x="347" y="85" on="1"/>
        <pt x="80" y="349" on="1"/>
        <pt x="458" y="611" on="1"/>
        <pt x="497" y="547" on="1"/>
        <pt x="197" y="345" on="1"/>
        <pt x="409" y="144" on="1"/>
      </contour>
    </TTGlyph>
    <TTGlyph name="lslash" xMin="7" yMin="0" xMax="309" yMax="722">
      <contour>
        <pt x="27" y="330" on="1"/>
        <pt x="109" y="385" on="1"/>
        <pt x="176" y="700" on="1"/>
        <pt x="278" y="722" on="1"/>
        <pt x="222" y="460" on="1"/>
        <pt x="309" y="518" on="1"/>
        <pt x="288" y="423" on="1"/>
        <pt x="202" y="365" on="1"/>
        <pt x="124" y="0" on="1"/>
        <pt x="27" y="0" on="1"/>
        <pt x="89" y="290" on="1"/>
        <pt x="7" y="235" on="1"/>
      </contour>
    </TTGlyph>
    <TTGlyph name="m" xMin="5" yMin="0" xMax="823" yMax="518">
      <contour>
        <pt x="5" y="0" on="1"/>
        <pt x="113" y="509" on="1"/>
        <pt x="210" y="509" on="1"/>
        <pt x="200" y="462" on="1"/>
        <pt x="231" y="490" on="0"/>
        <pt x="302" y="518" on="0"/>
        <pt x="341" y="518" on="1"/>
        <pt x="392" y="518" on="0"/>
        <pt x="468" y="469" on="0"/>
        <pt x="485" y="428" on="1"/>
        <pt x="525" y="473" on="0"/>
        <pt x="615" y="518" on="0"/>
        <pt x="666" y="518" on="1"/>
        <pt x="708" y="518" on="0"/>
        <pt x="774" y="487" on="0"/>
        <pt x="814" y="432" on="0"/>
        <pt x="827" y="355" on="0"/>
        <pt x="817" y="311" on="1"/>
        <pt x="751" y="0" on="1"/>
        <pt x="654" y="0" on="1"/>
        <pt x="718" y="303" on="1"/>
        <pt x="730" y="360" on="0"/>
        <pt x="679" y="432" on="0"/>
        <pt x="628" y="432" on="1"/>
        <pt x="593" y="432" on="0"/>
        <pt x="529" y="397" on="0"/>
        <pt x="498" y="361" on="1"/>
        <pt x="498" y="350" on="0"/>
        <pt x="496" y="324" on="0"/>
        <pt x="493" y="311" on="1"/>
        <pt x="427" y="0" on="1"/>
        <pt x="329" y="0" on="1"/>
        <pt x="392" y="298" on="1"/>
        <pt x="405" y="358" on="0"/>
        <pt x="356" y="432" on="0"/>
        <pt x="303" y="432" on="1"/>
        <pt x="269" y="432" on="0"/>
        <pt x="207" y="400" on="0"/>
        <pt x="180" y="369" on="1"/>
        <pt x="102" y="0" on="1"/>
      </contour>
    </TTGlyph>
    <TTGlyph name="macron" xMin="189" yMin="622" xMax="496" yMax="690">
      <contour>
        <pt x="496" y="690" on="1"/>
        <pt x="482" y="622" on="1"/>
        <pt x="189" y="622" on="1"/>
        <pt x="203" y="690" on="1"/>
      </contour>
    </TTGlyph>
    <TTGlyph name="minus" xMin="64" yMin="318" xMax="505" yMax="398">
      <contour>
        <pt x="505" y="398" on="1"/>
        <pt x="488" y="318" on="1"/>
        <pt x="64" y="318" on="1"/>
        <pt x="81" y="398" on="1"/>
      </contour>
    </TTGlyph>
    <TTGlyph name="multiply" xMin="56" yMin="152" xMax="521" yMax="564">
      <contour>
        <pt x="97" y="152" on="1"/>
        <pt x="56" y="205" on="1"/>
        <pt x="240" y="361" on="1"/>
        <pt x="122" y="517" on="1"/>
        <pt x="180" y="564" on="1"/>
        <pt x="297" y="409" on="1"/>
        <pt x="479" y="564" on="1"/>
        <pt x="521" y="511" on="1"/>
        <pt x="337" y="356" on="1"/>
        <pt x="454" y="201" on="1"/>
        <pt x="396" y="153" on="1"/>
        <pt x="280" y="307" on="1"/>
      </contour>
    </TTGlyph>
    <TTGlyph name="n" xMin="5" yMin="0" xMax="517" yMax="518">
      <contour>
        <pt x="5" y="0" on="1"/>
        <pt x="113" y="509" on="1"/>
        <pt x="210" y="509" on="1"/>
        <pt x="201" y="465" on="1"/>
        <pt x="233" y="491" on="0"/>
        <pt x="307" y="518" on="0"/>
        <pt x="348" y="518" on="1"/>
        <pt x="393" y="518" on="0"/>
        <pt x="463" y="486" on="0"/>
        <pt x="507" y="430" on="0"/>
        <pt x="522" y="352" on="0"/>
        <pt x="512" y="306" on="1"/>
        <pt x="447" y="0" on="1"/>
        <pt x="350" y="0" on="1"/>
        <pt x="412" y="295" on="1"/>
        <pt x="425" y="357" on="0"/>
        <pt x="369" y="432" on="0"/>
        <pt x="311" y="432" on="1"/>
        <pt x="274" y="432" on="0"/>
        <pt x="207" y="401" on="0"/>
        <pt x="181" y="372" on="1"/>
        <pt x="102" y="0" on="1"/>
      </contour>
    </TTGlyph>
    <TTGlyph name="nacute" xMin="5" yMin="0" xMax="529" yMax="725">
      <component glyphName="n" x="0" y="0" flags="0x204"/>
      <component glyphName="acute" x="60" y="0" flags="0x4"/>
    </TTGlyph>
    <TTGlyph name="ncaron" xMin="5" yMin="0" xMax="535" yMax="728">
      <component glyphName="n" x="0" y="0" flags="0x204"/>
      <component glyphName="caron" x="24" y="0" flags="0x4"/>
    </TTGlyph>
    <TTGlyph name="ncommaaccent" xMin="5" yMin="-273" xMax="517" yMax="518">
      <component glyphName="n" x="0" y="0" flags="0x204"/>
      <component glyphName="commaaccent" x="165" y="0" flags="0x4"/>
    </TTGlyph>
    <TTGlyph name="nine" xMin="20" yMin="-9" xMax="600" yMax="707">
      <contour>
        <pt x="351" y="707" on="1"/>
        <pt x="464" y="707" on="0"/>
        <pt x="600" y="557" on="0"/>
        <pt x="600" y="434" on="1"/>
        <pt x="600" y="344" on="0"/>
        <pt x="538" y="182" on="0"/>
        <pt x="433" y="62" on="0"/>
        <pt x="290" y="-9" on="0"/>
        <pt x="211" y="-9" on="1"/>
        <pt x="158" y="-9" on="0"/>
        <pt x="58" y="27" on="0"/>
        <pt x="20" y="59" on="1"/>
        <pt x="86" y="128" on="1"/>
        <pt x="115" y="104" on="0"/>
        <pt x="187" y="78" on="0"/>
        <pt x="225" y="78" on="1"/>
        <pt x="273" y="78" on="0"/>
        <pt x="360" y="118" on="0"/>
        <pt x="430" y="187" on="0"/>
        <pt x="481" y="284" on="0"/>
        <pt x="493" y="340" on="1"/>
        <pt x="450" y="303" on="0"/>
        <pt x="347" y="263" on="0"/>
        <pt x="294" y="263" on="1"/>
        <pt x="201" y="263" on="0"/>
        <pt x="81" y="373" on="0"/>
        <pt x="81" y="457" on="1"/>
        <pt x="81" y="508" on="0"/>
        <pt x="124" y="599" on="0"/>
        <pt x="198" y="667" on="0"/>
        <pt x="296" y="707" on="0"/>
      </contour>
      <contour>
        <pt x="503" y="439" on="1"/>
        <pt x="503" y="523" on="0"/>
        <pt x="417" y="621" on="0"/>
        <pt x="345" y="621" on="1"/>
        <pt x="311" y="621" on="0"/>
        <pt x="250" y="597" on="0"/>
        <pt x="205" y="556" on="0"/>
        <pt x="178" y="500" on="0"/>
        <pt x="178" y="469" on="1"/>
        <pt x="178" y="413" on="0"/>
        <pt x="258" y="341" on="0"/>
        <pt x="320" y="341" on="1"/>
        <pt x="368" y="341" on="0"/>
        <pt x="462" y="382" on="0"/>
        <pt x="503" y="420" on="1"/>
      </contour>
    </TTGlyph>
    <TTGlyph name="notequal" xMin="19" yMin="121" xMax="547" yMax="589">
      <contour>
        <pt x="19" y="121" on="1"/>
        <pt x="119" y="228" on="1"/>
        <pt x="44" y="228" on="1"/>
        <pt x="61" y="308" on="1"/>
        <pt x="194" y="308" on="1"/>
        <pt x="282" y="402" on="1"/>
        <pt x="82" y="402" on="1"/>
        <pt x="99" y="482" on="1"/>
        <pt x="357" y="482" on="1"/>
        <pt x="457" y="589" on="1"/>
        <pt x="547" y="589" on="1"/>
        <pt x="447" y="482" on="1"/>
        <pt x="523" y="482" on="1"/>
        <pt x="506" y="402" on="1"/>
        <pt x="372" y="402" on="1"/>
        <pt x="284" y="308" on="1"/>
        <pt x="486" y="308" on="1"/>
        <pt x="469" y="228" on="1"/>
        <pt x="209" y="228" on="1"/>
        <pt x="109" y="121" on="1"/>
      </contour>
    </TTGlyph>
    <TTGlyph name="ntilde" xMin="5" yMin="0" xMax="548" yMax="720">
      <component glyphName="n" x="0" y="0" flags="0x204"/>
      <component glyphName="tilde" x="28" y="0" flags="0x4"/>
    </TTGlyph>
    <TTGlyph name="numbersign" xMin="7" yMin="0" xMax="705" yMax="700">
      <contour>
        <pt x="7" y="0" on="1"/>
        <pt x="110" y="209" on="1"/>
        <pt x="7" y="209" on="1"/>
        <pt x="22" y="283" on="1"/>
        <pt x="146" y="283" on="1"/>
        <pt x="213" y="417" on="1"/>
        <pt x="100" y="417" on="1"/>
        <pt x="116" y="491" on="1"/>
        <pt x="249" y="491" on="1"/>
        <pt x="352" y="700" on="1"/>
        <pt x="442" y="700" on="1"/>
        <pt x="339" y="491" on="1"/>
        <pt x="513" y="491" on="1"/>
        <pt x="616" y="700" on="1"/>
        <pt x="705" y="700" on="1"/>
        <pt x="602" y="491" on="1"/>
        <pt x="705" y="491" on="1"/>
        <pt x="690" y="417" on="1"/>
        <pt x="566" y="417" on="1"/>
        <pt x="500" y="283" on="1"/>
        <pt x="612" y="283" on="1"/>
        <pt x="596" y="209" on="1"/>
        <pt x="464" y="209" on="1"/>
        <pt x="361" y="0" on="1"/>
        <pt x="271" y="0" on="1"/>
        <pt x="374" y="209" on="1"/>
        <pt x="200" y="209" on="1"/>
        <pt x="97" y="0" on="1"/>
      </contour>
      <contour>
        <pt x="236" y="283" on="1"/>
        <pt x="410" y="283" on="1"/>
        <pt x="477" y="417" on="1"/>
        <pt x="303" y="417" on="1"/>
      </contour>
    </TTGlyph>
    <TTGlyph name="o" xMin="35" yMin="-10" xMax="556" yMax="519">
      <contour>
        <pt x="35" y="234" on="1"/>
        <pt x="35" y="292" on="0"/>
        <pt x="80" y="396" on="0"/>
        <pt x="155" y="473" on="0"/>
        <pt x="257" y="519" on="0"/>
        <pt x="313" y="519" on="1"/>
        <pt x="365" y="519" on="0"/>
        <pt x="454" y="482" on="0"/>
        <pt x="519" y="417" on="0"/>
        <pt x="556" y="328" on="0"/>
        <pt x="556" y="276" on="1"/>
        <pt x="556" y="218" on="0"/>
        <pt x="511" y="114" on="0"/>
        <pt x="436" y="36" on="0"/>
        <pt x="334" y="-10" on="0"/>
        <pt x="278" y="-10" on="1"/>
        <pt x="226" y="-10" on="0"/>
        <pt x="137" y="27" on="0"/>
        <pt x="72" y="92" on="0"/>
        <pt x="35" y="182" on="0"/>
      </contour>
      <contour>
        <pt x="282" y="78" on="1"/>
        <pt x="318" y="78" on="0"/>
        <pt x="383" y="109" on="0"/>
        <pt x="432" y="161" on="0"/>
        <pt x="460" y="232" on="0"/>
        <pt x="460" y="271" on="1"/>
        <pt x="460" y="340" on="0"/>
        <pt x="373" y="431" on="0"/>
        <pt x="309" y="431" on="1"/>
        <pt x="273" y="431" on="0"/>
        <pt x="208" y="400" on="0"/>
        <pt x="159" y="348" on="0"/>
        <pt x="131" y="278" on="0"/>
        <pt x="131" y="239" on="1"/>
        <pt x="131" y="170" on="0"/>
        <pt x="217" y="78" on="0"/>
      </contour>
    </TTGlyph>
    <TTGlyph name="oacute" xMin="35" yMin="-10" xMax="556" yMax="725">
      <component glyphName="o" x="0" y="0" flags="0x204"/>
      <component glyphName="acute" x="48" y="0" flags="0x4"/>
    </TTGlyph>
    <TTGlyph name="obreve" xMin="35" yMin="-10" xMax="556" yMax="742">
      <component glyphName="o" x="0" y="0" flags="0x204"/>
      <component glyphName="breve" x="13" y="0" flags="0x4"/>
    </TTGlyph>
    <TTGlyph name="ocircumflex" xMin="35" yMin="-10" xMax="556" yMax="727">
      <component glyphName="o" x="0" y="0" flags="0x204"/>
      <component glyphName="circumflex" x="12" y="0" flags="0x4"/>
    </TTGlyph>
    <TTGlyph name="odieresis" xMin="35" yMin="-10" xMax="556" yMax="719">
      <component glyphName="o" x="0" y="0" flags="0x204"/>
      <component glyphName="dieresis" x="-7" y="0" flags="0x4"/>
    </TTGlyph>
    <TTGlyph name="oe" xMin="35" yMin="-10" xMax="953" yMax="519">
      <contour>
        <pt x="35" y="234" on="1"/>
        <pt x="35" y="292" on="0"/>
        <pt x="80" y="396" on="0"/>
        <pt x="155" y="473" on="0"/>
        <pt x="257" y="519" on="0"/>
        <pt x="313" y="519" on="1"/>
        <pt x="380" y="519" on="0"/>
        <pt x="488" y="456" on="0"/>
        <pt x="519" y="404" on="1"/>
        <pt x="555" y="455" on="0"/>
        <pt x="666" y="517" on="0"/>
        <pt x="730" y="517" on="1"/>
        <pt x="778" y="517" on="0"/>
        <pt x="860" y="481" on="0"/>
        <pt x="919" y="416" on="0"/>
        <pt x="953" y="327" on="0"/>
        <pt x="953" y="275" on="1"/>
        <pt x="953" y="265" on="0"/>
        <pt x="951" y="243" on="0"/>
        <pt x="949" y="223" on="1"/>
        <pt x="555" y="223" on="1"/>
        <pt x="560" y="159" on="0"/>
        <pt x="650" y="75" on="0"/>
        <pt x="716" y="75" on="1"/>
        <pt x="751" y="75" on="0"/>
        <pt x="817" y="96" on="0"/>
        <pt x="842" y="115" on="1"/>
        <pt x="895" y="49" on="1"/>
        <pt x="852" y="18" on="0"/>
        <pt x="761" y="-10" on="0"/>
        <pt x="710" y="-10" on="1"/>
        <pt x="638" y="-10" on="0"/>
        <pt x="527" y="52" on="0"/>
        <pt x="496" y="106" on="1"/>
        <pt x="459" y="54" on="0"/>
        <pt x="344" y="-10" on="0"/>
        <pt x="278" y="-10" on="1"/>
        <pt x="226" y="-10" on="0"/>
        <pt x="137" y="27" on="0"/>
        <pt x="72" y="92" on="0"/>
        <pt x="35" y="182" on="0"/>
      </contour>
      <contour>
        <pt x="723" y="432" on="1"/>
        <pt x="667" y="432" on="0"/>
        <pt x="579" y="355" on="0"/>
        <pt x="563" y="297" on="1"/>
        <pt x="860" y="297" on="1"/>
        <pt x="854" y="356" on="0"/>
        <pt x="778" y="432" on="0"/>
      </contour>
      <contour>
        <pt x="282" y="78" on="1"/>
        <pt x="318" y="78" on="0"/>
        <pt x="383" y="109" on="0"/>
        <pt x="432" y="161" on="0"/>
        <pt x="460" y="232" on="0"/>
        <pt x="460" y="271" on="1"/>
        <pt x="460" y="340" on="0"/>
        <pt x="373" y="431" on="0"/>
        <pt x="309" y="431" on="1"/>
        <pt x="273" y="431" on="0"/>
        <pt x="208" y="400" on="0"/>
        <pt x="159" y="348" on="0"/>
        <pt x="131" y="278" on="0"/>
        <pt x="131" y="239" on="1"/>
        <pt x="131" y="170" on="0"/>
        <pt x="217" y="78" on="0"/>
      </contour>
    </TTGlyph>
    <TTGlyph name="ogonek" xMin="72" yMin="-222" xMax="261" yMax="19">
      <contour>
        <pt x="261" y="0" on="1"/>
        <pt x="198" y="-33" on="0"/>
        <pt x="138" y="-94" on="0"/>
        <pt x="138" y="-126" on="1"/>
        <pt x="138" y="-144" on="0"/>
        <pt x="163" y="-166" on="0"/>
        <pt x="185" y="-166" on="1"/>
        <pt x="195" y="-166" on="0"/>
        <pt x="218" y="-160" on="0"/>
        <pt x="228" y="-155" on="1"/>
        <pt x="233" y="-204" on="1"/>
        <pt x="217" y="-212" on="0"/>
        <pt x="179" y="-222" on="0"/>
        <pt x="160" y="-222" on="1"/>
        <pt x="120" y="-222" on="0"/>
        <pt x="72" y="-182" on="0"/>
        <pt x="72" y="-149" on="1"/>
        <pt x="72" y="-103" on="0"/>
        <pt x="150" y="-19" on="0"/>
        <pt x="228" y="19" on="1"/>
      </contour>
    </TTGlyph>
    <TTGlyph name="ograve" xMin="35" yMin="-10" xMax="556" yMax="725">
      <component glyphName="o" x="0" y="0" flags="0x204"/>
      <component glyphName="grave" x="5" y="0" flags="0x4"/>
    </TTGlyph>
    <TTGlyph name="ohungarumlaut" xMin="35" yMin="-10" xMax="616" yMax="725">
      <component glyphName="o" x="0" y="0" flags="0x204"/>
      <component glyphName="hungarumlaut" x="24" y="0" flags="0x4"/>
    </TTGlyph>
    <TTGlyph name="omacron" xMin="35" yMin="-10" xMax="556" yMax="690">
      <component glyphName="o" x="0" y="0" flags="0x204"/>
      <component glyphName="macron" x="12" y="0" flags="0x4"/>
    </TTGlyph>
    <TTGlyph name="one" xMin="85" yMin="0" xMax="340" yMax="700">
      <contour>
        <pt x="340" y="700" on="1"/>
        <pt x="191" y="0" on="1"/>
        <pt x="93" y="0" on="1"/>
        <pt x="220" y="597" on="1"/>
        <pt x="85" y="544" on="1"/>
        <pt x="104" y="632" on="1"/>
        <pt x="278" y="700" on="1"/>
      </contour>
    </TTGlyph>
    <TTGlyph name="onehalf" xMin="-6" yMin="0" xMax="630" yMax="700">
      <component glyphName="onesuperior" x="0" y="0" flags="0x4"/>
      <component glyphName="fraction" x="4" y="0" flags="0x4"/>
      <component glyphName="uni2082" x="362" y="0" flags="0x4"/>
    </TTGlyph>
    <TTGlyph name="onequarter" xMin="-3" yMin="0" xMax="608" yMax="700">
      <component glyphName="uni2084" x="288" y="0" flags="0x4"/>
      <component glyphName="onesuperior" x="0" y="0" flags="0x4"/>
      <component glyphName="fraction" x="7" y="0" flags="0x4"/>
    </TTGlyph>
    <TTGlyph name="onesuperior" xMin="92" yMin="350" xMax="243" yMax="700">
      <component glyphName="uni2081" x="74" y="350" flags="0x4"/>
    </TTGlyph>
    <TTGlyph name="ordfeminine" xMin="71" yMin="314" xMax="433" yMax="709">
      <contour>
        <pt x="202" y="314" on="1"/>
        <pt x="143" y="314" on="0"/>
        <pt x="71" y="372" on="0"/>
        <pt x="71" y="421" on="1"/>
        <pt x="71" y="478" on="0"/>
        <pt x="159" y="547" on="0"/>
        <pt x="231" y="547" on="1"/>
        <pt x="260" y="547" on="0"/>
        <pt x="319" y="533" on="0"/>
        <pt x="344" y="521" on="1"/>
        <pt x="351" y="553" on="1"/>
        <pt x="360" y="598" on="0"/>
        <pt x="317" y="642" on="0"/>
        <pt x="266" y="642" on="1"/>
        <pt x="244" y="642" on="0"/>
        <pt x="192" y="629" on="0"/>
        <pt x="155" y="615" on="1"/>
        <pt x="135" y="677" on="1"/>
        <pt x="176" y="693" on="0"/>
        <pt x="249" y="709" on="0"/>
        <pt x="283" y="709" on="1"/>
        <pt x="366" y="709" on="0"/>
        <pt x="444" y="627" on="0"/>
        <pt x="429" y="555" on="1"/>
        <pt x="378" y="319" on="1"/>
        <pt x="301" y="319" on="1"/>
        <pt x="307" y="346" on="1"/>
        <pt x="282" y="330" on="0"/>
        <pt x="230" y="314" on="0"/>
      </contour>
      <contour>
        <pt x="148" y="428" on="1"/>
        <pt x="148" y="402" on="0"/>
        <pt x="190" y="372" on="0"/>
        <pt x="227" y="372" on="1"/>
        <pt x="252" y="372" on="0"/>
        <pt x="298" y="387" on="0"/>
        <pt x="319" y="402" on="1"/>
        <pt x="332" y="466" on="1"/>
        <pt x="312" y="479" on="0"/>
        <pt x="263" y="492" on="0"/>
        <pt x="235" y="492" on="1"/>
        <pt x="196" y="492" on="0"/>
        <pt x="148" y="456" on="0"/>
      </contour>
    </TTGlyph>
    <TTGlyph name="ordmasculine" xMin="88" yMin="311" xMax="483" yMax="710">
      <contour>
        <pt x="88" y="495" on="1"/>
        <pt x="88" y="539" on="0"/>
        <pt x="122" y="617" on="0"/>
        <pt x="179" y="676" on="0"/>
        <pt x="256" y="710" on="0"/>
        <pt x="299" y="710" on="1"/>
        <pt x="377" y="710" on="0"/>
        <pt x="483" y="604" on="0"/>
        <pt x="483" y="526" on="1"/>
        <pt x="483" y="482" on="0"/>
        <pt x="449" y="404" on="0"/>
        <pt x="392" y="345" on="0"/>
        <pt x="316" y="311" on="0"/>
        <pt x="273" y="311" on="1"/>
        <pt x="194" y="311" on="0"/>
        <pt x="88" y="417" on="0"/>
      </contour>
      <contour>
        <pt x="405" y="522" on="1"/>
        <pt x="405" y="573" on="0"/>
        <pt x="342" y="639" on="0"/>
        <pt x="295" y="639" on="1"/>
        <pt x="243" y="639" on="0"/>
        <pt x="166" y="556" on="0"/>
        <pt x="166" y="499" on="1"/>
        <pt x="166" y="449" on="0"/>
        <pt x="229" y="382" on="0"/>
        <pt x="277" y="382" on="1"/>
        <pt x="329" y="382" on="0"/>
        <pt x="405" y="465" on="0"/>
      </contour>
    </TTGlyph>
    <TTGlyph name="oslash" xMin="-4" yMin="-10" xMax="595" yMax="519">
      <contour>
        <pt x="-4" y="0" on="1"/>
        <pt x="82" y="85" on="1"/>
        <pt x="60" y="116" on="0"/>
        <pt x="35" y="191" on="0"/>
        <pt x="35" y="234" on="1"/>
        <pt x="35" y="292" on="0"/>
        <pt x="80" y="396" on="0"/>
        <pt x="155" y="473" on="0"/>
        <pt x="257" y="519" on="0"/>
        <pt x="313" y="519" on="1"/>
        <pt x="358" y="519" on="0"/>
        <pt x="437" y="491" on="0"/>
        <pt x="468" y="466" on="1"/>
        <pt x="512" y="509" on="1"/>
        <pt x="595" y="509" on="1"/>
        <pt x="509" y="424" on="1"/>
        <pt x="531" y="394" on="0"/>
        <pt x="556" y="319" on="0"/>
        <pt x="556" y="276" on="1"/>
        <pt x="556" y="218" on="0"/>
        <pt x="511" y="114" on="0"/>
        <pt x="436" y="36" on="0"/>
        <pt x="334" y="-10" on="0"/>
        <pt x="278" y="-10" on="1"/>
        <pt x="233" y="-10" on="0"/>
        <pt x="153" y="18" on="0"/>
        <pt x="122" y="43" on="1"/>
        <pt x="78" y="0" on="1"/>
      </contour>
      <contour>
        <pt x="131" y="239" on="1"/>
        <pt x="131" y="215" on="0"/>
        <pt x="142" y="172" on="0"/>
        <pt x="152" y="154" on="1"/>
        <pt x="401" y="400" on="1"/>
        <pt x="382" y="415" on="0"/>
        <pt x="335" y="431" on="0"/>
        <pt x="309" y="431" on="1"/>
        <pt x="273" y="431" on="0"/>
        <pt x="208" y="400" on="0"/>
        <pt x="159" y="348" on="0"/>
        <pt x="131" y="278" on="0"/>
      </contour>
      <contour>
        <pt x="282" y="78" on="1"/>
        <pt x="318" y="78" on="0"/>
        <pt x="383" y="109" on="0"/>
        <pt x="432" y="161" on="0"/>
        <pt x="460" y="232" on="0"/>
        <pt x="460" y="271" on="1"/>
        <pt x="460" y="295" on="0"/>
        <pt x="449" y="337" on="0"/>
        <pt x="439" y="355" on="1"/>
        <pt x="189" y="109" on="1"/>
        <pt x="208" y="94" on="0"/>
        <pt x="255" y="78" on="0"/>
      </contour>
    </TTGlyph>
    <TTGlyph name="otilde" xMin="35" yMin="-10" xMax="556" yMax="720">
      <component glyphName="o" x="0" y="0" flags="0x204"/>
      <component glyphName="tilde" x="17" y="0" flags="0x4"/>
    </TTGlyph>
    <TTGlyph name="p" xMin="-39" yMin="-207" xMax="560" yMax="516">
      <contour>
        <pt x="-39" y="-207" on="1"/>
        <pt x="113" y="509" on="1"/>
        <pt x="210" y="509" on="1"/>
        <pt x="203" y="478" on="1"/>
        <pt x="233" y="497" on="0"/>
        <pt x="299" y="516" on="0"/>
        <pt x="334" y="516" on="1"/>
        <pt x="382" y="516" on="0"/>
        <pt x="465" y="480" on="0"/>
        <pt x="526" y="418" on="0"/>
        <pt x="560" y="332" on="0"/>
        <pt x="560" y="282" on="1"/>
        <pt x="560" y="222" on="0"/>
        <pt x="516" y="116" on="0"/>
        <pt x="439" y="38" on="0"/>
        <pt x="336" y="-8" on="0"/>
        <pt x="278" y="-8" on="1"/>
        <pt x="229" y="-8" on="0"/>
        <pt x="145" y="26" on="0"/>
        <pt x="114" y="58" on="1"/>
        <pt x="58" y="-207" on="1"/>
      </contour>
      <contour>
        <pt x="311" y="430" on="1"/>
        <pt x="275" y="430" on="0"/>
        <pt x="209" y="405" on="0"/>
        <pt x="183" y="382" on="1"/>
        <pt x="134" y="150" on="1"/>
        <pt x="154" y="118" on="0"/>
        <pt x="230" y="79" on="0"/>
        <pt x="275" y="79" on="1"/>
        <pt x="315" y="79" on="0"/>
        <pt x="384" y="109" on="0"/>
        <pt x="435" y="162" on="0"/>
        <pt x="464" y="233" on="0"/>
        <pt x="464" y="273" on="1"/>
        <pt x="464" y="341" on="0"/>
        <pt x="377" y="430" on="0"/>
      </contour>
    </TTGlyph>
    <TTGlyph name="paragraph" xMin="92" yMin="0" xMax="693" yMax="700">
      <contour>
        <pt x="266" y="0" on="1"/>
        <pt x="324" y="274" on="1"/>
        <pt x="298" y="274" on="1"/>
        <pt x="205" y="274" on="0"/>
        <pt x="92" y="376" on="0"/>
        <pt x="92" y="459" on="1"/>
        <pt x="92" y="511" on="0"/>
        <pt x="130" y="600" on="0"/>
        <pt x="196" y="664" on="0"/>
        <pt x="289" y="700" on="0"/>
        <pt x="343" y="700" on="1"/>
        <pt x="693" y="700" on="1"/>
        <pt x="544" y="0" on="1"/>
        <pt x="459" y="0" on="1"/>
        <pt x="517" y="274" on="1"/>
        <pt x="409" y="274" on="1"/>
        <pt x="351" y="0" on="1"/>
      </contour>
      <contour>
        <pt x="535" y="356" on="1"/>
        <pt x="590" y="617" on="1"/>
        <pt x="482" y="617" on="1"/>
        <pt x="427" y="356" on="1"/>
      </contour>
      <contour>
        <pt x="305" y="356" on="1"/>
        <pt x="342" y="356" on="1"/>
        <pt x="397" y="617" on="1"/>
        <pt x="333" y="617" on="1"/>
        <pt x="267" y="617" on="0"/>
        <pt x="182" y="534" on="0"/>
        <pt x="182" y="470" on="1"/>
        <pt x="182" y="417" on="0"/>
        <pt x="248" y="356" on="0"/>
      </contour>
    </TTGlyph>
    <TTGlyph name="parenleft" xMin="45" yMin="-214" xMax="441" yMax="711">
      <contour>
        <pt x="45" y="141" on="1"/>
        <pt x="45" y="233" on="0"/>
        <pt x="95" y="406" on="0"/>
        <pt x="188" y="554" on="0"/>
        <pt x="320" y="673" on="0"/>
        <pt x="401" y="711" on="1"/>
        <pt x="441" y="642" on="1"/>
        <pt x="373" y="610" on="0"/>
        <pt x="261" y="507" on="0"/>
        <pt x="182" y="378" on="0"/>
        <pt x="139" y="228" on="0"/>
        <pt x="139" y="150" on="1"/>
        <pt x="139" y="53" on="0"/>
        <pt x="209" y="-103" on="0"/>
        <pt x="275" y="-155" on="1"/>
        <pt x="210" y="-214" on="1"/>
        <pt x="129" y="-152" on="0"/>
        <pt x="45" y="29" on="0"/>
      </contour>
    </TTGlyph>
    <TTGlyph name="parenright" xMin="-50" yMin="-213" xMax="346" yMax="712">
      <contour>
        <pt x="346" y="357" on="1"/>
        <pt x="346" y="265" on="0"/>
        <pt x="296" y="92" on="0"/>
        <pt x="203" y="-56" on="0"/>
        <pt x="71" y="-175" on="0"/>
        <pt x="-10" y="-213" on="1"/>
        <pt x="-50" y="-144" on="1"/>
        <pt x="18" y="-112" on="0"/>
        <pt x="130" y="-9" on="0"/>
        <pt x="209" y="120" on="0"/>
        <pt x="252" y="270" on="0"/>
        <pt x="252" y="348" on="1"/>
        <pt x="252" y="445" on="0"/>
        <pt x="182" y="601" on="0"/>
        <pt x="116" y="653" on="1"/>
        <pt x="181" y="712" on="1"/>
        <pt x="262" y="650" on="0"/>
        <pt x="346" y="469" on="0"/>
      </contour>
    </TTGlyph>
    <TTGlyph name="percent" xMin="78" yMin="-5" xMax="739" yMax="705">
      <component glyphName="uni2070" x="0" y="0" flags="0x4"/>
      <component glyphName="fraction" x="112" y="0" flags="0x4"/>
      <component glyphName="uni2080" x="426" y="0" flags="0x4"/>
    </TTGlyph>
    <TTGlyph name="period" xMin="0" yMin="-8" xMax="125" yMax="119">
      <contour>
        <pt x="71" y="119" on="1"/>
        <pt x="94" y="119" on="0"/>
        <pt x="125" y="86" on="0"/>
        <pt x="125" y="63" on="1"/>
        <pt x="125" y="35" on="0"/>
        <pt x="83" y="-8" on="0"/>
        <pt x="56" y="-8" on="1"/>
        <pt x="32" y="-8" on="0"/>
        <pt x="0" y="25" on="0"/>
        <pt x="0" y="48" on="1"/>
        <pt x="0" y="76" on="0"/>
        <pt x="43" y="119" on="0"/>
      </contour>
    </TTGlyph>
    <TTGlyph name="periodcentered" xMin="51" yMin="219" xMax="176" yMax="346">
      <component glyphName="period" x="51" y="227" flags="0x4"/>
    </TTGlyph>
    <TTGlyph name="periodcentered.cap" xMin="88" yMin="284" xMax="213" yMax="411">
      <component glyphName="periodcentered" x="37" y="65" flags="0x4"/>
    </TTGlyph>
    <TTGlyph name="perthousand" xMin="78" yMin="-5" xMax="1084" yMax="705">
      <component glyphName="uni2070" x="0" y="0" flags="0x4"/>
      <component glyphName="fraction" x="112" y="0" flags="0x4"/>
      <component glyphName="uni2080" x="426" y="0" flags="0x4"/>
      <component glyphName="uni2080" x="771" y="0" flags="0x4"/>
    </TTGlyph>
    <TTGlyph name="plus" xMin="64" yMin="139" xMax="505" yMax="574">
      <contour>
        <pt x="277" y="139" on="1"/>
        <pt x="198" y="139" on="1"/>
        <pt x="236" y="318" on="1"/>
        <pt x="64" y="318" on="1"/>
        <pt x="81" y="398" on="1"/>
        <pt x="253" y="398" on="1"/>
        <pt x="291" y="574" on="1"/>
        <pt x="370" y="574" on="1"/>
        <pt x="332" y="398" on="1"/>
        <pt x="505" y="398" on="1"/>
        <pt x="488" y="318" on="1"/>
        <pt x="315" y="318" on="1"/>
      </contour>
    </TTGlyph>
    <TTGlyph name="plusminus" xMin="-4" yMin="-1" xMax="512" yMax="598">
      <contour>
        <pt x="287" y="183" on="1"/>
        <pt x="208" y="183" on="1"/>
        <pt x="244" y="352" on="1"/>
        <pt x="71" y="352" on="1"/>
        <pt x="88" y="432" on="1"/>
        <pt x="261" y="432" on="1"/>
        <pt x="296" y="598" on="1"/>
        <pt x="375" y="598" on="1"/>
        <pt x="340" y="432" on="1"/>
        <pt x="512" y="432" on="1"/>
        <pt x="495" y="352" on="1"/>
        <pt x="323" y="352" on="1"/>
      </contour>
      <contour>
        <pt x="437" y="79" on="1"/>
        <pt x="420" y="-1" on="1"/>
        <pt x="-4" y="-1" on="1"/>
        <pt x="13" y="79" on="1"/>
      </contour>
    </TTGlyph>
    <TTGlyph name="q" xMin="35" yMin="-207" xMax="590" yMax="516">
      <contour>
        <pt x="260" y="-8" on="1"/>
        <pt x="212" y="-8" on="0"/>
        <pt x="130" y="28" on="0"/>
        <pt x="69" y="91" on="0"/>
        <pt x="35" y="177" on="0"/>
        <pt x="35" y="227" on="1"/>
        <pt x="35" y="287" on="0"/>
        <pt x="79" y="393" on="0"/>
        <pt x="155" y="470" on="0"/>
        <pt x="258" y="516" on="0"/>
        <pt x="316" y="516" on="1"/>
        <pt x="365" y="516" on="0"/>
        <pt x="450" y="482" on="0"/>
        <pt x="481" y="451" on="1"/>
        <pt x="493" y="509" on="1"/>
        <pt x="590" y="509" on="1"/>
        <pt x="438" y="-207" on="1"/>
        <pt x="341" y="-207" on="1"/>
        <pt x="391" y="31" on="1"/>
        <pt x="361" y="12" on="0"/>
        <pt x="295" y="-8" on="0"/>
      </contour>
      <contour>
        <pt x="131" y="235" on="1"/>
        <pt x="131" y="167" on="0"/>
        <pt x="218" y="78" on="0"/>
        <pt x="284" y="78" on="1"/>
        <pt x="320" y="78" on="0"/>
        <pt x="385" y="103" on="0"/>
        <pt x="411" y="126" on="1"/>
        <pt x="461" y="361" on="1"/>
        <pt x="440" y="392" on="0"/>
        <pt x="364" y="430" on="0"/>
        <pt x="320" y="430" on="1"/>
        <pt x="281" y="430" on="0"/>
        <pt x="212" y="399" on="0"/>
        <pt x="161" y="347" on="0"/>
        <pt x="131" y="275" on="0"/>
      </contour>
    </TTGlyph>
    <TTGlyph name="question" xMin="85" yMin="-8" xMax="530" yMax="708">
      <contour>
        <pt x="389" y="359" on="1"/>
        <pt x="337" y="329" on="1"/>
        <pt x="298" y="307" on="0"/>
        <pt x="259" y="249" on="0"/>
        <pt x="252" y="203" on="1"/>
        <pt x="169" y="203" on="1"/>
        <pt x="179" y="273" on="0"/>
        <pt x="233" y="358" on="0"/>
        <pt x="287" y="389" on="1"/>
        <pt x="350" y="426" on="1"/>
        <pt x="389" y="448" on="0"/>
        <pt x="432" y="506" on="0"/>
        <pt x="432" y="536" on="1"/>
        <pt x="432" y="574" on="0"/>
        <pt x="366" y="621" on="0"/>
        <pt x="314" y="621" on="1"/>
        <pt x="270" y="621" on="0"/>
        <pt x="185" y="580" on="0"/>
        <pt x="152" y="543" on="1"/>
        <pt x="85" y="589" on="1"/>
        <pt x="133" y="645" on="0"/>
        <pt x="260" y="708" on="0"/>
        <pt x="327" y="708" on="1"/>
        <pt x="416" y="708" on="0"/>
        <pt x="530" y="619" on="0"/>
        <pt x="530" y="550" on="1"/>
        <pt x="530" y="493" on="0"/>
        <pt x="462" y="402" on="0"/>
      </contour>
      <contour>
        <pt x="188" y="119" on="1"/>
        <pt x="212" y="119" on="0"/>
        <pt x="243" y="86" on="0"/>
        <pt x="243" y="63" on="1"/>
        <pt x="243" y="35" on="0"/>
        <pt x="201" y="-8" on="0"/>
        <pt x="174" y="-8" on="1"/>
        <pt x="150" y="-8" on="0"/>
        <pt x="118" y="25" on="0"/>
        <pt x="118" y="48" on="1"/>
        <pt x="118" y="76" on="0"/>
        <pt x="160" y="119" on="0"/>
      </contour>
    </TTGlyph>
    <TTGlyph name="questiondown" xMin="15" yMin="-6" xMax="460" yMax="710">
      <contour>
        <pt x="156" y="343" on="1"/>
        <pt x="208" y="373" on="1"/>
        <pt x="247" y="395" on="0"/>
        <pt x="286" y="453" on="0"/>
        <pt x="293" y="499" on="1"/>
        <pt x="376" y="499" on="1"/>
        <pt x="366" y="429" on="0"/>
        <pt x="312" y="344" on="0"/>
        <pt x="258" y="313" on="1"/>
        <pt x="195" y="276" on="1"/>
        <pt x="156" y="254" on="0"/>
        <pt x="113" y="196" on="0"/>
        <pt x="113" y="166" on="1"/>
        <pt x="113" y="128" on="0"/>
        <pt x="179" y="81" on="0"/>
        <pt x="231" y="81" on="1"/>
        <pt x="275" y="81" on="0"/>
        <pt x="360" y="122" on="0"/>
        <pt x="393" y="159" on="1"/>
        <pt x="460" y="113" on="1"/>
        <pt x="412" y="57" on="0"/>
        <pt x="285" y="-6" on="0"/>
        <pt x="218" y="-6" on="1"/>
        <pt x="129" y="-6" on="0"/>
        <pt x="15" y="83" on="0"/>
        <pt x="15" y="152" on="1"/>
        <pt x="15" y="209" on="0"/>
        <pt x="83" y="300" on="0"/>
      </contour>
      <contour>
        <pt x="357" y="583" on="1"/>
        <pt x="333" y="583" on="0"/>
        <pt x="302" y="616" on="0"/>
        <pt x="302" y="639" on="1"/>
        <pt x="302" y="667" on="0"/>
        <pt x="344" y="710" on="0"/>
        <pt x="371" y="710" on="1"/>
        <pt x="395" y="710" on="0"/>
        <pt x="427" y="677" on="0"/>
        <pt x="427" y="654" on="1"/>
        <pt x="427" y="626" on="0"/>
        <pt x="385" y="583" on="0"/>
      </contour>
    </TTGlyph>
    <TTGlyph name="quotedbl" xMin="113" yMin="467" xMax="399" yMax="703">
      <component glyphName="quotesingle" x="0" y="0" flags="0x4"/>
      <component glyphName="quotesingle" x="151" y="0" flags="0x4"/>
    </TTGlyph>
    <TTGlyph name="quotedblbase" xMin="-76" yMin="-143" xMax="298" yMax="90">
      <component glyphName="comma" x="159" y="0" flags="0x4"/>
      <component glyphName="comma" x="0" y="0" flags="0x4"/>
    </TTGlyph>
    <TTGlyph name="quotedblleft" xMin="78" yMin="495" xMax="451" yMax="728">
      <contour>
        <pt x="182" y="495" on="1"/>
        <pt x="78" y="495" on="1"/>
        <pt x="217" y="728" on="1"/>
        <pt x="293" y="728" on="1"/>
      </contour>
      <contour>
        <pt x="340" y="495" on="1"/>
        <pt x="236" y="495" on="1"/>
        <pt x="375" y="728" on="1"/>
        <pt x="451" y="728" on="1"/>
      </contour>
    </TTGlyph>
</ttFont>
